<svg width="925" height="222" viewBox="0 0 925 222" fill="none" xmlns="http://www.w3.org/2000/svg">
<path d="M96.7 87.87L123.42 58.97C130.78 51.85 136.49 46.57 140.52 43.14C144.55 39.71 149.55 36.06 155.52 32.19C165.96 25.15 175.47 21.63 184.06 21.63C190.55 21.63 193.79 24.05 193.79 28.87C193.79 32.56 192.91 36.24 191.16 39.93C189.4 43.62 187.03 46.96 184.05 49.94C178.69 55.29 168.42 62.58 153.23 71.8C141.82 78.82 132.86 85.01 126.36 90.37C127.42 96.87 128.58 102.73 129.86 107.95C131.14 113.17 132.56 117.78 134.14 121.78C135.72 125.78 137.96 130.59 140.85 136.2C144.09 142.52 147.6 148.32 151.38 153.59C160.86 166.41 170.3 174.84 179.7 178.88C182.6 180.29 184.05 181.56 184.05 182.7C184.05 184.9 182.51 187.31 179.43 189.94C175.38 194.15 170.48 197.4 164.72 199.69C158.96 201.97 153.13 203.12 147.24 203.12C136.51 203.12 126.88 200.3 118.35 194.65C109.82 189.01 103.29 181.08 98.77 170.88C93.55 159.36 90.16 145.39 88.61 128.97C88.26 126.16 88.09 123.04 88.09 119.62H87.56C83.96 124.8 81.36 128.99 79.78 132.2C78.2 135.41 75.74 141.18 72.4 149.52C68.44 160.15 64.8 168.33 61.46 174.08C58.12 179.83 54.3 184.51 49.99 188.11C45.95 191.62 41.46 194.56 36.54 196.93C31.62 199.3 27.54 200.49 24.28 200.49C21.91 200.49 19.93 199.59 18.35 197.79C16.77 195.99 15.98 193.82 15.98 191.27C15.98 189.69 16.07 188.46 16.24 187.58C20.37 170.99 24.87 154.15 29.74 137.07C34.61 119.99 39.59 103.88 44.69 88.74C49.78 73.59 54.48 60.75 58.79 50.22C63.1 39.68 66.44 32.97 68.82 30.07C71.64 26.82 75.81 24.17 81.35 22.1C86.89 20.04 92.65 19.01 98.63 19.01C104.08 19.01 107.95 19.74 110.24 21.19C112.53 22.64 113.67 25.04 113.67 28.38C113.67 32.96 109.02 48.08 99.71 73.77C99.09 75.62 98.06 78.5 96.62 82.41C95.17 86.32 94.14 89.21 93.52 91.05L94.05 91.71L96.68 87.88L96.7 87.87Z" fill="black"/>
<path d="M192.17 154.86C190.31 154.74 188.62 153.89 187.09 152.32C185.56 150.67 184.48 148.88 183.84 146.96C183.2 145.04 182.88 142.55 182.88 139.49C182.88 132.67 184.15 124.98 186.69 116.4C189.23 107.82 192.11 101.62 195.34 97.77C196.62 96.16 198.4 95.35 200.67 95.35C203.07 95.35 205 96.45 206.46 98.64C207.93 100.83 208.66 103.7 208.66 107.26C208.66 112.51 207.9 118.65 206.39 125.7C204.88 132.75 202.76 140.07 200.02 147.67C198.95 150.73 197.63 152.8 196.06 153.87C194.99 154.53 193.73 154.86 192.28 154.86H192.16H192.17ZM199.62 92.57C195.74 92.45 193.79 90.11 193.79 85.57C193.79 83.3 194.36 80.66 195.49 77.67C196.63 74.67 197.92 72.45 199.36 71.01C200.1 70.23 200.86 69.67 201.62 69.34C202.38 69.01 203.37 68.84 204.56 68.84C206.63 68.84 208.14 69.35 209.12 70.36C210.09 71.37 210.58 73.06 210.58 75.41C210.58 78.35 210.07 81.12 209.06 83.75C208.05 86.37 206.69 88.5 205 90.13C203.31 91.76 201.57 92.58 199.79 92.58H199.6L199.62 92.57Z" fill="black"/>
<path d="M233.28 156.91C235.72 156.79 237.94 155.6 239.94 153.35C241.94 151.1 242.95 148.65 242.95 146C242.95 144.18 242.35 142.74 241.15 141.66C239.87 140.38 237 139.12 232.53 137.88C225.96 135.98 221.68 133.85 219.7 131.5C217.84 129.6 216.91 127.33 216.91 124.68C216.91 119.93 218.63 115.18 222.09 110.42C225.54 105.67 229.95 101.77 235.32 98.7401C240.69 95.7001 246.11 94.1801 251.56 94.1801C254.2 94.1801 256.68 94.8001 259 96.0401C261.31 97.2801 263.15 98.9201 264.52 100.97C265.88 103.02 266.57 105.24 266.57 107.63C266.57 110.02 265.83 112.42 264.34 114.94C262.85 117.46 260.98 119.56 258.73 121.23C256.48 122.9 254.34 123.74 252.31 123.74C251.15 123.74 250.15 123.49 249.3 123C248.45 122.5 248.03 121.97 248.03 121.39C248.03 120.81 248.2 119.96 248.53 118.85C249.44 115.3 249.89 112.2 249.89 109.55C249.89 106.9 249.1 104.49 247.53 102.17C245.5 103.57 244.18 104.69 243.56 105.51C241.99 107.33 240.77 109.39 239.9 111.7C238.95 114.05 238.47 116.28 238.47 118.39C238.47 119.88 238.81 121.06 239.5 121.95C240.18 122.84 241.3 123.59 242.85 124.21C244.4 124.83 246.74 125.51 249.88 126.26C255.13 127.54 258.82 128.78 260.97 129.98C261.47 130.27 262.23 130.87 263.26 131.78C264.83 133.48 265.61 135.67 265.61 138.35C265.61 141.2 264.72 144.09 262.94 147C261.16 149.92 258.42 152.92 254.7 156.02C250.73 159.37 246.79 161.77 242.86 163.21C238.93 164.66 234.59 165.38 229.84 165.38C225.09 165.38 221.65 164.47 219.02 162.65C216.4 160.83 215.08 158.35 215.08 155.21C215.08 152.98 215.95 150.72 217.68 148.42C219.42 146.13 221.57 144.26 224.16 142.81C226.74 141.36 229.27 140.64 231.75 140.64C233.61 140.64 234.54 141.05 234.54 141.88C234.54 142.29 234.27 142.97 233.73 143.92C232.12 146.81 231.31 149.48 231.31 151.92C231.31 153.66 231.95 155.31 233.23 156.88L233.28 156.91Z" fill="black"/>
<path d="M290.19 156.91C292.63 156.79 294.85 155.6 296.85 153.35C298.85 151.1 299.86 148.65 299.86 146C299.86 144.18 299.26 142.74 298.06 141.66C296.78 140.38 293.91 139.12 289.44 137.88C282.87 135.98 278.59 133.85 276.61 131.5C274.75 129.6 273.82 127.33 273.82 124.68C273.82 119.93 275.54 115.18 279 110.42C282.45 105.67 286.86 101.77 292.23 98.7401C297.6 95.7001 303.02 94.1801 308.47 94.1801C311.11 94.1801 313.59 94.8001 315.91 96.0401C318.22 97.2801 320.06 98.9201 321.43 100.97C322.79 103.02 323.48 105.24 323.48 107.63C323.48 110.02 322.74 112.42 321.25 114.94C319.76 117.46 317.89 119.56 315.64 121.23C313.39 122.9 311.25 123.74 309.22 123.74C308.06 123.74 307.06 123.49 306.21 123C305.36 122.5 304.94 121.97 304.94 121.39C304.94 120.81 305.11 119.96 305.44 118.85C306.35 115.3 306.8 112.2 306.8 109.55C306.8 106.9 306.01 104.49 304.44 102.17C302.41 103.57 301.09 104.69 300.47 105.51C298.9 107.33 297.68 109.39 296.81 111.7C295.86 114.05 295.38 116.28 295.38 118.39C295.38 119.88 295.72 121.06 296.41 121.95C297.09 122.84 298.21 123.59 299.76 124.21C301.31 124.83 303.65 125.51 306.79 126.26C312.04 127.54 315.73 128.78 317.88 129.98C318.38 130.27 319.14 130.87 320.17 131.78C321.74 133.48 322.52 135.67 322.52 138.35C322.52 141.2 321.63 144.09 319.85 147C318.07 149.92 315.33 152.92 311.61 156.02C307.64 159.37 303.7 161.77 299.77 163.21C295.84 164.66 291.5 165.38 286.75 165.38C282 165.38 278.56 164.47 275.93 162.65C273.31 160.83 271.99 158.35 271.99 155.21C271.99 152.98 272.86 150.72 274.59 148.42C276.33 146.13 278.48 144.26 281.07 142.81C283.65 141.36 286.18 140.64 288.66 140.64C290.52 140.64 291.45 141.05 291.45 141.88C291.45 142.29 291.18 142.97 290.64 143.92C289.03 146.81 288.22 149.48 288.22 151.92C288.22 153.66 288.86 155.31 290.14 156.88L290.19 156.91Z" fill="black"/>
<path d="M429.97 131.81L413.05 149.17C410.86 151.36 409.09 152.86 407.75 153.66C406.41 154.47 404.93 154.87 403.32 154.87C400.8 154.87 398.68 153.93 396.97 152.05C395.25 150.17 394.4 147.87 394.4 145.14C394.4 143.45 394.66 141.6 395.17 139.59C395.69 137.59 396.71 134.6 398.24 130.63C398.53 129.8 398.81 129.09 399.08 128.49C399.35 127.89 399.57 127.39 399.73 126.97L399.48 126.72C395.47 130.94 391.55 135.38 387.7 140.05C384.48 143.89 381.91 146.77 380.01 148.67C378.11 150.57 376.39 152 374.86 152.95C373.33 153.9 371.97 154.38 370.77 154.38C368.08 154.38 365.96 153.33 364.39 151.22C362.82 149.11 362.03 146.24 362.03 142.6C362.03 138.01 364.01 130.6 367.98 120.35C371.53 111.26 374.28 105.16 376.22 102.06C379.07 97.76 382.33 95.61 386.01 95.61C388.24 95.61 390.09 96.14 391.55 97.19C393.01 98.24 393.75 99.62 393.75 101.31C393.75 104.41 392.58 109.14 390.23 115.5C389.32 117.85 388.4 120.52 387.45 123.49L387.7 123.74C389.23 122.05 391.68 119.14 395.07 115C400.89 107.81 405.29 102.92 408.27 100.32C412.11 96.77 415.63 94.99 418.81 94.99C420.22 94.99 421.56 95.47 422.84 96.42C424.12 97.37 425.14 98.64 425.91 100.23C426.68 101.82 427.06 103.48 427.06 105.22C427.06 106.96 425.78 111.55 423.23 118.86C422.69 120.39 422.28 121.59 422 122.46C421.71 123.33 421.44 124.07 421.2 124.69L421.51 124.94C422.09 124.36 422.6 123.85 423.06 123.39C423.51 122.93 424.02 122.45 424.58 121.93C425.14 121.41 425.66 120.93 426.16 120.47C427.27 119.39 430.08 116.56 434.58 111.97C437.55 108.66 439.88 106.4 441.58 105.18C443.27 103.96 444.91 103.35 446.48 103.35C449.04 103.35 450.99 104.23 452.34 105.98C453.68 107.74 454.35 110.33 454.35 113.76C454.35 115.87 454.02 119.19 453.36 123.74C452.78 128.86 452.38 132.88 452.15 135.8C451.92 138.71 451.81 140.75 451.81 141.91C451.81 142.78 451.86 143.88 451.97 145.23C452.07 146.57 452.25 148.01 452.5 149.54C452.75 151.07 453.08 152.76 453.49 154.62C453.99 156.89 454.32 158.67 454.48 159.95C454.15 161.44 453.06 162.7 451.23 163.73C449.39 164.76 447.4 165.28 445.25 165.28C441.86 165.28 438.68 163.75 435.7 160.69C434.38 159.28 433.35 157.87 432.63 156.44C431.91 155.01 431.39 153.32 431.08 151.36C430.77 149.4 430.62 146.8 430.62 143.58C430.62 141.47 430.87 137.11 431.36 130.5L431.11 130.25L429.99 131.8L429.97 131.81Z" fill="black"/>
<path d="M499.93 111.72L500.74 109.05C501.82 104.92 503.45 101.74 505.64 99.5C507.05 98.1 508.66 96.94 510.48 96.03C512.3 95.12 513.95 94.67 515.44 94.67C518.17 94.67 519.53 95.83 519.53 98.14C519.53 99.3 519.16 101.1 518.41 103.53C517.66 105.96 516.68 108.73 515.46 111.81C514.24 114.89 512.81 118.27 511.18 121.94C509.54 125.62 507.74 129.4 505.75 133.28C502.15 140.64 498.51 146.86 494.83 151.94C492.18 155.58 489.49 158.8 486.76 161.61C484.03 164.42 481.16 166.94 478.17 169.17C475.17 171.4 472.34 173.09 469.67 174.22C467 175.36 464.55 175.92 462.32 175.92C460.46 175.92 459.53 175.11 459.53 173.5C459.53 172.22 459.82 170.69 460.4 168.91C460.98 167.13 461.79 165.46 462.82 163.89C463.94 162.4 465.34 161.08 467.04 159.92C469.19 158.43 472.36 156.74 476.54 154.84C474.05 150.67 472.17 147.36 470.89 144.92C469.61 142.48 468.2 139.44 466.67 135.81C463.27 127.75 461.58 120.44 461.58 113.87C461.58 108.87 462.2 104.8 463.44 101.66C464.56 98.97 466.6 97.07 469.58 95.96C471.98 95.01 474.13 94.53 476.03 94.53C478.72 94.53 480.52 95.55 481.45 97.6C482.38 99.64 483.2 104.43 483.9 111.95C484.65 120.01 485.86 127.96 487.52 135.82C487.81 137.02 488.14 138.67 488.52 140.78H488.77C489.89 138.34 491.11 135.39 492.43 131.92C492.84 130.93 494.29 127.27 496.77 120.95C498.18 117.15 499.23 114.07 499.93 111.71V111.72Z" fill="black"/>
<path d="M588.35 78.68L584.57 71.86C585.52 71.12 586.41 70.6 587.23 70.31C590.41 69.24 594.25 68.7 598.75 68.7C603.25 68.7 606.8 70 609.28 72.61C611.43 74.88 613.18 78.07 614.55 82.16C615.91 86.25 617.17 92.0799 618.33 99.6399C618.95 103.48 619.49 106.38 619.94 108.32C621.39 113.73 622.35 117.19 622.83 118.7C623.31 120.21 624.16 122.62 625.41 125.92C625.82 126.87 626.37 128.2 627.05 129.92C627.73 131.64 628.38 133.24 629 134.72C630.36 137.94 632.43 142.2 635.2 147.49C631.73 149.93 628.8 151.69 626.4 152.76C624 153.83 621.81 154.37 619.83 154.37C617.39 154.37 615.36 153.9 613.73 152.94C612.1 151.99 610.62 150.48 609.3 148.41C607.73 145.6 606.16 141.78 604.59 136.94C604.42 136.48 604.23 135.91 604 135.2C603.77 134.5 603.51 133.73 603.22 132.91C598.37 134.94 594.59 135.95 591.9 135.95C590.36 135.95 589.04 135.91 587.92 135.83C586.96 135.75 582.55 135.62 574.67 135.46L574.1 136.67C571.82 141.52 569.69 145.21 567.7 147.73C565.72 150.25 563.43 152.03 560.85 153.06C558.27 154.09 555.03 154.61 551.15 154.61C548.92 154.61 547.33 154.36 546.38 153.87C545.43 153.37 544.95 152.57 544.95 151.45C544.95 150.09 547.22 146.33 551.77 140.17C553.38 138.02 554.58 136.33 555.36 135.09C551.02 134.26 548.85 132.73 548.85 130.5C548.85 128.68 550.59 125.98 554.06 122.38C555.71 120.64 557.25 119.54 558.68 119.06C560.11 118.59 562.6 118.33 566.15 118.29C569.46 112.21 571.56 108.34 572.47 106.67C573.38 105 574.56 102.89 576 100.35C577.45 97.8099 579.09 94.9199 580.93 91.6699C582.77 88.4299 585.24 84.1 588.34 78.68H588.35ZM593.69 95.0199L582.37 119.1H599.12L593.93 95.0199H593.68H593.69Z" fill="black"/>
<path d="M657.03 156.91C659.47 156.79 661.69 155.6 663.69 153.35C665.69 151.1 666.7 148.65 666.7 146C666.7 144.18 666.1 142.74 664.9 141.66C663.62 140.38 660.75 139.12 656.28 137.88C649.71 135.98 645.43 133.85 643.45 131.5C641.59 129.6 640.66 127.33 640.66 124.68C640.66 119.93 642.38 115.18 645.84 110.42C649.29 105.67 653.7 101.77 659.07 98.7401C664.44 95.7001 669.86 94.1801 675.31 94.1801C677.95 94.1801 680.43 94.8001 682.75 96.0401C685.06 97.2801 686.9 98.9201 688.27 100.97C689.63 103.02 690.32 105.24 690.32 107.63C690.32 110.02 689.58 112.42 688.09 114.94C686.6 117.46 684.73 119.56 682.48 121.23C680.23 122.9 678.09 123.74 676.06 123.74C674.9 123.74 673.9 123.49 673.05 123C672.2 122.51 671.78 121.97 671.78 121.39C671.78 120.81 671.95 119.96 672.28 118.85C673.19 115.3 673.64 112.2 673.64 109.55C673.64 106.9 672.85 104.49 671.28 102.17C669.26 103.57 667.93 104.69 667.31 105.51C665.74 107.33 664.52 109.39 663.65 111.7C662.7 114.05 662.22 116.28 662.22 118.39C662.22 119.88 662.56 121.06 663.25 121.95C663.93 122.84 665.05 123.59 666.6 124.21C668.15 124.83 670.49 125.51 673.63 126.26C678.88 127.54 682.58 128.78 684.72 129.98C685.22 130.27 685.98 130.87 687.01 131.78C688.58 133.48 689.36 135.67 689.36 138.35C689.36 141.2 688.47 144.09 686.69 147C684.91 149.92 682.16 152.92 678.44 156.02C674.47 159.37 670.53 161.77 666.6 163.21C662.67 164.66 658.33 165.38 653.58 165.38C648.83 165.38 645.39 164.47 642.76 162.65C640.14 160.83 638.82 158.35 638.82 155.21C638.82 152.98 639.69 150.72 641.42 148.42C643.16 146.13 645.31 144.26 647.9 142.81C650.48 141.36 653.01 140.64 655.49 140.64C657.35 140.64 658.28 141.05 658.28 141.88C658.28 142.29 658.01 142.97 657.47 143.92C655.86 146.81 655.05 149.48 655.05 151.92C655.05 153.66 655.69 155.31 656.97 156.88L657.03 156.91Z" fill="black"/>
<path d="M718.25 140.91L718.13 144.32C717.55 152.54 716.81 159.24 715.9 164.41C714.99 169.58 713.96 172.74 712.8 173.89C711.23 175.58 708.77 176.43 705.43 176.43C701.84 176.43 699.26 175.73 697.69 174.32C697.07 173.62 696.66 172.98 696.45 172.4C696.24 171.82 696.14 170.77 696.14 169.24V167.32C696.26 155.71 697.38 144.03 699.49 132.3C701.6 120.56 704.39 109.87 707.86 100.22C711.33 90.5701 715.13 82.9301 719.27 77.2801C723.4 71.6401 727.51 68.8201 731.6 68.8201C733.46 68.8201 734.85 69.4501 735.78 70.7101C736.71 71.9701 737.17 73.7801 737.17 76.1301C737.17 79.6401 736.8 83.3701 736.05 87.3201C735.31 91.2701 734.41 94.4801 733.35 96.9601C732.3 99.4401 731.23 100.68 730.16 100.68C729.17 100.68 728.67 98.9401 728.67 95.4701V93.5501C728.67 90.0801 728.6 87.8101 728.46 86.7301C728.32 85.6601 728 84.9301 727.51 84.5601C727.06 85.4701 726.73 86.5201 726.53 87.7201C725.53 92.6801 724.71 97.1601 724.09 101.17C723.46 105.18 722.52 111.69 721.27 120.69C721.23 121.19 721.17 121.74 721.08 122.36C721 122.98 720.93 123.54 720.89 124.03H721.76C722.26 123.99 722.71 123.96 723.13 123.94C723.55 123.92 724.19 123.91 725.06 123.91C726.63 123.7 728.04 123.6 729.29 123.6C734.22 123.6 736.68 124.88 736.68 127.44C736.68 128.76 736.21 130.36 735.28 132.24C734.35 134.12 733.24 135.68 731.96 136.92C730.68 138.16 729.22 139.06 727.58 139.62C725.95 140.18 723.6 140.56 720.54 140.77C719.88 140.77 719.41 140.78 719.14 140.8C718.87 140.82 718.57 140.85 718.24 140.89L718.25 140.91Z" fill="black"/>
<path d="M784.54 136.21V136.46L784.29 136.21C780.45 140.71 776.92 144.4 773.72 147.27C770.52 150.14 767.56 152.3 764.86 153.75C762.15 155.2 759.66 155.92 757.39 155.92C752.76 155.92 748.94 154.37 745.92 151.27C742.9 148.17 741.39 144.25 741.39 139.49C741.39 136.56 742.13 133.08 743.62 129.08C745.11 125.07 747.15 121.15 749.76 117.3C754.1 111.02 759.55 105.69 766.12 101.31C772.9 96.81 779.43 94.55 785.71 94.55C791 94.55 795.35 95.63 798.76 97.8C802.17 99.97 803.87 102.71 803.87 106.01C803.87 108.45 803.02 111.03 801.33 113.76C803.56 113.76 804.97 114 805.54 114.47C806.12 114.95 806.41 116.05 806.41 117.79C806.41 117.62 806.31 118.47 806.1 120.33C805.85 124.42 805.73 128.24 805.73 131.8C805.73 133.66 805.75 135.06 805.79 136.01C805.83 136.96 805.91 138.06 806.04 139.3C806.16 140.54 806.29 141.53 806.41 142.27C806.74 144.21 807.28 146.14 808.02 148.04C805.54 150.48 803.16 152.27 800.89 153.4C798.62 154.54 796.3 155.11 793.95 155.11C787.59 155.11 784.4 149.78 784.4 139.12C784.4 137.88 784.44 136.91 784.52 136.21H784.54ZM788.25 122.01L787.07 122.38C784.1 123.21 781.95 123.62 780.62 123.62C779.01 123.62 778.2 123.21 778.2 122.38C778.2 122.09 778.53 121.33 779.19 120.09C781.5 116.58 782.66 113.27 782.66 110.17C782.66 108.39 782.35 106.77 781.73 105.3C781.11 103.83 780.43 103.1 779.68 103.1C779.02 103.1 778.01 103.8 776.64 105.21C772.8 109.38 769.75 113.66 767.5 118.04C765.25 122.42 764.12 126.33 764.12 129.75C764.12 132.02 764.58 133.9 765.51 135.39C766.44 136.88 767.61 137.62 769.01 137.62C770.21 137.62 772.45 136.34 775.74 133.78C779.03 131.22 782.71 127.83 786.8 123.61L788.47 122.25L788.22 122L788.25 122.01Z" fill="black"/>
<path d="M845.59 107.88C847.24 103.21 848.63 98.32 849.74 93.22C850.86 88.12 851.41 84.2 851.41 81.47C851.41 80.73 851.2 80.35 850.79 80.35C850.13 80.35 848.97 81.83 847.32 84.78C845.67 87.74 844.28 90.74 843.17 93.8C840.77 100.54 838.92 106.13 837.62 110.57C836.32 115.01 835.42 118.74 834.92 121.76C834.42 124.78 834.18 127.86 834.18 131C834.18 133.69 834.48 135.65 835.08 136.89C835.68 138.13 836.64 138.75 837.96 138.75C840.23 138.75 842.77 137.75 845.58 135.74C848.39 133.74 850.93 131.1 853.2 127.84C854.98 125.4 856.36 124.18 857.35 124.18C858.63 124.18 859.27 125.19 859.27 127.22C859.27 131.64 857.89 135.96 855.12 140.18C852.35 144.4 848.79 147.82 844.43 150.44C840.07 153.06 835.62 154.38 831.07 154.38C825.49 154.38 820.95 152.62 817.43 149.11C813.92 145.6 812.16 141.01 812.16 135.35C812.16 130.72 813.15 125.3 815.14 119.08C817.12 112.86 819.78 106.6 823.1 100.3C826.43 94 830.07 88.29 834.04 83.16C838.01 78.04 841.93 74.11 845.82 71.38C848.22 69.6 850.88 68.71 853.82 68.71C856.05 68.71 858.08 69.4 859.9 70.79C861.72 72.17 863.12 74.11 864.11 76.59C865.1 79.07 865.6 81.82 865.6 84.83C865.6 91.32 864.33 97.66 861.79 103.86C859.25 110.06 855.7 115.43 851.16 119.98C849.01 122.17 846.94 123.89 844.96 125.13C842.98 126.37 841.24 126.99 839.75 126.99C838.26 126.99 837.58 126.43 837.58 125.32C837.58 124.7 838.12 123.52 839.19 121.79C840.64 119.52 842.33 116.09 844.27 111.5C844.44 111.05 844.62 110.56 844.83 110.04C845.04 109.52 845.28 108.81 845.57 107.9L845.59 107.88Z" fill="black"/>
<path d="M882.04 94.3001L882.29 93.5601C885.02 85.8701 887.38 80.4601 889.37 77.3201C890.32 75.8301 891.65 74.5101 893.34 73.3501C896.53 71.3301 899.53 70.3101 902.34 70.3101C903.99 70.3101 905.26 70.6801 906.13 71.4301C907 72.1801 907.43 73.2501 907.43 74.6601C907.43 75.6101 906.81 77.5501 905.56 80.4801C903.44 85.3601 901.86 89.9201 900.82 94.1801C901.52 94.2601 902.21 94.3901 902.87 94.5501C905.35 94.9201 906.99 95.3501 907.77 95.8201C908.55 96.2901 908.95 97.1501 908.95 98.3901C908.95 100.58 908.39 102.61 907.28 104.47C906.16 106.33 904.7 107.69 902.88 108.56C901.52 109.18 899.31 109.59 896.25 109.8C895.72 111.41 895.13 113.62 894.47 116.44C894.1 118.92 893.69 122.35 893.24 126.73C892.99 128.34 892.87 129.85 892.87 131.25C892.87 137.77 896.03 141.04 902.36 141.04H902.92C903.66 141.04 904.04 141.16 904.04 141.41C904.04 142.07 903.34 143.19 901.93 144.76C900.52 146.33 898.97 147.72 897.28 148.91C895.46 150.15 893.48 151.14 891.32 151.89C889.17 152.63 887.22 153.01 885.48 153.01C881.13 153.01 877.6 151.54 874.89 148.61C872.18 145.68 870.82 141.79 870.82 136.96C870.82 134.89 871.18 132.19 871.9 128.84C872.62 125.49 873.75 121.01 875.28 115.39C875.53 114.4 875.8 113.36 876.09 112.26C876.38 111.17 876.54 110.51 876.59 110.31C874.94 110.27 873.76 109.92 873.06 109.26C872.36 108.6 872.01 107.52 872.01 106.04C872.01 103.44 873.01 100.98 875.02 98.6601C877.02 96.3501 879.37 94.9001 882.06 94.3201L882.04 94.3001Z" fill="black"/>
<path d="M96.7 87.87L123.42 58.97C130.78 51.85 136.49 46.57 140.52 43.14C144.55 39.71 149.55 36.06 155.52 32.19C165.96 25.15 175.47 21.63 184.06 21.63C190.55 21.63 193.79 24.05 193.79 28.87C193.79 32.56 192.91 36.24 191.16 39.93C189.4 43.62 187.03 46.96 184.05 49.94C178.69 55.29 168.42 62.58 153.23 71.8C141.82 78.82 132.86 85.01 126.36 90.37C127.42 96.87 128.58 102.73 129.86 107.95C131.14 113.17 132.56 117.78 134.14 121.78C135.72 125.78 137.96 130.59 140.85 136.2C144.09 142.52 147.6 148.32 151.38 153.59C160.86 166.41 170.3 174.84 179.7 178.88C182.6 180.29 184.05 181.56 184.05 182.7C184.05 184.9 182.51 187.31 179.43 189.94C175.38 194.15 170.48 197.4 164.72 199.69C158.96 201.97 153.13 203.12 147.24 203.12C136.51 203.12 126.88 200.3 118.35 194.65C109.82 189.01 103.29 181.08 98.77 170.88C93.55 159.36 90.16 145.39 88.61 128.97C88.26 126.16 88.09 123.04 88.09 119.62H87.56C83.96 124.8 81.36 128.99 79.78 132.2C78.2 135.41 75.74 141.18 72.4 149.52C68.44 160.15 64.8 168.33 61.46 174.08C58.12 179.83 54.3 184.51 49.99 188.11C45.95 191.62 41.46 194.56 36.54 196.93C31.62 199.3 27.54 200.49 24.28 200.49C21.91 200.49 19.93 199.59 18.35 197.79C16.77 195.99 15.98 193.82 15.98 191.27C15.98 189.69 16.07 188.46 16.24 187.58C20.37 170.99 24.87 154.15 29.74 137.07C34.61 119.99 39.59 103.88 44.69 88.74C49.78 73.59 54.48 60.75 58.79 50.22C63.1 39.68 66.44 32.97 68.82 30.07C71.64 26.82 75.81 24.17 81.35 22.1C86.89 20.04 92.65 19.01 98.63 19.01C104.08 19.01 107.95 19.74 110.24 21.19C112.53 22.64 113.67 25.04 113.67 28.38C113.67 32.96 109.02 48.08 99.71 73.77C99.09 75.62 98.06 78.5 96.62 82.41C95.17 86.32 94.14 89.21 93.52 91.05L94.05 91.71L96.68 87.88L96.7 87.87Z" stroke="white" stroke-width="22"/>
<path d="M192.17 154.86C190.31 154.74 188.62 153.89 187.09 152.32C185.56 150.67 184.48 148.88 183.84 146.96C183.2 145.04 182.88 142.55 182.88 139.49C182.88 132.67 184.15 124.98 186.69 116.4C189.23 107.82 192.11 101.62 195.34 97.77C196.62 96.16 198.4 95.35 200.67 95.35C203.07 95.35 205 96.45 206.46 98.64C207.93 100.83 208.66 103.7 208.66 107.26C208.66 112.51 207.9 118.65 206.39 125.7C204.88 132.75 202.76 140.07 200.02 147.67C198.95 150.73 197.63 152.8 196.06 153.87C194.99 154.53 193.73 154.86 192.28 154.86H192.16H192.17ZM199.62 92.57C195.74 92.45 193.79 90.11 193.79 85.57C193.79 83.3 194.36 80.66 195.49 77.67C196.63 74.67 197.92 72.45 199.36 71.01C200.1 70.23 200.86 69.67 201.62 69.34C202.38 69.01 203.37 68.84 204.56 68.84C206.63 68.84 208.14 69.35 209.12 70.36C210.09 71.37 210.58 73.06 210.58 75.41C210.58 78.35 210.07 81.12 209.06 83.75C208.05 86.37 206.69 88.5 205 90.13C203.31 91.76 201.57 92.58 199.79 92.58H199.6L199.62 92.57Z" stroke="white" stroke-width="22"/>
<path d="M233.28 156.91C235.72 156.79 237.94 155.6 239.94 153.35C241.94 151.1 242.95 148.65 242.95 146C242.95 144.18 242.35 142.74 241.15 141.66C239.87 140.38 237 139.12 232.53 137.88C225.96 135.98 221.68 133.85 219.7 131.5C217.84 129.6 216.91 127.33 216.91 124.68C216.91 119.93 218.63 115.18 222.09 110.42C225.54 105.67 229.95 101.77 235.32 98.7401C240.69 95.7001 246.11 94.1801 251.56 94.1801C254.2 94.1801 256.68 94.8001 259 96.0401C261.31 97.2801 263.15 98.9201 264.52 100.97C265.88 103.02 266.57 105.24 266.57 107.63C266.57 110.02 265.83 112.42 264.34 114.94C262.85 117.46 260.98 119.56 258.73 121.23C256.48 122.9 254.34 123.74 252.31 123.74C251.15 123.74 250.15 123.49 249.3 123C248.45 122.5 248.03 121.97 248.03 121.39C248.03 120.81 248.2 119.96 248.53 118.85C249.44 115.3 249.89 112.2 249.89 109.55C249.89 106.9 249.1 104.49 247.53 102.17C245.5 103.57 244.18 104.69 243.56 105.51C241.99 107.33 240.77 109.39 239.9 111.7C238.95 114.05 238.47 116.28 238.47 118.39C238.47 119.88 238.81 121.06 239.5 121.95C240.18 122.84 241.3 123.59 242.85 124.21C244.4 124.83 246.74 125.51 249.88 126.26C255.13 127.54 258.82 128.78 260.97 129.98C261.47 130.27 262.23 130.87 263.26 131.78C264.83 133.48 265.61 135.67 265.61 138.35C265.61 141.2 264.72 144.09 262.94 147C261.16 149.92 258.42 152.92 254.7 156.02C250.73 159.37 246.79 161.77 242.86 163.21C238.93 164.66 234.59 165.38 229.84 165.38C225.09 165.38 221.65 164.47 219.02 162.65C216.4 160.83 215.08 158.35 215.08 155.21C215.08 152.98 215.95 150.72 217.68 148.42C219.42 146.13 221.57 144.26 224.16 142.81C226.74 141.36 229.27 140.64 231.75 140.64C233.61 140.64 234.54 141.05 234.54 141.88C234.54 142.29 234.27 142.97 233.73 143.92C232.12 146.81 231.31 149.48 231.31 151.92C231.31 153.66 231.95 155.31 233.23 156.88L233.28 156.91Z" stroke="white" stroke-width="22"/>
<path d="M290.19 156.91C292.63 156.79 294.85 155.6 296.85 153.35C298.85 151.1 299.86 148.65 299.86 146C299.86 144.18 299.26 142.74 298.06 141.66C296.78 140.38 293.91 139.12 289.44 137.88C282.87 135.98 278.59 133.85 276.61 131.5C274.75 129.6 273.82 127.33 273.82 124.68C273.82 119.93 275.54 115.18 279 110.42C282.45 105.67 286.86 101.77 292.23 98.7401C297.6 95.7001 303.02 94.1801 308.47 94.1801C311.11 94.1801 313.59 94.8001 315.91 96.0401C318.22 97.2801 320.06 98.9201 321.43 100.97C322.79 103.02 323.48 105.24 323.48 107.63C323.48 110.02 322.74 112.42 321.25 114.94C319.76 117.46 317.89 119.56 315.64 121.23C313.39 122.9 311.25 123.74 309.22 123.74C308.06 123.74 307.06 123.49 306.21 123C305.36 122.5 304.94 121.97 304.94 121.39C304.94 120.81 305.11 119.96 305.44 118.85C306.35 115.3 306.8 112.2 306.8 109.55C306.8 106.9 306.01 104.49 304.44 102.17C302.41 103.57 301.09 104.69 300.47 105.51C298.9 107.33 297.68 109.39 296.81 111.7C295.86 114.05 295.38 116.28 295.38 118.39C295.38 119.88 295.72 121.06 296.41 121.95C297.09 122.84 298.21 123.59 299.76 124.21C301.31 124.83 303.65 125.51 306.79 126.26C312.04 127.54 315.73 128.78 317.88 129.98C318.38 130.27 319.14 130.87 320.17 131.78C321.74 133.48 322.52 135.67 322.52 138.35C322.52 141.2 321.63 144.09 319.85 147C318.07 149.92 315.33 152.92 311.61 156.02C307.64 159.37 303.7 161.77 299.77 163.21C295.84 164.66 291.5 165.38 286.75 165.38C282 165.38 278.56 164.47 275.93 162.65C273.31 160.83 271.99 158.35 271.99 155.21C271.99 152.98 272.86 150.72 274.59 148.42C276.33 146.13 278.48 144.26 281.07 142.81C283.65 141.36 286.18 140.64 288.66 140.64C290.52 140.64 291.45 141.05 291.45 141.88C291.45 142.29 291.18 142.97 290.64 143.92C289.03 146.81 288.22 149.48 288.22 151.92C288.22 153.66 288.86 155.31 290.14 156.88L290.19 156.91Z" stroke="white" stroke-width="22"/>
<path d="M429.97 131.81L413.05 149.17C410.86 151.36 409.09 152.86 407.75 153.66C406.41 154.47 404.93 154.87 403.32 154.87C400.8 154.87 398.68 153.93 396.97 152.05C395.25 150.17 394.4 147.87 394.4 145.14C394.4 143.45 394.66 141.6 395.17 139.59C395.69 137.59 396.71 134.6 398.24 130.63C398.53 129.8 398.81 129.09 399.08 128.49C399.35 127.89 399.57 127.39 399.73 126.97L399.48 126.72C395.47 130.94 391.55 135.38 387.7 140.05C384.48 143.89 381.91 146.77 380.01 148.67C378.11 150.57 376.39 152 374.86 152.95C373.33 153.9 371.97 154.38 370.77 154.38C368.08 154.38 365.96 153.33 364.39 151.22C362.82 149.11 362.03 146.24 362.03 142.6C362.03 138.01 364.01 130.6 367.98 120.35C371.53 111.26 374.28 105.16 376.22 102.06C379.07 97.76 382.33 95.61 386.01 95.61C388.24 95.61 390.09 96.14 391.55 97.19C393.01 98.24 393.75 99.62 393.75 101.31C393.75 104.41 392.58 109.14 390.23 115.5C389.32 117.85 388.4 120.52 387.45 123.49L387.7 123.74C389.23 122.05 391.68 119.14 395.07 115C400.89 107.81 405.29 102.92 408.27 100.32C412.11 96.77 415.63 94.99 418.81 94.99C420.22 94.99 421.56 95.47 422.84 96.42C424.12 97.37 425.14 98.64 425.91 100.23C426.68 101.82 427.06 103.48 427.06 105.22C427.06 106.96 425.78 111.55 423.23 118.86C422.69 120.39 422.28 121.59 422 122.46C421.71 123.33 421.44 124.07 421.2 124.69L421.51 124.94C422.09 124.36 422.6 123.85 423.06 123.39C423.51 122.93 424.02 122.45 424.58 121.93C425.14 121.41 425.66 120.93 426.16 120.47C427.27 119.39 430.08 116.56 434.58 111.97C437.55 108.66 439.88 106.4 441.58 105.18C443.27 103.96 444.91 103.35 446.48 103.35C449.04 103.35 450.99 104.23 452.34 105.98C453.68 107.74 454.35 110.33 454.35 113.76C454.35 115.87 454.02 119.19 453.36 123.74C452.78 128.86 452.38 132.88 452.15 135.8C451.92 138.71 451.81 140.75 451.81 141.91C451.81 142.78 451.86 143.88 451.97 145.23C452.07 146.57 452.25 148.01 452.5 149.54C452.75 151.07 453.08 152.76 453.49 154.62C453.99 156.89 454.32 158.67 454.48 159.95C454.15 161.44 453.06 162.7 451.23 163.73C449.39 164.76 447.4 165.28 445.25 165.28C441.86 165.28 438.68 163.75 435.7 160.69C434.38 159.28 433.35 157.87 432.63 156.44C431.91 155.01 431.39 153.32 431.08 151.36C430.77 149.4 430.62 146.8 430.62 143.58C430.62 141.47 430.87 137.11 431.36 130.5L431.11 130.25L429.99 131.8L429.97 131.81Z" stroke="white" stroke-width="22"/>
<path d="M499.93 111.72L500.74 109.05C501.82 104.92 503.45 101.74 505.64 99.5C507.05 98.1 508.66 96.94 510.48 96.03C512.3 95.12 513.95 94.67 515.44 94.67C518.17 94.67 519.53 95.83 519.53 98.14C519.53 99.3 519.16 101.1 518.41 103.53C517.66 105.96 516.68 108.73 515.46 111.81C514.24 114.89 512.81 118.27 511.18 121.94C509.54 125.62 507.74 129.4 505.75 133.28C502.15 140.64 498.51 146.86 494.83 151.94C492.18 155.58 489.49 158.8 486.76 161.61C484.03 164.42 481.16 166.94 478.17 169.17C475.17 171.4 472.34 173.09 469.67 174.22C467 175.36 464.55 175.92 462.32 175.92C460.46 175.92 459.53 175.11 459.53 173.5C459.53 172.22 459.82 170.69 460.4 168.91C460.98 167.13 461.79 165.46 462.82 163.89C463.94 162.4 465.34 161.08 467.04 159.92C469.19 158.43 472.36 156.74 476.54 154.84C474.05 150.67 472.17 147.36 470.89 144.92C469.61 142.48 468.2 139.44 466.67 135.81C463.27 127.75 461.58 120.44 461.58 113.87C461.58 108.87 462.2 104.8 463.44 101.66C464.56 98.97 466.6 97.07 469.58 95.96C471.98 95.01 474.13 94.53 476.03 94.53C478.72 94.53 480.52 95.55 481.45 97.6C482.38 99.64 483.2 104.43 483.9 111.95C484.65 120.01 485.86 127.96 487.52 135.82C487.81 137.02 488.14 138.67 488.52 140.78H488.77C489.89 138.34 491.11 135.39 492.43 131.92C492.84 130.93 494.29 127.27 496.77 120.95C498.18 117.15 499.23 114.07 499.93 111.71V111.72Z" stroke="white" stroke-width="22"/>
<path d="M588.35 78.68L584.57 71.86C585.52 71.12 586.41 70.6 587.23 70.31C590.41 69.24 594.25 68.7 598.75 68.7C603.25 68.7 606.8 70 609.28 72.61C611.43 74.88 613.18 78.07 614.55 82.16C615.91 86.25 617.17 92.0799 618.33 99.6399C618.95 103.48 619.49 106.38 619.94 108.32C621.39 113.73 622.35 117.19 622.83 118.7C623.31 120.21 624.16 122.62 625.41 125.92C625.82 126.87 626.37 128.2 627.05 129.92C627.73 131.64 628.38 133.24 629 134.72C630.36 137.94 632.43 142.2 635.2 147.49C631.73 149.93 628.8 151.69 626.4 152.76C624 153.83 621.81 154.37 619.83 154.37C617.39 154.37 615.36 153.9 613.73 152.94C612.1 151.99 610.62 150.48 609.3 148.41C607.73 145.6 606.16 141.78 604.59 136.94C604.42 136.48 604.23 135.91 604 135.2C603.77 134.5 603.51 133.73 603.22 132.91C598.37 134.94 594.59 135.95 591.9 135.95C590.36 135.95 589.04 135.91 587.92 135.83C586.96 135.75 582.55 135.62 574.67 135.46L574.1 136.67C571.82 141.52 569.69 145.21 567.7 147.73C565.72 150.25 563.43 152.03 560.85 153.06C558.27 154.09 555.03 154.61 551.15 154.61C548.92 154.61 547.33 154.36 546.38 153.87C545.43 153.37 544.95 152.57 544.95 151.45C544.95 150.09 547.22 146.33 551.77 140.17C553.38 138.02 554.58 136.33 555.36 135.09C551.02 134.26 548.85 132.73 548.85 130.5C548.85 128.68 550.59 125.98 554.06 122.38C555.71 120.64 557.25 119.54 558.68 119.06C560.11 118.59 562.6 118.33 566.15 118.29C569.46 112.21 571.56 108.34 572.47 106.67C573.38 105 574.56 102.89 576 100.35C577.45 97.8099 579.09 94.9199 580.93 91.6699C582.77 88.4299 585.24 84.1 588.34 78.68H588.35ZM593.69 95.0199L582.37 119.1H599.12L593.93 95.0199H593.68H593.69Z" stroke="white" stroke-width="22"/>
<path d="M657.03 156.91C659.47 156.79 661.69 155.6 663.69 153.35C665.69 151.1 666.7 148.65 666.7 146C666.7 144.18 666.1 142.74 664.9 141.66C663.62 140.38 660.75 139.12 656.28 137.88C649.71 135.98 645.43 133.85 643.45 131.5C641.59 129.6 640.66 127.33 640.66 124.68C640.66 119.93 642.38 115.18 645.84 110.42C649.29 105.67 653.7 101.77 659.07 98.7401C664.44 95.7001 669.86 94.1801 675.31 94.1801C677.95 94.1801 680.43 94.8001 682.75 96.0401C685.06 97.2801 686.9 98.9201 688.27 100.97C689.63 103.02 690.32 105.24 690.32 107.63C690.32 110.02 689.58 112.42 688.09 114.94C686.6 117.46 684.73 119.56 682.48 121.23C680.23 122.9 678.09 123.74 676.06 123.74C674.9 123.74 673.9 123.49 673.05 123C672.2 122.51 671.78 121.97 671.78 121.39C671.78 120.81 671.95 119.96 672.28 118.85C673.19 115.3 673.64 112.2 673.64 109.55C673.64 106.9 672.85 104.49 671.28 102.17C669.26 103.57 667.93 104.69 667.31 105.51C665.74 107.33 664.52 109.39 663.65 111.7C662.7 114.05 662.22 116.28 662.22 118.39C662.22 119.88 662.56 121.06 663.25 121.95C663.93 122.84 665.05 123.59 666.6 124.21C668.15 124.83 670.49 125.51 673.63 126.26C678.88 127.54 682.58 128.78 684.72 129.98C685.22 130.27 685.98 130.87 687.01 131.78C688.58 133.48 689.36 135.67 689.36 138.35C689.36 141.2 688.47 144.09 686.69 147C684.91 149.92 682.16 152.92 678.44 156.02C674.47 159.37 670.53 161.77 666.6 163.21C662.67 164.66 658.33 165.38 653.58 165.38C648.83 165.38 645.39 164.47 642.76 162.65C640.14 160.83 638.82 158.35 638.82 155.21C638.82 152.98 639.69 150.72 641.42 148.42C643.16 146.13 645.31 144.26 647.9 142.81C650.48 141.36 653.01 140.64 655.49 140.64C657.35 140.64 658.28 141.05 658.28 141.88C658.28 142.29 658.01 142.97 657.47 143.92C655.86 146.81 655.05 149.48 655.05 151.92C655.05 153.66 655.69 155.31 656.97 156.88L657.03 156.91Z" stroke="white" stroke-width="22"/>
<path d="M718.25 140.91L718.13 144.32C717.55 152.54 716.81 159.24 715.9 164.41C714.99 169.58 713.96 172.74 712.8 173.89C711.23 175.58 708.77 176.43 705.43 176.43C701.84 176.43 699.26 175.73 697.69 174.32C697.07 173.62 696.66 172.98 696.45 172.4C696.24 171.82 696.14 170.77 696.14 169.24V167.32C696.26 155.71 697.38 144.03 699.49 132.3C701.6 120.56 704.39 109.87 707.86 100.22C711.33 90.5701 715.13 82.9301 719.27 77.2801C723.4 71.6401 727.51 68.8201 731.6 68.8201C733.46 68.8201 734.85 69.4501 735.78 70.7101C736.71 71.9701 737.17 73.7801 737.17 76.1301C737.17 79.6401 736.8 83.3701 736.05 87.3201C735.31 91.2701 734.41 94.4801 733.35 96.9601C732.3 99.4401 731.23 100.68 730.16 100.68C729.17 100.68 728.67 98.9401 728.67 95.4701V93.5501C728.67 90.0801 728.6 87.8101 728.46 86.7301C728.32 85.6601 728 84.9301 727.51 84.5601C727.06 85.4701 726.73 86.5201 726.53 87.7201C725.53 92.6801 724.71 97.1601 724.09 101.17C723.46 105.18 722.52 111.69 721.27 120.69C721.23 121.19 721.17 121.74 721.08 122.36C721 122.98 720.93 123.54 720.89 124.03H721.76C722.26 123.99 722.71 123.96 723.13 123.94C723.55 123.92 724.19 123.91 725.06 123.91C726.63 123.7 728.04 123.6 729.29 123.6C734.22 123.6 736.68 124.88 736.68 127.44C736.68 128.76 736.21 130.36 735.28 132.24C734.35 134.12 733.24 135.68 731.96 136.92C730.68 138.16 729.22 139.06 727.58 139.62C725.95 140.18 723.6 140.56 720.54 140.77C719.88 140.77 719.41 140.78 719.14 140.8C718.87 140.82 718.57 140.85 718.24 140.89L718.25 140.91Z" stroke="white" stroke-width="22"/>
<path d="M784.54 136.21V136.46L784.29 136.21C780.45 140.71 776.92 144.4 773.72 147.27C770.52 150.14 767.56 152.3 764.86 153.75C762.15 155.2 759.66 155.92 757.39 155.92C752.76 155.92 748.94 154.37 745.92 151.27C742.9 148.17 741.39 144.25 741.39 139.49C741.39 136.56 742.13 133.08 743.62 129.08C745.11 125.07 747.15 121.15 749.76 117.3C754.1 111.02 759.55 105.69 766.12 101.31C772.9 96.81 779.43 94.55 785.71 94.55C791 94.55 795.35 95.63 798.76 97.8C802.17 99.97 803.87 102.71 803.87 106.01C803.87 108.45 803.02 111.03 801.33 113.76C803.56 113.76 804.97 114 805.54 114.47C806.12 114.95 806.41 116.05 806.41 117.79C806.41 117.62 806.31 118.47 806.1 120.33C805.85 124.42 805.73 128.24 805.73 131.8C805.73 133.66 805.75 135.06 805.79 136.01C805.83 136.96 805.91 138.06 806.04 139.3C806.16 140.54 806.29 141.53 806.41 142.27C806.74 144.21 807.28 146.14 808.02 148.04C805.54 150.48 803.16 152.27 800.89 153.4C798.62 154.54 796.3 155.11 793.95 155.11C787.59 155.11 784.4 149.78 784.4 139.12C784.4 137.88 784.44 136.91 784.52 136.21H784.54ZM788.25 122.01L787.07 122.38C784.1 123.21 781.95 123.62 780.62 123.62C779.01 123.62 778.2 123.21 778.2 122.38C778.2 122.09 778.53 121.33 779.19 120.09C781.5 116.58 782.66 113.27 782.66 110.17C782.66 108.39 782.35 106.77 781.73 105.3C781.11 103.83 780.43 103.1 779.68 103.1C779.02 103.1 778.01 103.8 776.64 105.21C772.8 109.38 769.75 113.66 767.5 118.04C765.25 122.42 764.12 126.33 764.12 129.75C764.12 132.02 764.58 133.9 765.51 135.39C766.44 136.88 767.61 137.62 769.01 137.62C770.21 137.62 772.45 136.34 775.74 133.78C779.03 131.22 782.71 127.83 786.8 123.61L788.47 122.25L788.22 122L788.25 122.01Z" stroke="white" stroke-width="22"/>
<path d="M845.59 107.88C847.24 103.21 848.63 98.32 849.74 93.22C850.86 88.12 851.41 84.2 851.41 81.47C851.41 80.73 851.2 80.35 850.79 80.35C850.13 80.35 848.97 81.83 847.32 84.78C845.67 87.74 844.28 90.74 843.17 93.8C840.77 100.54 838.92 106.13 837.62 110.57C836.32 115.01 835.42 118.74 834.92 121.76C834.42 124.78 834.18 127.86 834.18 131C834.18 133.69 834.48 135.65 835.08 136.89C835.68 138.13 836.64 138.75 837.96 138.75C840.23 138.75 842.77 137.75 845.58 135.74C848.39 133.74 850.93 131.1 853.2 127.84C854.98 125.4 856.36 124.18 857.35 124.18C858.63 124.18 859.27 125.19 859.27 127.22C859.27 131.64 857.89 135.96 855.12 140.18C852.35 144.4 848.79 147.82 844.43 150.44C840.07 153.06 835.62 154.38 831.07 154.38C825.49 154.38 820.95 152.62 817.43 149.11C813.92 145.6 812.16 141.01 812.16 135.35C812.16 130.72 813.15 125.3 815.14 119.08C817.12 112.86 819.78 106.6 823.1 100.3C826.43 94 830.07 88.29 834.04 83.16C838.01 78.04 841.93 74.11 845.82 71.38C848.22 69.6 850.88 68.71 853.82 68.71C856.05 68.71 858.08 69.4 859.9 70.79C861.72 72.17 863.12 74.11 864.11 76.59C865.1 79.07 865.6 81.82 865.6 84.83C865.6 91.32 864.33 97.66 861.79 103.86C859.25 110.06 855.7 115.43 851.16 119.98C849.01 122.17 846.94 123.89 844.96 125.13C842.98 126.37 841.24 126.99 839.75 126.99C838.26 126.99 837.58 126.43 837.58 125.32C837.58 124.7 838.12 123.52 839.19 121.79C840.64 119.52 842.33 116.09 844.27 111.5C844.44 111.05 844.62 110.56 844.83 110.04C845.04 109.52 845.28 108.81 845.57 107.9L845.59 107.88Z" stroke="white" stroke-width="22"/>
<path d="M882.04 94.3001L882.29 93.5601C885.02 85.8701 887.38 80.4601 889.37 77.3201C890.32 75.8301 891.65 74.5101 893.34 73.3501C896.53 71.3301 899.53 70.3101 902.34 70.3101C903.99 70.3101 905.26 70.6801 906.13 71.4301C907 72.1801 907.43 73.2501 907.43 74.6601C907.43 75.6101 906.81 77.5501 905.56 80.4801C903.44 85.3601 901.86 89.9201 900.82 94.1801C901.52 94.2601 902.21 94.3901 902.87 94.5501C905.35 94.9201 906.99 95.3501 907.77 95.8201C908.55 96.2901 908.95 97.1501 908.95 98.3901C908.95 100.58 908.39 102.61 907.28 104.47C906.16 106.33 904.7 107.69 902.88 108.56C901.52 109.18 899.31 109.59 896.25 109.8C895.72 111.41 895.13 113.62 894.47 116.44C894.1 118.92 893.69 122.35 893.24 126.73C892.99 128.34 892.87 129.85 892.87 131.25C892.87 137.77 896.03 141.04 902.36 141.04H902.92C903.66 141.04 904.04 141.16 904.04 141.41C904.04 142.07 903.34 143.19 901.93 144.76C900.52 146.33 898.97 147.72 897.28 148.91C895.46 150.15 893.48 151.14 891.32 151.89C889.17 152.63 887.22 153.01 885.48 153.01C881.13 153.01 877.6 151.54 874.89 148.61C872.18 145.68 870.82 141.79 870.82 136.96C870.82 134.89 871.18 132.19 871.9 128.84C872.62 125.49 873.75 121.01 875.28 115.39C875.53 114.4 875.8 113.36 876.09 112.26C876.38 111.17 876.54 110.51 876.59 110.31C874.94 110.27 873.76 109.92 873.06 109.26C872.36 108.6 872.01 107.52 872.01 106.04C872.01 103.44 873.01 100.98 875.02 98.6601C877.02 96.3501 879.37 94.9001 882.06 94.3201L882.04 94.3001Z" stroke="white" stroke-width="22"/>
<path d="M96.7 87.87L123.42 58.97C130.78 51.85 136.49 46.57 140.52 43.14C144.55 39.71 149.55 36.06 155.52 32.19C165.96 25.15 175.47 21.63 184.06 21.63C190.55 21.63 193.79 24.05 193.79 28.87C193.79 32.56 192.91 36.24 191.16 39.93C189.4 43.62 187.03 46.96 184.05 49.94C178.69 55.29 168.42 62.58 153.23 71.8C141.82 78.82 132.86 85.01 126.36 90.37C127.42 96.87 128.58 102.73 129.86 107.95C131.14 113.17 132.56 117.78 134.14 121.78C135.72 125.78 137.96 130.59 140.85 136.2C144.09 142.52 147.6 148.32 151.38 153.59C160.86 166.41 170.3 174.84 179.7 178.88C182.6 180.29 184.05 181.56 184.05 182.7C184.05 184.9 182.51 187.31 179.43 189.94C175.38 194.15 170.48 197.4 164.72 199.69C158.96 201.97 153.13 203.12 147.24 203.12C136.51 203.12 126.88 200.3 118.35 194.65C109.82 189.01 103.29 181.08 98.77 170.88C93.55 159.36 90.16 145.39 88.61 128.97C88.26 126.16 88.09 123.04 88.09 119.62H87.56C83.96 124.8 81.36 128.99 79.78 132.2C78.2 135.41 75.74 141.18 72.4 149.52C68.44 160.15 64.8 168.33 61.46 174.08C58.12 179.83 54.3 184.51 49.99 188.11C45.95 191.62 41.46 194.56 36.54 196.93C31.62 199.3 27.54 200.49 24.28 200.49C21.91 200.49 19.93 199.59 18.35 197.79C16.77 195.99 15.98 193.82 15.98 191.27C15.98 189.69 16.07 188.46 16.24 187.58C20.37 170.99 24.87 154.15 29.74 137.07C34.61 119.99 39.59 103.88 44.69 88.74C49.78 73.59 54.48 60.75 58.79 50.22C63.1 39.68 66.44 32.97 68.82 30.07C71.64 26.82 75.81 24.17 81.35 22.1C86.89 20.04 92.65 19.01 98.63 19.01C104.08 19.01 107.95 19.74 110.24 21.19C112.53 22.64 113.67 25.04 113.67 28.38C113.67 32.96 109.02 48.08 99.71 73.77C99.09 75.62 98.06 78.5 96.62 82.41C95.17 86.32 94.14 89.21 93.52 91.05L94.05 91.71L96.68 87.88L96.7 87.87Z" fill="url(#paint0_radial_251_264)"/>
<path d="M192.17 154.86C190.31 154.74 188.62 153.89 187.09 152.32C185.56 150.67 184.48 148.88 183.84 146.96C183.2 145.04 182.88 142.55 182.88 139.49C182.88 132.67 184.15 124.98 186.69 116.4C189.23 107.82 192.11 101.62 195.34 97.77C196.62 96.16 198.4 95.35 200.67 95.35C203.07 95.35 205 96.45 206.46 98.64C207.93 100.83 208.66 103.7 208.66 107.26C208.66 112.51 207.9 118.65 206.39 125.7C204.88 132.75 202.76 140.07 200.02 147.67C198.95 150.73 197.63 152.8 196.06 153.87C194.99 154.53 193.73 154.86 192.28 154.86H192.16H192.17ZM199.62 92.57C195.74 92.45 193.79 90.11 193.79 85.57C193.79 83.3 194.36 80.66 195.49 77.67C196.63 74.67 197.92 72.45 199.36 71.01C200.1 70.23 200.86 69.67 201.62 69.34C202.38 69.01 203.37 68.84 204.56 68.84C206.63 68.84 208.14 69.35 209.12 70.36C210.09 71.37 210.58 73.06 210.58 75.41C210.58 78.35 210.07 81.12 209.06 83.75C208.05 86.37 206.69 88.5 205 90.13C203.31 91.76 201.57 92.58 199.79 92.58H199.6L199.62 92.57Z" fill="url(#paint1_radial_251_264)"/>
<path d="M233.28 156.91C235.72 156.79 237.94 155.6 239.94 153.35C241.94 151.1 242.95 148.65 242.95 146C242.95 144.18 242.35 142.74 241.15 141.66C239.87 140.38 237 139.12 232.53 137.88C225.96 135.98 221.68 133.85 219.7 131.5C217.84 129.6 216.91 127.33 216.91 124.68C216.91 119.93 218.63 115.18 222.09 110.42C225.54 105.67 229.95 101.77 235.32 98.7401C240.69 95.7001 246.11 94.1801 251.56 94.1801C254.2 94.1801 256.68 94.8001 259 96.0401C261.31 97.2801 263.15 98.9201 264.52 100.97C265.88 103.02 266.57 105.24 266.57 107.63C266.57 110.02 265.83 112.42 264.34 114.94C262.85 117.46 260.98 119.56 258.73 121.23C256.48 122.9 254.34 123.74 252.31 123.74C251.15 123.74 250.15 123.49 249.3 123C248.45 122.5 248.03 121.97 248.03 121.39C248.03 120.81 248.2 119.96 248.53 118.85C249.44 115.3 249.89 112.2 249.89 109.55C249.89 106.9 249.1 104.49 247.53 102.17C245.5 103.57 244.18 104.69 243.56 105.51C241.99 107.33 240.77 109.39 239.9 111.7C238.95 114.05 238.47 116.28 238.47 118.39C238.47 119.88 238.81 121.06 239.5 121.95C240.18 122.84 241.3 123.59 242.85 124.21C244.4 124.83 246.74 125.51 249.88 126.26C255.13 127.54 258.82 128.78 260.97 129.98C261.47 130.27 262.23 130.87 263.26 131.78C264.83 133.48 265.61 135.67 265.61 138.35C265.61 141.2 264.72 144.09 262.94 147C261.16 149.92 258.42 152.92 254.7 156.02C250.73 159.37 246.79 161.77 242.86 163.21C238.93 164.66 234.59 165.38 229.84 165.38C225.09 165.38 221.65 164.47 219.02 162.65C216.4 160.83 215.08 158.35 215.08 155.21C215.08 152.98 215.95 150.72 217.68 148.42C219.42 146.13 221.57 144.26 224.16 142.81C226.74 141.36 229.27 140.64 231.75 140.64C233.61 140.64 234.54 141.05 234.54 141.88C234.54 142.29 234.27 142.97 233.73 143.92C232.12 146.81 231.31 149.48 231.31 151.92C231.31 153.66 231.95 155.31 233.23 156.88L233.28 156.91Z" fill="url(#paint2_radial_251_264)"/>
<path d="M290.19 156.91C292.63 156.79 294.85 155.6 296.85 153.35C298.85 151.1 299.86 148.65 299.86 146C299.86 144.18 299.26 142.74 298.06 141.66C296.78 140.38 293.91 139.12 289.44 137.88C282.87 135.98 278.59 133.85 276.61 131.5C274.75 129.6 273.82 127.33 273.82 124.68C273.82 119.93 275.54 115.18 279 110.42C282.45 105.67 286.86 101.77 292.23 98.7401C297.6 95.7001 303.02 94.1801 308.47 94.1801C311.11 94.1801 313.59 94.8001 315.91 96.0401C318.22 97.2801 320.06 98.9201 321.43 100.97C322.79 103.02 323.48 105.24 323.48 107.63C323.48 110.02 322.74 112.42 321.25 114.94C319.76 117.46 317.89 119.56 315.64 121.23C313.39 122.9 311.25 123.74 309.22 123.74C308.06 123.74 307.06 123.49 306.21 123C305.36 122.5 304.94 121.97 304.94 121.39C304.94 120.81 305.11 119.96 305.44 118.85C306.35 115.3 306.8 112.2 306.8 109.55C306.8 106.9 306.01 104.49 304.44 102.17C302.41 103.57 301.09 104.69 300.47 105.51C298.9 107.33 297.68 109.39 296.81 111.7C295.86 114.05 295.38 116.28 295.38 118.39C295.38 119.88 295.72 121.06 296.41 121.95C297.09 122.84 298.21 123.59 299.76 124.21C301.31 124.83 303.65 125.51 306.79 126.26C312.04 127.54 315.73 128.78 317.88 129.98C318.38 130.27 319.14 130.87 320.17 131.78C321.74 133.48 322.52 135.67 322.52 138.35C322.52 141.2 321.63 144.09 319.85 147C318.07 149.92 315.33 152.92 311.61 156.02C307.64 159.37 303.7 161.77 299.77 163.21C295.84 164.66 291.5 165.38 286.75 165.38C282 165.38 278.56 164.47 275.93 162.65C273.31 160.83 271.99 158.35 271.99 155.21C271.99 152.98 272.86 150.72 274.59 148.42C276.33 146.13 278.48 144.26 281.07 142.81C283.65 141.36 286.18 140.64 288.66 140.64C290.52 140.64 291.45 141.05 291.45 141.88C291.45 142.29 291.18 142.97 290.64 143.92C289.03 146.81 288.22 149.48 288.22 151.92C288.22 153.66 288.86 155.31 290.14 156.88L290.19 156.91Z" fill="url(#paint3_radial_251_264)"/>
<path d="M429.97 131.81L413.05 149.17C410.86 151.36 409.09 152.86 407.75 153.66C406.41 154.47 404.93 154.87 403.32 154.87C400.8 154.87 398.68 153.93 396.97 152.05C395.25 150.17 394.4 147.87 394.4 145.14C394.4 143.45 394.66 141.6 395.17 139.59C395.69 137.59 396.71 134.6 398.24 130.63C398.53 129.8 398.81 129.09 399.08 128.49C399.35 127.89 399.57 127.39 399.73 126.97L399.48 126.72C395.47 130.94 391.55 135.38 387.7 140.05C384.48 143.89 381.91 146.77 380.01 148.67C378.11 150.57 376.39 152 374.86 152.95C373.33 153.9 371.97 154.38 370.77 154.38C368.08 154.38 365.96 153.33 364.39 151.22C362.82 149.11 362.03 146.24 362.03 142.6C362.03 138.01 364.01 130.6 367.98 120.35C371.53 111.26 374.28 105.16 376.22 102.06C379.07 97.76 382.33 95.61 386.01 95.61C388.24 95.61 390.09 96.14 391.55 97.19C393.01 98.24 393.75 99.62 393.75 101.31C393.75 104.41 392.58 109.14 390.23 115.5C389.32 117.85 388.4 120.52 387.45 123.49L387.7 123.74C389.23 122.05 391.68 119.14 395.07 115C400.89 107.81 405.29 102.92 408.27 100.32C412.11 96.77 415.63 94.99 418.81 94.99C420.22 94.99 421.56 95.47 422.84 96.42C424.12 97.37 425.14 98.64 425.91 100.23C426.68 101.82 427.06 103.48 427.06 105.22C427.06 106.96 425.78 111.55 423.23 118.86C422.69 120.39 422.28 121.59 422 122.46C421.71 123.33 421.44 124.07 421.2 124.69L421.51 124.94C422.09 124.36 422.6 123.85 423.06 123.39C423.51 122.93 424.02 122.45 424.58 121.93C425.14 121.41 425.66 120.93 426.16 120.47C427.27 119.39 430.08 116.56 434.58 111.97C437.55 108.66 439.88 106.4 441.58 105.18C443.27 103.96 444.91 103.35 446.48 103.35C449.04 103.35 450.99 104.23 452.34 105.98C453.68 107.74 454.35 110.33 454.35 113.76C454.35 115.87 454.02 119.19 453.36 123.74C452.78 128.86 452.38 132.88 452.15 135.8C451.92 138.71 451.81 140.75 451.81 141.91C451.81 142.78 451.86 143.88 451.97 145.23C452.07 146.57 452.25 148.01 452.5 149.54C452.75 151.07 453.08 152.76 453.49 154.62C453.99 156.89 454.32 158.67 454.48 159.95C454.15 161.44 453.06 162.7 451.23 163.73C449.39 164.76 447.4 165.28 445.25 165.28C441.86 165.28 438.68 163.75 435.7 160.69C434.38 159.28 433.35 157.87 432.63 156.44C431.91 155.01 431.39 153.32 431.08 151.36C430.77 149.4 430.62 146.8 430.62 143.58C430.62 141.47 430.87 137.11 431.36 130.5L431.11 130.25L429.99 131.8L429.97 131.81Z" fill="url(#paint4_radial_251_264)"/>
<path d="M499.93 111.72L500.74 109.05C501.82 104.92 503.45 101.74 505.64 99.5C507.05 98.1 508.66 96.94 510.48 96.03C512.3 95.12 513.95 94.67 515.44 94.67C518.17 94.67 519.53 95.83 519.53 98.14C519.53 99.3 519.16 101.1 518.41 103.53C517.66 105.96 516.68 108.73 515.46 111.81C514.24 114.89 512.81 118.27 511.18 121.94C509.54 125.62 507.74 129.4 505.75 133.28C502.15 140.64 498.51 146.86 494.83 151.94C492.18 155.58 489.49 158.8 486.76 161.61C484.03 164.42 481.16 166.94 478.17 169.17C475.17 171.4 472.34 173.09 469.67 174.22C467 175.36 464.55 175.92 462.32 175.92C460.46 175.92 459.53 175.11 459.53 173.5C459.53 172.22 459.82 170.69 460.4 168.91C460.98 167.13 461.79 165.46 462.82 163.89C463.94 162.4 465.34 161.08 467.04 159.92C469.19 158.43 472.36 156.74 476.54 154.84C474.05 150.67 472.17 147.36 470.89 144.92C469.61 142.48 468.2 139.44 466.67 135.81C463.27 127.75 461.58 120.44 461.58 113.87C461.58 108.87 462.2 104.8 463.44 101.66C464.56 98.97 466.6 97.07 469.58 95.96C471.98 95.01 474.13 94.53 476.03 94.53C478.72 94.53 480.52 95.55 481.45 97.6C482.38 99.64 483.2 104.43 483.9 111.95C484.65 120.01 485.86 127.96 487.52 135.82C487.81 137.02 488.14 138.67 488.52 140.78H488.77C489.89 138.34 491.11 135.39 492.43 131.92C492.84 130.93 494.29 127.27 496.77 120.95C498.18 117.15 499.23 114.07 499.93 111.71V111.72Z" fill="url(#paint5_radial_251_264)"/>
<path d="M588.35 78.68L584.57 71.86C585.52 71.12 586.41 70.6 587.23 70.31C590.41 69.24 594.25 68.7 598.75 68.7C603.25 68.7 606.8 70 609.28 72.61C611.43 74.88 613.18 78.07 614.55 82.16C615.91 86.25 617.17 92.0799 618.33 99.6399C618.95 103.48 619.49 106.38 619.94 108.32C621.39 113.73 622.35 117.19 622.83 118.7C623.31 120.21 624.16 122.62 625.41 125.92C625.82 126.87 626.37 128.2 627.05 129.92C627.73 131.64 628.38 133.24 629 134.72C630.36 137.94 632.43 142.2 635.2 147.49C631.73 149.93 628.8 151.69 626.4 152.76C624 153.83 621.81 154.37 619.83 154.37C617.39 154.37 615.36 153.9 613.73 152.94C612.1 151.99 610.62 150.48 609.3 148.41C607.73 145.6 606.16 141.78 604.59 136.94C604.42 136.48 604.23 135.91 604 135.2C603.77 134.5 603.51 133.73 603.22 132.91C598.37 134.94 594.59 135.95 591.9 135.95C590.36 135.95 589.04 135.91 587.92 135.83C586.96 135.75 582.55 135.62 574.67 135.46L574.1 136.67C571.82 141.52 569.69 145.21 567.7 147.73C565.72 150.25 563.43 152.03 560.85 153.06C558.27 154.09 555.03 154.61 551.15 154.61C548.92 154.61 547.33 154.36 546.38 153.87C545.43 153.37 544.95 152.57 544.95 151.45C544.95 150.09 547.22 146.33 551.77 140.17C553.38 138.02 554.58 136.33 555.36 135.09C551.02 134.26 548.85 132.73 548.85 130.5C548.85 128.68 550.59 125.98 554.06 122.38C555.71 120.64 557.25 119.54 558.68 119.06C560.11 118.59 562.6 118.33 566.15 118.29C569.46 112.21 571.56 108.34 572.47 106.67C573.38 105 574.56 102.89 576 100.35C577.45 97.8099 579.09 94.9199 580.93 91.6699C582.77 88.4299 585.24 84.1 588.34 78.68H588.35ZM593.69 95.0199L582.37 119.1H599.12L593.93 95.0199H593.68H593.69Z" fill="url(#paint6_radial_251_264)"/>
<path d="M657.03 156.91C659.47 156.79 661.69 155.6 663.69 153.35C665.69 151.1 666.7 148.65 666.7 146C666.7 144.18 666.1 142.74 664.9 141.66C663.62 140.38 660.75 139.12 656.28 137.88C649.71 135.98 645.43 133.85 643.45 131.5C641.59 129.6 640.66 127.33 640.66 124.68C640.66 119.93 642.38 115.18 645.84 110.42C649.29 105.67 653.7 101.77 659.07 98.7401C664.44 95.7001 669.86 94.1801 675.31 94.1801C677.95 94.1801 680.43 94.8001 682.75 96.0401C685.06 97.2801 686.9 98.9201 688.27 100.97C689.63 103.02 690.32 105.24 690.32 107.63C690.32 110.02 689.58 112.42 688.09 114.94C686.6 117.46 684.73 119.56 682.48 121.23C680.23 122.9 678.09 123.74 676.06 123.74C674.9 123.74 673.9 123.49 673.05 123C672.2 122.51 671.78 121.97 671.78 121.39C671.78 120.81 671.95 119.96 672.28 118.85C673.19 115.3 673.64 112.2 673.64 109.55C673.64 106.9 672.85 104.49 671.28 102.17C669.26 103.57 667.93 104.69 667.31 105.51C665.74 107.33 664.52 109.39 663.65 111.7C662.7 114.05 662.22 116.28 662.22 118.39C662.22 119.88 662.56 121.06 663.25 121.95C663.93 122.84 665.05 123.59 666.6 124.21C668.15 124.83 670.49 125.51 673.63 126.26C678.88 127.54 682.58 128.78 684.72 129.98C685.22 130.27 685.98 130.87 687.01 131.78C688.58 133.48 689.36 135.67 689.36 138.35C689.36 141.2 688.47 144.09 686.69 147C684.91 149.92 682.16 152.92 678.44 156.02C674.47 159.37 670.53 161.77 666.6 163.21C662.67 164.66 658.33 165.38 653.58 165.38C648.83 165.38 645.39 164.47 642.76 162.65C640.14 160.83 638.82 158.35 638.82 155.21C638.82 152.98 639.69 150.72 641.42 148.42C643.16 146.13 645.31 144.26 647.9 142.81C650.48 141.36 653.01 140.64 655.49 140.64C657.35 140.64 658.28 141.05 658.28 141.88C658.28 142.29 658.01 142.97 657.47 143.92C655.86 146.81 655.05 149.48 655.05 151.92C655.05 153.66 655.69 155.31 656.97 156.88L657.03 156.91Z" fill="url(#paint7_radial_251_264)"/>
<path d="M718.25 140.91L718.13 144.32C717.55 152.54 716.81 159.24 715.9 164.41C714.99 169.58 713.96 172.74 712.8 173.89C711.23 175.58 708.77 176.43 705.43 176.43C701.84 176.43 699.26 175.73 697.69 174.32C697.07 173.62 696.66 172.98 696.45 172.4C696.24 171.82 696.14 170.77 696.14 169.24V167.32C696.26 155.71 697.38 144.03 699.49 132.3C701.6 120.56 704.39 109.87 707.86 100.22C711.33 90.5701 715.13 82.9301 719.27 77.2801C723.4 71.6401 727.51 68.8201 731.6 68.8201C733.46 68.8201 734.85 69.4501 735.78 70.7101C736.71 71.9701 737.17 73.7801 737.17 76.1301C737.17 79.6401 736.8 83.3701 736.05 87.3201C735.31 91.2701 734.41 94.4801 733.35 96.9601C732.3 99.4401 731.23 100.68 730.16 100.68C729.17 100.68 728.67 98.9401 728.67 95.4701V93.5501C728.67 90.0801 728.6 87.8101 728.46 86.7301C728.32 85.6601 728 84.9301 727.51 84.5601C727.06 85.4701 726.73 86.5201 726.53 87.7201C725.53 92.6801 724.71 97.1601 724.09 101.17C723.46 105.18 722.52 111.69 721.27 120.69C721.23 121.19 721.17 121.74 721.08 122.36C721 122.98 720.93 123.54 720.89 124.03H721.76C722.26 123.99 722.71 123.96 723.13 123.94C723.55 123.92 724.19 123.91 725.06 123.91C726.63 123.7 728.04 123.6 729.29 123.6C734.22 123.6 736.68 124.88 736.68 127.44C736.68 128.76 736.21 130.36 735.28 132.24C734.35 134.12 733.24 135.68 731.96 136.92C730.68 138.16 729.22 139.06 727.58 139.62C725.95 140.18 723.6 140.56 720.54 140.77C719.88 140.77 719.41 140.78 719.14 140.8C718.87 140.82 718.57 140.85 718.24 140.89L718.25 140.91Z" fill="url(#paint8_radial_251_264)"/>
<path d="M784.54 136.21V136.46L784.29 136.21C780.45 140.71 776.92 144.4 773.72 147.27C770.52 150.14 767.56 152.3 764.86 153.75C762.15 155.2 759.66 155.92 757.39 155.92C752.76 155.92 748.94 154.37 745.92 151.27C742.9 148.17 741.39 144.25 741.39 139.49C741.39 136.56 742.13 133.08 743.62 129.08C745.11 125.07 747.15 121.15 749.76 117.3C754.1 111.02 759.55 105.69 766.12 101.31C772.9 96.81 779.43 94.55 785.71 94.55C791 94.55 795.35 95.63 798.76 97.8C802.17 99.97 803.87 102.71 803.87 106.01C803.87 108.45 803.02 111.03 801.33 113.76C803.56 113.76 804.97 114 805.54 114.47C806.12 114.95 806.41 116.05 806.41 117.79C806.41 117.62 806.31 118.47 806.1 120.33C805.85 124.42 805.73 128.24 805.73 131.8C805.73 133.66 805.75 135.06 805.79 136.01C805.83 136.96 805.91 138.06 806.04 139.3C806.16 140.54 806.29 141.53 806.41 142.27C806.74 144.21 807.28 146.14 808.02 148.04C805.54 150.48 803.16 152.27 800.89 153.4C798.62 154.54 796.3 155.11 793.95 155.11C787.59 155.11 784.4 149.78 784.4 139.12C784.4 137.88 784.44 136.91 784.52 136.21H784.54ZM788.25 122.01L787.07 122.38C784.1 123.21 781.95 123.62 780.62 123.62C779.01 123.62 778.2 123.21 778.2 122.38C778.2 122.09 778.53 121.33 779.19 120.09C781.5 116.58 782.66 113.27 782.66 110.17C782.66 108.39 782.35 106.77 781.73 105.3C781.11 103.83 780.43 103.1 779.68 103.1C779.02 103.1 778.01 103.8 776.64 105.21C772.8 109.38 769.75 113.66 767.5 118.04C765.25 122.42 764.12 126.33 764.12 129.75C764.12 132.02 764.58 133.9 765.51 135.39C766.44 136.88 767.61 137.62 769.01 137.62C770.21 137.62 772.45 136.34 775.74 133.78C779.03 131.22 782.71 127.83 786.8 123.61L788.47 122.25L788.22 122L788.25 122.01Z" fill="url(#paint9_radial_251_264)"/>
<path d="M845.59 107.88C847.24 103.21 848.63 98.32 849.74 93.22C850.86 88.12 851.41 84.2 851.41 81.47C851.41 80.73 851.2 80.35 850.79 80.35C850.13 80.35 848.97 81.83 847.32 84.78C845.67 87.74 844.28 90.74 843.17 93.8C840.77 100.54 838.92 106.13 837.62 110.57C836.32 115.01 835.42 118.74 834.92 121.76C834.42 124.78 834.18 127.86 834.18 131C834.18 133.69 834.48 135.65 835.08 136.89C835.68 138.13 836.64 138.75 837.96 138.75C840.23 138.75 842.77 137.75 845.58 135.74C848.39 133.74 850.93 131.1 853.2 127.84C854.98 125.4 856.36 124.18 857.35 124.18C858.63 124.18 859.27 125.19 859.27 127.22C859.27 131.64 857.89 135.96 855.12 140.18C852.35 144.4 848.79 147.82 844.43 150.44C840.07 153.06 835.62 154.38 831.07 154.38C825.49 154.38 820.95 152.62 817.43 149.11C813.92 145.6 812.16 141.01 812.16 135.35C812.16 130.72 813.15 125.3 815.14 119.08C817.12 112.86 819.78 106.6 823.1 100.3C826.43 94 830.07 88.29 834.04 83.16C838.01 78.04 841.93 74.11 845.82 71.38C848.22 69.6 850.88 68.71 853.82 68.71C856.05 68.71 858.08 69.4 859.9 70.79C861.72 72.17 863.12 74.11 864.11 76.59C865.1 79.07 865.6 81.82 865.6 84.83C865.6 91.32 864.33 97.66 861.79 103.86C859.25 110.06 855.7 115.43 851.16 119.98C849.01 122.17 846.94 123.89 844.96 125.13C842.98 126.37 841.24 126.99 839.75 126.99C838.26 126.99 837.58 126.43 837.58 125.32C837.58 124.7 838.12 123.52 839.19 121.79C840.64 119.52 842.33 116.09 844.27 111.5C844.44 111.05 844.62 110.56 844.83 110.04C845.04 109.52 845.28 108.81 845.57 107.9L845.59 107.88Z" fill="url(#paint10_radial_251_264)"/>
<path d="M882.04 94.3001L882.29 93.5601C885.02 85.8701 887.38 80.4601 889.37 77.3201C890.32 75.8301 891.65 74.5101 893.34 73.3501C896.53 71.3301 899.53 70.3101 902.34 70.3101C903.99 70.3101 905.26 70.6801 906.13 71.4301C907 72.1801 907.43 73.2501 907.43 74.6601C907.43 75.6101 906.81 77.5501 905.56 80.4801C903.44 85.3601 901.86 89.9201 900.82 94.1801C901.52 94.2601 902.21 94.3901 902.87 94.5501C905.35 94.9201 906.99 95.3501 907.77 95.8201C908.55 96.2901 908.95 97.1501 908.95 98.3901C908.95 100.58 908.39 102.61 907.28 104.47C906.16 106.33 904.7 107.69 902.88 108.56C901.52 109.18 899.31 109.59 896.25 109.8C895.72 111.41 895.13 113.62 894.47 116.44C894.1 118.92 893.69 122.35 893.24 126.73C892.99 128.34 892.87 129.85 892.87 131.25C892.87 137.77 896.03 141.04 902.36 141.04H902.92C903.66 141.04 904.04 141.16 904.04 141.41C904.04 142.07 903.34 143.19 901.93 144.76C900.52 146.33 898.97 147.72 897.28 148.91C895.46 150.15 893.48 151.14 891.32 151.89C889.17 152.63 887.22 153.01 885.48 153.01C881.13 153.01 877.6 151.54 874.89 148.61C872.18 145.68 870.82 141.79 870.82 136.96C870.82 134.89 871.18 132.19 871.9 128.84C872.62 125.49 873.75 121.01 875.28 115.39C875.53 114.4 875.8 113.36 876.09 112.26C876.38 111.17 876.54 110.51 876.59 110.31C874.94 110.27 873.76 109.92 873.06 109.26C872.36 108.6 872.01 107.52 872.01 106.04C872.01 103.44 873.01 100.98 875.02 98.6601C877.02 96.3501 879.37 94.9001 882.06 94.3201L882.04 94.3001Z" fill="url(#paint11_radial_251_264)"/>
<path d="M96.7 87.87L123.42 58.97C130.78 51.85 136.49 46.57 140.52 43.14C144.55 39.71 149.55 36.06 155.52 32.19C165.96 25.15 175.47 21.63 184.06 21.63C190.55 21.63 193.79 24.05 193.79 28.87C193.79 32.56 192.91 36.24 191.16 39.93C189.4 43.62 187.03 46.96 184.05 49.94C178.69 55.29 168.42 62.58 153.23 71.8C141.82 78.82 132.86 85.01 126.36 90.37C127.42 96.87 128.58 102.73 129.86 107.95C131.14 113.17 132.56 117.78 134.14 121.78C135.72 125.78 137.96 130.59 140.85 136.2C144.09 142.52 147.6 148.32 151.38 153.59C160.86 166.41 170.3 174.84 179.7 178.88C182.6 180.29 184.05 181.56 184.05 182.7C184.05 184.9 182.51 187.31 179.43 189.94C175.38 194.15 170.48 197.4 164.72 199.69C158.96 201.97 153.13 203.12 147.24 203.12C136.51 203.12 126.88 200.3 118.35 194.65C109.82 189.01 103.29 181.08 98.77 170.88C93.55 159.36 90.16 145.39 88.61 128.97C88.26 126.16 88.09 123.04 88.09 119.62H87.56C83.96 124.8 81.36 128.99 79.78 132.2C78.2 135.41 75.74 141.18 72.4 149.52C68.44 160.15 64.8 168.33 61.46 174.08C58.12 179.83 54.3 184.51 49.99 188.11C45.95 191.62 41.46 194.56 36.54 196.93C31.62 199.3 27.54 200.49 24.28 200.49C21.91 200.49 19.93 199.59 18.35 197.79C16.77 195.99 15.98 193.82 15.98 191.27C15.98 189.69 16.07 188.46 16.24 187.58C20.37 170.99 24.87 154.15 29.74 137.07C34.61 119.99 39.59 103.88 44.69 88.74C49.78 73.59 54.48 60.75 58.79 50.22C63.1 39.68 66.44 32.97 68.82 30.07C71.64 26.82 75.81 24.17 81.35 22.1C86.89 20.04 92.65 19.01 98.63 19.01C104.08 19.01 107.95 19.74 110.24 21.19C112.53 22.64 113.67 25.04 113.67 28.38C113.67 32.96 109.02 48.08 99.71 73.77C99.09 75.62 98.06 78.5 96.62 82.41C95.17 86.32 94.14 89.21 93.52 91.05L94.05 91.71L96.68 87.88L96.7 87.87Z" stroke="#A71F24" stroke-width="4"/>
<path d="M192.17 154.86C190.31 154.74 188.62 153.89 187.09 152.32C185.56 150.67 184.48 148.88 183.84 146.96C183.2 145.04 182.88 142.55 182.88 139.49C182.88 132.67 184.15 124.98 186.69 116.4C189.23 107.82 192.11 101.62 195.34 97.77C196.62 96.16 198.4 95.35 200.67 95.35C203.07 95.35 205 96.45 206.46 98.64C207.93 100.83 208.66 103.7 208.66 107.26C208.66 112.51 207.9 118.65 206.39 125.7C204.88 132.75 202.76 140.07 200.02 147.67C198.95 150.73 197.63 152.8 196.06 153.87C194.99 154.53 193.73 154.86 192.28 154.86H192.16H192.17ZM199.62 92.57C195.74 92.45 193.79 90.11 193.79 85.57C193.79 83.3 194.36 80.66 195.49 77.67C196.63 74.67 197.92 72.45 199.36 71.01C200.1 70.23 200.86 69.67 201.62 69.34C202.38 69.01 203.37 68.84 204.56 68.84C206.63 68.84 208.14 69.35 209.12 70.36C210.09 71.37 210.58 73.06 210.58 75.41C210.58 78.35 210.07 81.12 209.06 83.75C208.05 86.37 206.69 88.5 205 90.13C203.31 91.76 201.57 92.58 199.79 92.58H199.6L199.62 92.57Z" stroke="#A71F24" stroke-width="4"/>
<path d="M233.28 156.91C235.72 156.79 237.94 155.6 239.94 153.35C241.94 151.1 242.95 148.65 242.95 146C242.95 144.18 242.35 142.74 241.15 141.66C239.87 140.38 237 139.12 232.53 137.88C225.96 135.98 221.68 133.85 219.7 131.5C217.84 129.6 216.91 127.33 216.91 124.68C216.91 119.93 218.63 115.18 222.09 110.42C225.54 105.67 229.95 101.77 235.32 98.7401C240.69 95.7001 246.11 94.1801 251.56 94.1801C254.2 94.1801 256.68 94.8001 259 96.0401C261.31 97.2801 263.15 98.9201 264.52 100.97C265.88 103.02 266.57 105.24 266.57 107.63C266.57 110.02 265.83 112.42 264.34 114.94C262.85 117.46 260.98 119.56 258.73 121.23C256.48 122.9 254.34 123.74 252.31 123.74C251.15 123.74 250.15 123.49 249.3 123C248.45 122.5 248.03 121.97 248.03 121.39C248.03 120.81 248.2 119.96 248.53 118.85C249.44 115.3 249.89 112.2 249.89 109.55C249.89 106.9 249.1 104.49 247.53 102.17C245.5 103.57 244.18 104.69 243.56 105.51C241.99 107.33 240.77 109.39 239.9 111.7C238.95 114.05 238.47 116.28 238.47 118.39C238.47 119.88 238.81 121.06 239.5 121.95C240.18 122.84 241.3 123.59 242.85 124.21C244.4 124.83 246.74 125.51 249.88 126.26C255.13 127.54 258.82 128.78 260.97 129.98C261.47 130.27 262.23 130.87 263.26 131.78C264.83 133.48 265.61 135.67 265.61 138.35C265.61 141.2 264.72 144.09 262.94 147C261.16 149.92 258.42 152.92 254.7 156.02C250.73 159.37 246.79 161.77 242.86 163.21C238.93 164.66 234.59 165.38 229.84 165.38C225.09 165.38 221.65 164.47 219.02 162.65C216.4 160.83 215.08 158.35 215.08 155.21C215.08 152.98 215.95 150.72 217.68 148.42C219.42 146.13 221.57 144.26 224.16 142.81C226.74 141.36 229.27 140.64 231.75 140.64C233.61 140.64 234.54 141.05 234.54 141.88C234.54 142.29 234.27 142.97 233.73 143.92C232.12 146.81 231.31 149.48 231.31 151.92C231.31 153.66 231.95 155.31 233.23 156.88L233.28 156.91Z" stroke="#A71F24" stroke-width="4"/>
<path d="M290.19 156.91C292.63 156.79 294.85 155.6 296.85 153.35C298.85 151.1 299.86 148.65 299.86 146C299.86 144.18 299.26 142.74 298.06 141.66C296.78 140.38 293.91 139.12 289.44 137.88C282.87 135.98 278.59 133.85 276.61 131.5C274.75 129.6 273.82 127.33 273.82 124.68C273.82 119.93 275.54 115.18 279 110.42C282.45 105.67 286.86 101.77 292.23 98.7401C297.6 95.7001 303.02 94.1801 308.47 94.1801C311.11 94.1801 313.59 94.8001 315.91 96.0401C318.22 97.2801 320.06 98.9201 321.43 100.97C322.79 103.02 323.48 105.24 323.48 107.63C323.48 110.02 322.74 112.42 321.25 114.94C319.76 117.46 317.89 119.56 315.64 121.23C313.39 122.9 311.25 123.74 309.22 123.74C308.06 123.74 307.06 123.49 306.21 123C305.36 122.5 304.94 121.97 304.94 121.39C304.94 120.81 305.11 119.96 305.44 118.85C306.35 115.3 306.8 112.2 306.8 109.55C306.8 106.9 306.01 104.49 304.44 102.17C302.41 103.57 301.09 104.69 300.47 105.51C298.9 107.33 297.68 109.39 296.81 111.7C295.86 114.05 295.38 116.28 295.38 118.39C295.38 119.88 295.72 121.06 296.41 121.95C297.09 122.84 298.21 123.59 299.76 124.21C301.31 124.83 303.65 125.51 306.79 126.26C312.04 127.54 315.73 128.78 317.88 129.98C318.38 130.27 319.14 130.87 320.17 131.78C321.74 133.48 322.52 135.67 322.52 138.35C322.52 141.2 321.63 144.09 319.85 147C318.07 149.92 315.33 152.92 311.61 156.02C307.64 159.37 303.7 161.77 299.77 163.21C295.84 164.66 291.5 165.38 286.75 165.38C282 165.38 278.56 164.47 275.93 162.65C273.31 160.83 271.99 158.35 271.99 155.21C271.99 152.98 272.86 150.72 274.59 148.42C276.33 146.13 278.48 144.26 281.07 142.81C283.65 141.36 286.18 140.64 288.66 140.64C290.52 140.64 291.45 141.05 291.45 141.88C291.45 142.29 291.18 142.97 290.64 143.92C289.03 146.81 288.22 149.48 288.22 151.92C288.22 153.66 288.86 155.31 290.14 156.88L290.19 156.91Z" stroke="#A71F24" stroke-width="4"/>
<path d="M429.97 131.81L413.05 149.17C410.86 151.36 409.09 152.86 407.75 153.66C406.41 154.47 404.93 154.87 403.32 154.87C400.8 154.87 398.68 153.93 396.97 152.05C395.25 150.17 394.4 147.87 394.4 145.14C394.4 143.45 394.66 141.6 395.17 139.59C395.69 137.59 396.71 134.6 398.24 130.63C398.53 129.8 398.81 129.09 399.08 128.49C399.35 127.89 399.57 127.39 399.73 126.97L399.48 126.72C395.47 130.94 391.55 135.38 387.7 140.05C384.48 143.89 381.91 146.77 380.01 148.67C378.11 150.57 376.39 152 374.86 152.95C373.33 153.9 371.97 154.38 370.77 154.38C368.08 154.38 365.96 153.33 364.39 151.22C362.82 149.11 362.03 146.24 362.03 142.6C362.03 138.01 364.01 130.6 367.98 120.35C371.53 111.26 374.28 105.16 376.22 102.06C379.07 97.76 382.33 95.61 386.01 95.61C388.24 95.61 390.09 96.14 391.55 97.19C393.01 98.24 393.75 99.62 393.75 101.31C393.75 104.41 392.58 109.14 390.23 115.5C389.32 117.85 388.4 120.52 387.45 123.49L387.7 123.74C389.23 122.05 391.68 119.14 395.07 115C400.89 107.81 405.29 102.92 408.27 100.32C412.11 96.77 415.63 94.99 418.81 94.99C420.22 94.99 421.56 95.47 422.84 96.42C424.12 97.37 425.14 98.64 425.91 100.23C426.68 101.82 427.06 103.48 427.06 105.22C427.06 106.96 425.78 111.55 423.23 118.86C422.69 120.39 422.28 121.59 422 122.46C421.71 123.33 421.44 124.07 421.2 124.69L421.51 124.94C422.09 124.36 422.6 123.85 423.06 123.39C423.51 122.93 424.02 122.45 424.58 121.93C425.14 121.41 425.66 120.93 426.16 120.47C427.27 119.39 430.08 116.56 434.58 111.97C437.55 108.66 439.88 106.4 441.58 105.18C443.27 103.96 444.91 103.35 446.48 103.35C449.04 103.35 450.99 104.23 452.34 105.98C453.68 107.74 454.35 110.33 454.35 113.76C454.35 115.87 454.02 119.19 453.36 123.74C452.78 128.86 452.38 132.88 452.15 135.8C451.92 138.71 451.81 140.75 451.81 141.91C451.81 142.78 451.86 143.88 451.97 145.23C452.07 146.57 452.25 148.01 452.5 149.54C452.75 151.07 453.08 152.76 453.49 154.62C453.99 156.89 454.32 158.67 454.48 159.95C454.15 161.44 453.06 162.7 451.23 163.73C449.39 164.76 447.4 165.28 445.25 165.28C441.86 165.28 438.68 163.75 435.7 160.69C434.38 159.28 433.35 157.87 432.63 156.44C431.91 155.01 431.39 153.32 431.08 151.36C430.77 149.4 430.62 146.8 430.62 143.58C430.62 141.47 430.87 137.11 431.36 130.5L431.11 130.25L429.99 131.8L429.97 131.81Z" stroke="#A71F24" stroke-width="4"/>
<path d="M499.93 111.72L500.74 109.05C501.82 104.92 503.45 101.74 505.64 99.5C507.05 98.1 508.66 96.94 510.48 96.03C512.3 95.12 513.95 94.67 515.44 94.67C518.17 94.67 519.53 95.83 519.53 98.14C519.53 99.3 519.16 101.1 518.41 103.53C517.66 105.96 516.68 108.73 515.46 111.81C514.24 114.89 512.81 118.27 511.18 121.94C509.54 125.62 507.74 129.4 505.75 133.28C502.15 140.64 498.51 146.86 494.83 151.94C492.18 155.58 489.49 158.8 486.76 161.61C484.03 164.42 481.16 166.94 478.17 169.17C475.17 171.4 472.34 173.09 469.67 174.22C467 175.36 464.55 175.92 462.32 175.92C460.46 175.92 459.53 175.11 459.53 173.5C459.53 172.22 459.82 170.69 460.4 168.91C460.98 167.13 461.79 165.46 462.82 163.89C463.94 162.4 465.34 161.08 467.04 159.92C469.19 158.43 472.36 156.74 476.54 154.84C474.05 150.67 472.17 147.36 470.89 144.92C469.61 142.48 468.2 139.44 466.67 135.81C463.27 127.75 461.58 120.44 461.58 113.87C461.58 108.87 462.2 104.8 463.44 101.66C464.56 98.97 466.6 97.07 469.58 95.96C471.98 95.01 474.13 94.53 476.03 94.53C478.72 94.53 480.52 95.55 481.45 97.6C482.38 99.64 483.2 104.43 483.9 111.95C484.65 120.01 485.86 127.96 487.52 135.82C487.81 137.02 488.14 138.67 488.52 140.78H488.77C489.89 138.34 491.11 135.39 492.43 131.92C492.84 130.93 494.29 127.27 496.77 120.95C498.18 117.15 499.23 114.07 499.93 111.71V111.72Z" stroke="#A71F24" stroke-width="4"/>
<path d="M588.35 78.68L584.57 71.86C585.52 71.12 586.41 70.6 587.23 70.31C590.41 69.24 594.25 68.7 598.75 68.7C603.25 68.7 606.8 70 609.28 72.61C611.43 74.88 613.18 78.07 614.55 82.16C615.91 86.25 617.17 92.0799 618.33 99.6399C618.95 103.48 619.49 106.38 619.94 108.32C621.39 113.73 622.35 117.19 622.83 118.7C623.31 120.21 624.16 122.62 625.41 125.92C625.82 126.87 626.37 128.2 627.05 129.92C627.73 131.64 628.38 133.24 629 134.72C630.36 137.94 632.43 142.2 635.2 147.49C631.73 149.93 628.8 151.69 626.4 152.76C624 153.83 621.81 154.37 619.83 154.37C617.39 154.37 615.36 153.9 613.73 152.94C612.1 151.99 610.62 150.48 609.3 148.41C607.73 145.6 606.16 141.78 604.59 136.94C604.42 136.48 604.23 135.91 604 135.2C603.77 134.5 603.51 133.73 603.22 132.91C598.37 134.94 594.59 135.95 591.9 135.95C590.36 135.95 589.04 135.91 587.92 135.83C586.96 135.75 582.55 135.62 574.67 135.46L574.1 136.67C571.82 141.52 569.69 145.21 567.7 147.73C565.72 150.25 563.43 152.03 560.85 153.06C558.27 154.09 555.03 154.61 551.15 154.61C548.92 154.61 547.33 154.36 546.38 153.87C545.43 153.37 544.95 152.57 544.95 151.45C544.95 150.09 547.22 146.33 551.77 140.17C553.38 138.02 554.58 136.33 555.36 135.09C551.02 134.26 548.85 132.73 548.85 130.5C548.85 128.68 550.59 125.98 554.06 122.38C555.71 120.64 557.25 119.54 558.68 119.06C560.11 118.59 562.6 118.33 566.15 118.29C569.46 112.21 571.56 108.34 572.47 106.67C573.38 105 574.56 102.89 576 100.35C577.45 97.8099 579.09 94.9199 580.93 91.6699C582.77 88.4299 585.24 84.1 588.34 78.68H588.35ZM593.69 95.0199L582.37 119.1H599.12L593.93 95.0199H593.68H593.69Z" stroke="#A71F24" stroke-width="4"/>
<path d="M657.03 156.91C659.47 156.79 661.69 155.6 663.69 153.35C665.69 151.1 666.7 148.65 666.7 146C666.7 144.18 666.1 142.74 664.9 141.66C663.62 140.38 660.75 139.12 656.28 137.88C649.71 135.98 645.43 133.85 643.45 131.5C641.59 129.6 640.66 127.33 640.66 124.68C640.66 119.93 642.38 115.18 645.84 110.42C649.29 105.67 653.7 101.77 659.07 98.7401C664.44 95.7001 669.86 94.1801 675.31 94.1801C677.95 94.1801 680.43 94.8001 682.75 96.0401C685.06 97.2801 686.9 98.9201 688.27 100.97C689.63 103.02 690.32 105.24 690.32 107.63C690.32 110.02 689.58 112.42 688.09 114.94C686.6 117.46 684.73 119.56 682.48 121.23C680.23 122.9 678.09 123.74 676.06 123.74C674.9 123.74 673.9 123.49 673.05 123C672.2 122.51 671.78 121.97 671.78 121.39C671.78 120.81 671.95 119.96 672.28 118.85C673.19 115.3 673.64 112.2 673.64 109.55C673.64 106.9 672.85 104.49 671.28 102.17C669.26 103.57 667.93 104.69 667.31 105.51C665.74 107.33 664.52 109.39 663.65 111.7C662.7 114.05 662.22 116.28 662.22 118.39C662.22 119.88 662.56 121.06 663.25 121.95C663.93 122.84 665.05 123.59 666.6 124.21C668.15 124.83 670.49 125.51 673.63 126.26C678.88 127.54 682.58 128.78 684.72 129.98C685.22 130.27 685.98 130.87 687.01 131.78C688.58 133.48 689.36 135.67 689.36 138.35C689.36 141.2 688.47 144.09 686.69 147C684.91 149.92 682.16 152.92 678.44 156.02C674.47 159.37 670.53 161.77 666.6 163.21C662.67 164.66 658.33 165.38 653.58 165.38C648.83 165.38 645.39 164.47 642.76 162.65C640.14 160.83 638.82 158.35 638.82 155.21C638.82 152.98 639.69 150.72 641.42 148.42C643.16 146.13 645.31 144.26 647.9 142.81C650.48 141.36 653.01 140.64 655.49 140.64C657.35 140.64 658.28 141.05 658.28 141.88C658.28 142.29 658.01 142.97 657.47 143.92C655.86 146.81 655.05 149.48 655.05 151.92C655.05 153.66 655.69 155.31 656.97 156.88L657.03 156.91Z" stroke="#A71F24" stroke-width="4"/>
<path d="M718.25 140.91L718.13 144.32C717.55 152.54 716.81 159.24 715.9 164.41C714.99 169.58 713.96 172.74 712.8 173.89C711.23 175.58 708.77 176.43 705.43 176.43C701.84 176.43 699.26 175.73 697.69 174.32C697.07 173.62 696.66 172.98 696.45 172.4C696.24 171.82 696.14 170.77 696.14 169.24V167.32C696.26 155.71 697.38 144.03 699.49 132.3C701.6 120.56 704.39 109.87 707.86 100.22C711.33 90.5701 715.13 82.9301 719.27 77.2801C723.4 71.6401 727.51 68.8201 731.6 68.8201C733.46 68.8201 734.85 69.4501 735.78 70.7101C736.71 71.9701 737.17 73.7801 737.17 76.1301C737.17 79.6401 736.8 83.3701 736.05 87.3201C735.31 91.2701 734.41 94.4801 733.35 96.9601C732.3 99.4401 731.23 100.68 730.16 100.68C729.17 100.68 728.67 98.9401 728.67 95.4701V93.5501C728.67 90.0801 728.6 87.8101 728.46 86.7301C728.32 85.6601 728 84.9301 727.51 84.5601C727.06 85.4701 726.73 86.5201 726.53 87.7201C725.53 92.6801 724.71 97.1601 724.09 101.17C723.46 105.18 722.52 111.69 721.27 120.69C721.23 121.19 721.17 121.74 721.08 122.36C721 122.98 720.93 123.54 720.89 124.03H721.76C722.26 123.99 722.71 123.96 723.13 123.94C723.55 123.92 724.19 123.91 725.06 123.91C726.63 123.7 728.04 123.6 729.29 123.6C734.22 123.6 736.68 124.88 736.68 127.44C736.68 128.76 736.21 130.36 735.28 132.24C734.35 134.12 733.24 135.68 731.96 136.92C730.68 138.16 729.22 139.06 727.58 139.62C725.95 140.18 723.6 140.56 720.54 140.77C719.88 140.77 719.41 140.78 719.14 140.8C718.87 140.82 718.57 140.85 718.24 140.89L718.25 140.91Z" stroke="#A71F24" stroke-width="4"/>
<path d="M784.54 136.21V136.46L784.29 136.21C780.45 140.71 776.92 144.4 773.72 147.27C770.52 150.14 767.56 152.3 764.86 153.75C762.15 155.2 759.66 155.92 757.39 155.92C752.76 155.92 748.94 154.37 745.92 151.27C742.9 148.17 741.39 144.25 741.39 139.49C741.39 136.56 742.13 133.08 743.62 129.08C745.11 125.07 747.15 121.15 749.76 117.3C754.1 111.02 759.55 105.69 766.12 101.31C772.9 96.81 779.43 94.55 785.71 94.55C791 94.55 795.35 95.63 798.76 97.8C802.17 99.97 803.87 102.71 803.87 106.01C803.87 108.45 803.02 111.03 801.33 113.76C803.56 113.76 804.97 114 805.54 114.47C806.12 114.95 806.41 116.05 806.41 117.79C806.41 117.62 806.31 118.47 806.1 120.33C805.85 124.42 805.73 128.24 805.73 131.8C805.73 133.66 805.75 135.06 805.79 136.01C805.83 136.96 805.91 138.06 806.04 139.3C806.16 140.54 806.29 141.53 806.41 142.27C806.74 144.21 807.28 146.14 808.02 148.04C805.54 150.48 803.16 152.27 800.89 153.4C798.62 154.54 796.3 155.11 793.95 155.11C787.59 155.11 784.4 149.78 784.4 139.12C784.4 137.88 784.44 136.91 784.52 136.21H784.54ZM788.25 122.01L787.07 122.38C784.1 123.21 781.95 123.62 780.62 123.62C779.01 123.62 778.2 123.21 778.2 122.38C778.2 122.09 778.53 121.33 779.19 120.09C781.5 116.58 782.66 113.27 782.66 110.17C782.66 108.39 782.35 106.77 781.73 105.3C781.11 103.83 780.43 103.1 779.68 103.1C779.02 103.1 778.01 103.8 776.64 105.21C772.8 109.38 769.75 113.66 767.5 118.04C765.25 122.42 764.12 126.33 764.12 129.75C764.12 132.02 764.58 133.9 765.51 135.39C766.44 136.88 767.61 137.62 769.01 137.62C770.21 137.62 772.45 136.34 775.74 133.78C779.03 131.22 782.71 127.83 786.8 123.61L788.47 122.25L788.22 122L788.25 122.01Z" stroke="#A71F24" stroke-width="4"/>
<path d="M845.59 107.88C847.24 103.21 848.63 98.32 849.74 93.22C850.86 88.12 851.41 84.2 851.41 81.47C851.41 80.73 851.2 80.35 850.79 80.35C850.13 80.35 848.97 81.83 847.32 84.78C845.67 87.74 844.28 90.74 843.17 93.8C840.77 100.54 838.92 106.13 837.62 110.57C836.32 115.01 835.42 118.74 834.92 121.76C834.42 124.78 834.18 127.86 834.18 131C834.18 133.69 834.48 135.65 835.08 136.89C835.68 138.13 836.64 138.75 837.96 138.75C840.23 138.75 842.77 137.75 845.58 135.74C848.39 133.74 850.93 131.1 853.2 127.84C854.98 125.4 856.36 124.18 857.35 124.18C858.63 124.18 859.27 125.19 859.27 127.22C859.27 131.64 857.89 135.96 855.12 140.18C852.35 144.4 848.79 147.82 844.43 150.44C840.07 153.06 835.62 154.38 831.07 154.38C825.49 154.38 820.95 152.62 817.43 149.11C813.92 145.6 812.16 141.01 812.16 135.35C812.16 130.72 813.15 125.3 815.14 119.08C817.12 112.86 819.78 106.6 823.1 100.3C826.43 94 830.07 88.29 834.04 83.16C838.01 78.04 841.93 74.11 845.82 71.38C848.22 69.6 850.88 68.71 853.82 68.71C856.05 68.71 858.08 69.4 859.9 70.79C861.72 72.17 863.12 74.11 864.11 76.59C865.1 79.07 865.6 81.82 865.6 84.83C865.6 91.32 864.33 97.66 861.79 103.86C859.25 110.06 855.7 115.43 851.16 119.98C849.01 122.17 846.94 123.89 844.96 125.13C842.98 126.37 841.24 126.99 839.75 126.99C838.26 126.99 837.58 126.43 837.58 125.32C837.58 124.7 838.12 123.52 839.19 121.79C840.64 119.52 842.33 116.09 844.27 111.5C844.44 111.05 844.62 110.56 844.83 110.04C845.04 109.52 845.28 108.81 845.57 107.9L845.59 107.88Z" stroke="#A71F24" stroke-width="4"/>
<path d="M882.04 94.3001L882.29 93.5601C885.02 85.8701 887.38 80.4601 889.37 77.3201C890.32 75.8301 891.65 74.5101 893.34 73.3501C896.53 71.3301 899.53 70.3101 902.34 70.3101C903.99 70.3101 905.26 70.6801 906.13 71.4301C907 72.1801 907.43 73.2501 907.43 74.6601C907.43 75.6101 906.81 77.5501 905.56 80.4801C903.44 85.3601 901.86 89.9201 900.82 94.1801C901.52 94.2601 902.21 94.3901 902.87 94.5501C905.35 94.9201 906.99 95.3501 907.77 95.8201C908.55 96.2901 908.95 97.1501 908.95 98.3901C908.95 100.58 908.39 102.61 907.28 104.47C906.16 106.33 904.7 107.69 902.88 108.56C901.52 109.18 899.31 109.59 896.25 109.8C895.72 111.41 895.13 113.62 894.47 116.44C894.1 118.92 893.69 122.35 893.24 126.73C892.99 128.34 892.87 129.85 892.87 131.25C892.87 137.77 896.03 141.04 902.36 141.04H902.92C903.66 141.04 904.04 141.16 904.04 141.41C904.04 142.07 903.34 143.19 901.93 144.76C900.52 146.33 898.97 147.72 897.28 148.91C895.46 150.15 893.48 151.14 891.32 151.89C889.17 152.63 887.22 153.01 885.48 153.01C881.13 153.01 877.6 151.54 874.89 148.61C872.18 145.68 870.82 141.79 870.82 136.96C870.82 134.89 871.18 132.19 871.9 128.84C872.62 125.49 873.75 121.01 875.28 115.39C875.53 114.4 875.8 113.36 876.09 112.26C876.38 111.17 876.54 110.51 876.59 110.31C874.94 110.27 873.76 109.92 873.06 109.26C872.36 108.6 872.01 107.52 872.01 106.04C872.01 103.44 873.01 100.98 875.02 98.6601C877.02 96.3501 879.37 94.9001 882.06 94.3201L882.04 94.3001Z" stroke="#A71F24" stroke-width="4"/>
<defs>
<radialGradient id="paint0_radial_251_264" cx="0" cy="0" r="1" gradientUnits="userSpaceOnUse" gradientTransform="translate(425.851 157.665) rotate(-89.22) scale(459.85 542.623)">
<stop offset="0.02" stop-color="#FF4343"/>
<stop offset="0.12" stop-color="#FF4343"/>
<stop offset="0.31" stop-color="#FA4141"/>
<stop offset="0.5" stop-color="#EE3C3D"/>
<stop offset="0.68" stop-color="#DA3436"/>
<stop offset="0.87" stop-color="#BE282C"/>
<stop offset="1" stop-color="#A71F24"/>
</radialGradient>
<radialGradient id="paint1_radial_251_264" cx="0" cy="0" r="1" gradientUnits="userSpaceOnUse" gradientTransform="translate(425.851 157.665) rotate(-89.22) scale(459.85 542.623)">
<stop offset="0.02" stop-color="#FF4343"/>
<stop offset="0.12" stop-color="#FF4343"/>
<stop offset="0.31" stop-color="#FA4141"/>
<stop offset="0.5" stop-color="#EE3C3D"/>
<stop offset="0.68" stop-color="#DA3436"/>
<stop offset="0.87" stop-color="#BE282C"/>
<stop offset="1" stop-color="#A71F24"/>
</radialGradient>
<radialGradient id="paint2_radial_251_264" cx="0" cy="0" r="1" gradientUnits="userSpaceOnUse" gradientTransform="translate(425.852 157.665) rotate(-89.22) scale(459.85 542.623)">
<stop offset="0.02" stop-color="#FF4343"/>
<stop offset="0.12" stop-color="#FF4343"/>
<stop offset="0.31" stop-color="#FA4141"/>
<stop offset="0.5" stop-color="#EE3C3D"/>
<stop offset="0.68" stop-color="#DA3436"/>
<stop offset="0.87" stop-color="#BE282C"/>
<stop offset="1" stop-color="#A71F24"/>
</radialGradient>
<radialGradient id="paint3_radial_251_264" cx="0" cy="0" r="1" gradientUnits="userSpaceOnUse" gradientTransform="translate(425.852 157.665) rotate(-89.22) scale(459.85 542.623)">
<stop offset="0.02" stop-color="#FF4343"/>
<stop offset="0.12" stop-color="#FF4343"/>
<stop offset="0.31" stop-color="#FA4141"/>
<stop offset="0.5" stop-color="#EE3C3D"/>
<stop offset="0.68" stop-color="#DA3436"/>
<stop offset="0.87" stop-color="#BE282C"/>
<stop offset="1" stop-color="#A71F24"/>
</radialGradient>
<radialGradient id="paint4_radial_251_264" cx="0" cy="0" r="1" gradientUnits="userSpaceOnUse" gradientTransform="translate(425.851 157.665) rotate(-89.22) scale(459.85 542.623)">
<stop offset="0.02" stop-color="#FF4343"/>
<stop offset="0.12" stop-color="#FF4343"/>
<stop offset="0.31" stop-color="#FA4141"/>
<stop offset="0.5" stop-color="#EE3C3D"/>
<stop offset="0.68" stop-color="#DA3436"/>
<stop offset="0.87" stop-color="#BE282C"/>
<stop offset="1" stop-color="#A71F24"/>
</radialGradient>
<radialGradient id="paint5_radial_251_264" cx="0" cy="0" r="1" gradientUnits="userSpaceOnUse" gradientTransform="translate(425.851 157.665) rotate(-89.22) scale(459.85 542.623)">
<stop offset="0.02" stop-color="#FF4343"/>
<stop offset="0.12" stop-color="#FF4343"/>
<stop offset="0.31" stop-color="#FA4141"/>
<stop offset="0.5" stop-color="#EE3C3D"/>
<stop offset="0.68" stop-color="#DA3436"/>
<stop offset="0.87" stop-color="#BE282C"/>
<stop offset="1" stop-color="#A71F24"/>
</radialGradient>
<radialGradient id="paint6_radial_251_264" cx="0" cy="0" r="1" gradientUnits="userSpaceOnUse" gradientTransform="translate(425.852 157.665) rotate(-89.22) scale(459.85 542.623)">
<stop offset="0.02" stop-color="#FF4343"/>
<stop offset="0.12" stop-color="#FF4343"/>
<stop offset="0.31" stop-color="#FA4141"/>
<stop offset="0.5" stop-color="#EE3C3D"/>
<stop offset="0.68" stop-color="#DA3436"/>
<stop offset="0.87" stop-color="#BE282C"/>
<stop offset="1" stop-color="#A71F24"/>
</radialGradient>
<radialGradient id="paint7_radial_251_264" cx="0" cy="0" r="1" gradientUnits="userSpaceOnUse" gradientTransform="translate(425.851 157.665) rotate(-89.22) scale(459.85 542.623)">
<stop offset="0.02" stop-color="#FF4343"/>
<stop offset="0.12" stop-color="#FF4343"/>
<stop offset="0.31" stop-color="#FA4141"/>
<stop offset="0.5" stop-color="#EE3C3D"/>
<stop offset="0.68" stop-color="#DA3436"/>
<stop offset="0.87" stop-color="#BE282C"/>
<stop offset="1" stop-color="#A71F24"/>
</radialGradient>
<radialGradient id="paint8_radial_251_264" cx="0" cy="0" r="1" gradientUnits="userSpaceOnUse" gradientTransform="translate(425.852 157.665) rotate(-89.22) scale(459.85 542.623)">
<stop offset="0.02" stop-color="#FF4343"/>
<stop offset="0.12" stop-color="#FF4343"/>
<stop offset="0.31" stop-color="#FA4141"/>
<stop offset="0.5" stop-color="#EE3C3D"/>
<stop offset="0.68" stop-color="#DA3436"/>
<stop offset="0.87" stop-color="#BE282C"/>
<stop offset="1" stop-color="#A71F24"/>
</radialGradient>
<radialGradient id="paint9_radial_251_264" cx="0" cy="0" r="1" gradientUnits="userSpaceOnUse" gradientTransform="translate(425.852 157.665) rotate(-89.22) scale(459.85 542.623)">
<stop offset="0.02" stop-color="#FF4343"/>
<stop offset="0.12" stop-color="#FF4343"/>
<stop offset="0.31" stop-color="#FA4141"/>
<stop offset="0.5" stop-color="#EE3C3D"/>
<stop offset="0.68" stop-color="#DA3436"/>
<stop offset="0.87" stop-color="#BE282C"/>
<stop offset="1" stop-color="#A71F24"/>
</radialGradient>
<radialGradient id="paint10_radial_251_264" cx="0" cy="0" r="1" gradientUnits="userSpaceOnUse" gradientTransform="translate(425.852 157.665) rotate(-89.22) scale(459.85 542.623)">
<stop offset="0.02" stop-color="#FF4343"/>
<stop offset="0.12" stop-color="#FF4343"/>
<stop offset="0.31" stop-color="#FA4141"/>
<stop offset="0.5" stop-color="#EE3C3D"/>
<stop offset="0.68" stop-color="#DA3436"/>
<stop offset="0.87" stop-color="#BE282C"/>
<stop offset="1" stop-color="#A71F24"/>
</radialGradient>
<radialGradient id="paint11_radial_251_264" cx="0" cy="0" r="1" gradientUnits="userSpaceOnUse" gradientTransform="translate(425.851 157.665) rotate(-89.22) scale(459.85 542.623)">
<stop offset="0.02" stop-color="#FF4343"/>
<stop offset="0.12" stop-color="#FF4343"/>
<stop offset="0.31" stop-color="#FA4141"/>
<stop offset="0.5" stop-color="#EE3C3D"/>
<stop offset="0.68" stop-color="#DA3436"/>
<stop offset="0.87" stop-color="#BE282C"/>
<stop offset="1" stop-color="#A71F24"/>
</radialGradient>
</defs>
</svg>
