<svg width="256" height="283" viewBox="0 0 256 283" fill="none" xmlns="http://www.w3.org/2000/svg">
<path d="M119.553 134.916L1.06006 259.061C2.39072 263.777 4.78197 268.126 8.051 271.776C11.32 275.425 15.3803 278.28 19.9214 280.12C24.4626 281.96 29.3644 282.738 34.252 282.393C39.1397 282.049 43.884 280.591 48.1221 278.132L181.449 202.198L119.553 134.916Z" fill="#EA4335"/>
<path d="M239.37 113.814L181.715 80.79L116.817 137.74L181.979 202.02L239.195 169.35C244.264 166.696 248.509 162.705 251.471 157.81C254.434 152.915 256 147.303 256 141.581C256 135.86 254.434 130.248 251.471 125.353C248.509 120.458 244.264 116.467 239.195 113.813L239.37 113.814Z" fill="#FBBC04"/>
<path d="M1.05994 23.487C0.344136 26.1349 -0.0123909 28.8671 -5.68464e-05 31.61V250.937C0.00701123 253.679 0.363209 256.409 1.05994 259.061L123.615 138.095L1.05994 23.487Z" fill="#4285F4"/>
<path d="M120.436 141.274L181.714 80.791L48.5641 4.503C43.5543 1.56921 37.8566 0.0154646 32.0511 2.95171e-07C17.6441 -0.0279997 4.97806 9.534 1.06006 23.399L120.436 141.274Z" fill="#34A853"/>
</svg>
