<?xml version="1.0" encoding="UTF-8"?>
<svg id="Layer_2" xmlns="http://www.w3.org/2000/svg" xmlns:xlink="http://www.w3.org/1999/xlink" viewBox="0 0 892.94 184.12">
  <defs>
    <style>
      .cls-1 {
        fill: url(#radial-gradient);
      }

      .cls-2 {
        stroke: #fff;
        stroke-width: 22px;
      }

      .cls-2, .cls-3 {
        fill: none;
      }

      .cls-3 {
        stroke: #a71f24;
        stroke-width: 4px;
      }
    </style>
    <radialGradient id="radial-gradient" cx="409.74" cy="138.66" fx="387.12" fy="138.66" r="459.85" gradientTransform="translate(240.67 546.14) rotate(-89.22) scale(1 1.18)" gradientUnits="userSpaceOnUse">
      <stop offset=".02" stop-color="#ff4343"/>
      <stop offset=".12" stop-color="#ff4343"/>
      <stop offset=".31" stop-color="#fa4141"/>
      <stop offset=".5" stop-color="#ee3c3d"/>
      <stop offset=".68" stop-color="#da3436"/>
      <stop offset=".87" stop-color="#be282c"/>
      <stop offset="1" stop-color="#a71f24"/>
    </radialGradient>
  </defs>
  <g id="Layer_2-2" data-name="Layer_2">
    <g>
      <g>
        <path d="M80.7,68.87l26.72-28.9c7.36-7.12,13.07-12.4,17.1-15.83,4.03-3.43,9.03-7.08,15-10.95,10.44-7.04,19.95-10.56,28.54-10.56,6.49,0,9.73,2.42,9.73,7.24,0,3.69-.88,7.37-2.63,11.06-1.76,3.69-4.13,7.03-7.11,10.01-5.36,5.35-15.63,12.64-30.82,21.86-11.41,7.02-20.37,13.21-26.87,18.57,1.06,6.5,2.22,12.36,3.5,17.58,1.28,5.22,2.7,9.83,4.28,13.83,1.58,4,3.82,8.81,6.71,14.42,3.24,6.32,6.75,12.12,10.53,17.39,9.48,12.82,18.92,21.25,28.32,25.29,2.9,1.41,4.35,2.68,4.35,3.82,0,2.2-1.54,4.61-4.62,7.24-4.05,4.21-8.95,7.46-14.71,9.75-5.76,2.28-11.59,3.43-17.48,3.43-10.73,0-20.36-2.82-28.89-8.47-8.53-5.64-15.06-13.57-19.58-23.77-5.22-11.52-8.61-25.49-10.16-41.91-.35-2.81-.52-5.93-.52-9.35h-.53c-3.6,5.18-6.2,9.37-7.78,12.58-1.58,3.21-4.04,8.98-7.38,17.32-3.96,10.63-7.6,18.81-10.94,24.56-3.34,5.75-7.16,10.43-11.47,14.03-4.04,3.51-8.53,6.45-13.45,8.82-4.92,2.37-9,3.56-12.26,3.56-2.37,0-4.35-.9-5.93-2.7-1.58-1.8-2.37-3.97-2.37-6.52,0-1.58.09-2.81.26-3.69,4.13-16.59,8.63-33.43,13.5-50.51,4.87-17.08,9.85-33.19,14.95-48.33,5.09-15.15,9.79-27.99,14.1-38.52,4.31-10.54,7.65-17.25,10.03-20.15,2.82-3.25,6.99-5.9,12.53-7.97,5.54-2.06,11.3-3.09,17.28-3.09,5.45,0,9.32.73,11.61,2.18,2.29,1.45,3.43,3.85,3.43,7.19,0,4.58-4.65,19.7-13.96,45.39-.62,1.85-1.65,4.73-3.09,8.64-1.45,3.91-2.48,6.8-3.1,8.64l.53.66,2.63-3.83Z"/>
        <path d="M176.17,135.86c-1.86-.12-3.55-.97-5.08-2.54-1.53-1.65-2.61-3.44-3.25-5.36-.64-1.92-.96-4.41-.96-7.47,0-6.82,1.27-14.51,3.81-23.09s5.42-14.78,8.65-18.63c1.28-1.61,3.06-2.42,5.33-2.42,2.4,0,4.33,1.1,5.79,3.29,1.47,2.19,2.2,5.06,2.2,8.62,0,5.25-.76,11.39-2.27,18.44s-3.63,14.37-6.37,21.97c-1.07,3.06-2.39,5.13-3.96,6.2-1.07.66-2.33.99-3.78.99h-.12ZM183.62,73.57c-3.88-.12-5.83-2.46-5.83-7,0-2.27.57-4.91,1.7-7.9,1.14-3,2.43-5.22,3.87-6.66.74-.78,1.5-1.34,2.26-1.67.76-.33,1.75-.5,2.94-.5,2.07,0,3.58.51,4.56,1.52.97,1.01,1.46,2.7,1.46,5.05,0,2.94-.51,5.71-1.52,8.34-1.01,2.62-2.37,4.75-4.06,6.38-1.69,1.63-3.43,2.45-5.21,2.45h-.19Z"/>
        <path d="M217.28,137.91c2.44-.12,4.66-1.31,6.66-3.56,2-2.25,3.01-4.7,3.01-7.35,0-1.82-.6-3.26-1.8-4.34-1.28-1.28-4.15-2.54-8.62-3.78-6.57-1.9-10.85-4.03-12.83-6.38-1.86-1.9-2.79-4.17-2.79-6.82,0-4.75,1.72-9.5,5.18-14.26,3.45-4.75,7.86-8.65,13.23-11.68,5.37-3.04,10.79-4.56,16.24-4.56,2.64,0,5.12.62,7.44,1.86,2.31,1.24,4.15,2.88,5.52,4.93,1.36,2.05,2.05,4.27,2.05,6.66s-.74,4.79-2.23,7.31c-1.49,2.52-3.36,4.62-5.61,6.29-2.25,1.67-4.39,2.51-6.42,2.51-1.16,0-2.16-.25-3.01-.74-.85-.5-1.27-1.03-1.27-1.61s.17-1.43.5-2.54c.91-3.55,1.36-6.65,1.36-9.3s-.79-5.06-2.36-7.38c-2.03,1.4-3.35,2.52-3.97,3.34-1.57,1.82-2.79,3.88-3.66,6.19-.95,2.35-1.43,4.58-1.43,6.69,0,1.49.34,2.67,1.03,3.56.68.89,1.8,1.64,3.35,2.26,1.55.62,3.89,1.3,7.03,2.05,5.25,1.28,8.94,2.52,11.09,3.72.5.29,1.26.89,2.29,1.8,1.57,1.7,2.35,3.89,2.35,6.57,0,2.85-.89,5.74-2.67,8.65-1.78,2.92-4.52,5.92-8.24,9.02-3.97,3.35-7.91,5.75-11.84,7.19-3.93,1.45-8.27,2.17-13.02,2.17s-8.19-.91-10.82-2.73c-2.62-1.82-3.94-4.3-3.94-7.44,0-2.23.87-4.49,2.6-6.79,1.74-2.29,3.89-4.16,6.48-5.61,2.58-1.45,5.11-2.17,7.59-2.17,1.86,0,2.79.41,2.79,1.24,0,.41-.27,1.09-.81,2.04-1.61,2.89-2.42,5.56-2.42,8,0,1.74.64,3.39,1.92,4.96Z"/>
        <path d="M274.19,137.91c2.44-.12,4.66-1.31,6.66-3.56,2-2.25,3.01-4.7,3.01-7.35,0-1.82-.6-3.26-1.8-4.34-1.28-1.28-4.15-2.54-8.62-3.78-6.57-1.9-10.85-4.03-12.83-6.38-1.86-1.9-2.79-4.17-2.79-6.82,0-4.75,1.72-9.5,5.18-14.26,3.45-4.75,7.86-8.65,13.23-11.68,5.37-3.04,10.79-4.56,16.24-4.56,2.64,0,5.12.62,7.44,1.86,2.31,1.24,4.15,2.88,5.52,4.93,1.36,2.05,2.05,4.27,2.05,6.66s-.74,4.79-2.23,7.31c-1.49,2.52-3.36,4.62-5.61,6.29-2.25,1.67-4.39,2.51-6.42,2.51-1.16,0-2.16-.25-3.01-.74-.85-.5-1.27-1.03-1.27-1.61s.17-1.43.5-2.54c.91-3.55,1.36-6.65,1.36-9.3s-.79-5.06-2.36-7.38c-2.03,1.4-3.35,2.52-3.97,3.34-1.57,1.82-2.79,3.88-3.66,6.19-.95,2.35-1.43,4.58-1.43,6.69,0,1.49.34,2.67,1.03,3.56.68.89,1.8,1.64,3.35,2.26,1.55.62,3.89,1.3,7.03,2.05,5.25,1.28,8.94,2.52,11.09,3.72.5.29,1.26.89,2.29,1.8,1.57,1.7,2.35,3.89,2.35,6.57,0,2.85-.89,5.74-2.67,8.65-1.78,2.92-4.52,5.92-8.24,9.02-3.97,3.35-7.91,5.75-11.84,7.19-3.93,1.45-8.27,2.17-13.02,2.17s-8.19-.91-10.82-2.73c-2.62-1.82-3.94-4.3-3.94-7.44,0-2.23.87-4.49,2.6-6.79,1.74-2.29,3.89-4.16,6.48-5.61,2.58-1.45,5.11-2.17,7.59-2.17,1.86,0,2.79.41,2.79,1.24,0,.41-.27,1.09-.81,2.04-1.61,2.89-2.42,5.56-2.42,8,0,1.74.64,3.39,1.92,4.96Z"/>
        <path d="M413.97,112.81l-16.92,17.36c-2.19,2.19-3.96,3.69-5.3,4.49-1.34.81-2.82,1.21-4.43,1.21-2.52,0-4.64-.94-6.35-2.82-1.72-1.88-2.57-4.18-2.57-6.91,0-1.69.26-3.54.77-5.55.52-2,1.54-4.99,3.07-8.96.29-.83.57-1.54.84-2.14.27-.6.49-1.1.65-1.52l-.25-.25c-4.01,4.22-7.93,8.66-11.78,13.33-3.22,3.84-5.79,6.72-7.69,8.62s-3.62,3.33-5.15,4.28c-1.53.95-2.89,1.43-4.09,1.43-2.69,0-4.81-1.05-6.38-3.16-1.57-2.11-2.36-4.98-2.36-8.62,0-4.59,1.98-12,5.95-22.25,3.55-9.09,6.3-15.19,8.24-18.29,2.85-4.3,6.11-6.45,9.79-6.45,2.23,0,4.08.53,5.54,1.58s2.2,2.43,2.2,4.12c0,3.1-1.17,7.83-3.52,14.19-.91,2.35-1.83,5.02-2.78,7.99l.25.25c1.53-1.69,3.98-4.6,7.37-8.74,5.82-7.19,10.22-12.08,13.2-14.68,3.84-3.55,7.36-5.33,10.54-5.33,1.41,0,2.75.48,4.03,1.43s2.3,2.22,3.07,3.81c.77,1.59,1.15,3.25,1.15,4.99s-1.28,6.33-3.83,13.64c-.54,1.53-.95,2.73-1.23,3.6-.29.87-.56,1.61-.8,2.23l.31.25c.58-.58,1.09-1.09,1.55-1.55.45-.46.96-.94,1.52-1.46.56-.52,1.08-1,1.58-1.46,1.11-1.08,3.92-3.91,8.42-8.5,2.97-3.31,5.3-5.57,7-6.79,1.69-1.22,3.33-1.83,4.9-1.83,2.56,0,4.51.88,5.86,2.63,1.34,1.76,2.01,4.35,2.01,7.78,0,2.11-.33,5.43-.99,9.98-.58,5.12-.98,9.14-1.21,12.06-.23,2.91-.34,4.95-.34,6.11,0,.87.05,1.97.16,3.32.1,1.34.28,2.78.53,4.31.25,1.53.58,3.22.99,5.08.5,2.27.83,4.05.99,5.33-.33,1.49-1.42,2.75-3.25,3.78-1.84,1.03-3.83,1.55-5.98,1.55-3.39,0-6.57-1.53-9.55-4.59-1.32-1.41-2.35-2.82-3.07-4.25-.72-1.43-1.24-3.12-1.55-5.08-.31-1.96-.46-4.56-.46-7.78,0-2.11.25-6.47.74-13.08l-.25-.25-1.12,1.55Z"/>
        <path d="M483.93,92.72l.81-2.67c1.08-4.13,2.71-7.31,4.9-9.55,1.41-1.4,3.02-2.56,4.84-3.47,1.82-.91,3.47-1.36,4.96-1.36,2.73,0,4.09,1.16,4.09,3.47,0,1.16-.37,2.96-1.12,5.39s-1.73,5.2-2.95,8.28c-1.22,3.08-2.65,6.46-4.28,10.13-1.64,3.68-3.44,7.46-5.43,11.34-3.6,7.36-7.24,13.58-10.92,18.66-2.65,3.64-5.34,6.86-8.07,9.67-2.73,2.81-5.6,5.33-8.59,7.56-3,2.23-5.83,3.92-8.5,5.05-2.67,1.14-5.12,1.7-7.35,1.7-1.86,0-2.79-.81-2.79-2.42,0-1.28.29-2.81.87-4.59.58-1.78,1.39-3.45,2.42-5.02,1.12-1.49,2.52-2.81,4.22-3.97,2.15-1.49,5.32-3.18,9.5-5.08-2.49-4.17-4.37-7.48-5.65-9.92-1.28-2.44-2.69-5.48-4.22-9.11-3.4-8.06-5.09-15.37-5.09-21.94,0-5,.62-9.07,1.86-12.21,1.12-2.69,3.16-4.59,6.14-5.7,2.4-.95,4.55-1.43,6.45-1.43,2.69,0,4.49,1.02,5.42,3.07.93,2.04,1.75,6.83,2.45,14.35.75,8.06,1.96,16.01,3.62,23.87.29,1.2.62,2.85,1,4.96h.25c1.12-2.44,2.34-5.39,3.66-8.86.41-.99,1.86-4.65,4.34-10.97,1.41-3.8,2.46-6.88,3.16-9.24Z"/>
        <path d="M572.35,59.68l-3.78-6.82c.95-.74,1.84-1.26,2.66-1.55,3.18-1.07,7.02-1.61,11.52-1.61s8.05,1.3,10.53,3.91c2.15,2.27,3.9,5.46,5.27,9.55,1.36,4.09,2.62,9.92,3.78,17.48.62,3.84,1.16,6.74,1.61,8.68,1.45,5.41,2.41,8.87,2.89,10.38.48,1.51,1.33,3.92,2.58,7.22.41.95.96,2.28,1.64,4,.68,1.72,1.33,3.32,1.95,4.8,1.36,3.22,3.43,7.48,6.2,12.77-3.47,2.44-6.4,4.2-8.8,5.27-2.4,1.07-4.59,1.61-6.57,1.61-2.44,0-4.47-.47-6.1-1.43-1.63-.95-3.11-2.46-4.43-4.53-1.57-2.81-3.14-6.63-4.71-11.47-.17-.46-.36-1.03-.59-1.74-.23-.7-.49-1.47-.78-2.29-4.85,2.03-8.63,3.04-11.32,3.04-1.54,0-2.86-.04-3.98-.12-.96-.08-5.37-.21-13.25-.37l-.57,1.21c-2.28,4.85-4.41,8.54-6.4,11.06-1.98,2.52-4.27,4.3-6.85,5.33-2.58,1.03-5.82,1.55-9.7,1.55-2.23,0-3.82-.25-4.77-.74-.95-.5-1.43-1.3-1.43-2.42,0-1.36,2.27-5.12,6.82-11.28,1.61-2.15,2.81-3.84,3.59-5.08-4.34-.83-6.51-2.36-6.51-4.59,0-1.82,1.74-4.52,5.21-8.12,1.65-1.74,3.19-2.84,4.62-3.32,1.43-.47,3.92-.73,7.47-.77,3.31-6.08,5.41-9.95,6.32-11.62s2.09-3.78,3.53-6.32c1.45-2.54,3.09-5.43,4.93-8.68,1.84-3.24,4.31-7.57,7.41-12.99ZM577.69,76.02l-11.32,24.08h16.75l-5.19-24.08h-.25Z"/>
        <path d="M641.03,137.91c2.44-.12,4.66-1.31,6.66-3.56,2-2.25,3.01-4.7,3.01-7.35,0-1.82-.6-3.26-1.8-4.34-1.28-1.28-4.15-2.54-8.62-3.78-6.57-1.9-10.85-4.03-12.83-6.38-1.86-1.9-2.79-4.17-2.79-6.82,0-4.75,1.72-9.5,5.18-14.26,3.45-4.75,7.86-8.65,13.23-11.68,5.37-3.04,10.79-4.56,16.24-4.56,2.64,0,5.12.62,7.44,1.86,2.31,1.24,4.15,2.88,5.52,4.93,1.36,2.05,2.05,4.27,2.05,6.66s-.74,4.79-2.23,7.31c-1.49,2.52-3.36,4.62-5.61,6.29-2.25,1.67-4.39,2.51-6.42,2.51-1.16,0-2.16-.25-3.01-.74s-1.27-1.03-1.27-1.61.17-1.43.5-2.54c.91-3.55,1.36-6.65,1.36-9.3s-.79-5.06-2.36-7.38c-2.02,1.4-3.35,2.52-3.97,3.34-1.57,1.82-2.79,3.88-3.66,6.19-.95,2.35-1.43,4.58-1.43,6.69,0,1.49.34,2.67,1.03,3.56.68.89,1.8,1.64,3.35,2.26,1.55.62,3.89,1.3,7.03,2.05,5.25,1.28,8.95,2.52,11.09,3.72.5.29,1.26.89,2.29,1.8,1.57,1.7,2.35,3.89,2.35,6.57,0,2.85-.89,5.74-2.67,8.65-1.78,2.92-4.53,5.92-8.25,9.02-3.97,3.35-7.91,5.75-11.84,7.19-3.93,1.45-8.27,2.17-13.02,2.17s-8.19-.91-10.82-2.73c-2.62-1.82-3.94-4.3-3.94-7.44,0-2.23.87-4.49,2.6-6.79,1.74-2.29,3.89-4.16,6.48-5.61,2.58-1.45,5.11-2.17,7.59-2.17,1.86,0,2.79.41,2.79,1.24,0,.41-.27,1.09-.81,2.04-1.61,2.89-2.42,5.56-2.42,8,0,1.74.64,3.39,1.92,4.96Z"/>
        <path d="M702.25,121.91l-.12,3.41c-.58,8.22-1.32,14.92-2.23,20.09-.91,5.17-1.94,8.33-3.1,9.48-1.57,1.69-4.03,2.54-7.37,2.54-3.59,0-6.17-.7-7.74-2.11-.62-.7-1.03-1.34-1.24-1.92-.21-.58-.31-1.63-.31-3.16v-1.92c.12-11.61,1.24-23.29,3.35-35.02,2.11-11.74,4.9-22.43,8.37-32.08,3.47-9.65,7.27-17.29,11.41-22.94,4.13-5.64,8.24-8.46,12.33-8.46,1.86,0,3.25.63,4.18,1.89.93,1.26,1.39,3.07,1.39,5.42,0,3.51-.37,7.24-1.12,11.19-.74,3.95-1.64,7.16-2.7,9.64-1.05,2.48-2.12,3.72-3.19,3.72-.99,0-1.49-1.74-1.49-5.21v-1.92c0-3.47-.07-5.74-.21-6.82-.14-1.07-.46-1.8-.95-2.17-.45.91-.78,1.96-.98,3.16-1,4.96-1.82,9.44-2.44,13.45-.63,4.01-1.57,10.52-2.82,19.52-.04.5-.1,1.05-.19,1.67-.08.62-.15,1.18-.19,1.67h.87c.5-.04.95-.07,1.37-.09.42-.02,1.06-.03,1.93-.03,1.57-.21,2.98-.31,4.23-.31,4.93,0,7.39,1.28,7.39,3.84,0,1.32-.47,2.92-1.4,4.8s-2.04,3.44-3.32,4.68c-1.28,1.24-2.74,2.14-4.38,2.7-1.63.56-3.98.94-7.04,1.15-.66,0-1.13.01-1.4.03-.27.02-.57.05-.9.09Z"/>
        <path d="M768.54,117.21v.25l-.25-.25c-3.84,4.5-7.37,8.19-10.57,11.06-3.2,2.87-6.16,5.03-8.86,6.48-2.71,1.45-5.2,2.17-7.47,2.17-4.63,0-8.45-1.55-11.47-4.65s-4.53-7.02-4.53-11.78c0-2.93.74-6.41,2.23-10.41,1.49-4.01,3.53-7.93,6.14-11.78,4.34-6.28,9.79-11.61,16.36-15.99,6.78-4.5,13.31-6.76,19.59-6.76,5.29,0,9.64,1.08,13.05,3.25,3.41,2.17,5.11,4.91,5.11,8.21,0,2.44-.85,5.02-2.54,7.75,2.23,0,3.64.24,4.21.71.58.48.87,1.58.87,3.32,0-.17-.1.68-.31,2.54-.25,4.09-.37,7.91-.37,11.47,0,1.86.02,3.26.06,4.21.04.95.12,2.05.25,3.29.12,1.24.25,2.23.37,2.97.33,1.94.87,3.87,1.61,5.77-2.48,2.44-4.86,4.23-7.13,5.36-2.27,1.14-4.59,1.71-6.94,1.71-6.36,0-9.55-5.33-9.55-15.99,0-1.24.04-2.21.12-2.91ZM772.25,103.01l-1.18.37c-2.97.83-5.12,1.24-6.45,1.24-1.61,0-2.42-.41-2.42-1.24,0-.29.33-1.05.99-2.29,2.31-3.51,3.47-6.82,3.47-9.92,0-1.78-.31-3.4-.93-4.87-.62-1.47-1.3-2.2-2.05-2.2-.66,0-1.67.7-3.04,2.11-3.84,4.17-6.89,8.45-9.14,12.83-2.25,4.38-3.38,8.29-3.38,11.71,0,2.27.46,4.15,1.39,5.64.93,1.49,2.1,2.23,3.5,2.23,1.2,0,3.44-1.28,6.73-3.84,3.29-2.56,6.97-5.95,11.06-10.17l1.67-1.36-.25-.25Z"/>
        <path d="M829.59,88.88c1.65-4.67,3.04-9.56,4.15-14.66,1.12-5.1,1.67-9.02,1.67-11.75,0-.74-.21-1.12-.62-1.12-.66,0-1.82,1.48-3.47,4.43-1.65,2.96-3.04,5.96-4.15,9.02-2.4,6.74-4.25,12.33-5.55,16.77-1.3,4.44-2.2,8.17-2.7,11.19-.5,3.02-.74,6.1-.74,9.24,0,2.69.3,4.65.9,5.89.6,1.24,1.56,1.86,2.88,1.86,2.27,0,4.81-1,7.62-3.01,2.81-2,5.35-4.64,7.62-7.9,1.78-2.44,3.16-3.66,4.15-3.66,1.28,0,1.92,1.01,1.92,3.04,0,4.42-1.38,8.74-4.15,12.96-2.77,4.22-6.33,7.64-10.69,10.26-4.36,2.62-8.81,3.94-13.36,3.94-5.58,0-10.12-1.76-13.64-5.27-3.51-3.51-5.27-8.1-5.27-13.76,0-4.63.99-10.05,2.98-16.27,1.98-6.22,4.64-12.48,7.96-18.78,3.33-6.3,6.97-12.01,10.94-17.14,3.97-5.12,7.89-9.05,11.78-11.78,2.4-1.78,5.06-2.67,8-2.67,2.23,0,4.26.69,6.08,2.08,1.82,1.38,3.22,3.32,4.21,5.8s1.49,5.23,1.49,8.24c0,6.49-1.27,12.83-3.81,19.03-2.54,6.2-6.09,11.57-10.63,16.12-2.15,2.19-4.22,3.91-6.2,5.15-1.98,1.24-3.72,1.86-5.21,1.86s-2.17-.56-2.17-1.67c0-.62.54-1.8,1.61-3.53,1.45-2.27,3.14-5.7,5.08-10.29.17-.45.35-.94.56-1.46s.45-1.23.74-2.14Z"/>
        <path d="M866.04,75.3l.25-.74c2.73-7.69,5.09-13.1,7.08-16.24.95-1.49,2.28-2.81,3.97-3.97,3.19-2.02,6.19-3.04,9-3.04,1.65,0,2.92.37,3.79,1.12.87.75,1.3,1.82,1.3,3.23,0,.95-.62,2.89-1.87,5.82-2.12,4.88-3.7,9.44-4.74,13.7.7.08,1.39.21,2.05.37,2.48.37,4.12.8,4.9,1.27s1.18,1.33,1.18,2.57c0,2.19-.56,4.22-1.67,6.08-1.12,1.86-2.58,3.22-4.4,4.09-1.36.62-3.57,1.03-6.63,1.24-.53,1.61-1.12,3.82-1.78,6.64-.37,2.48-.78,5.91-1.23,10.29-.25,1.61-.37,3.12-.37,4.52,0,6.52,3.16,9.79,9.49,9.79h.56c.74,0,1.12.12,1.12.37,0,.66-.7,1.78-2.11,3.35-1.41,1.57-2.96,2.96-4.65,4.15-1.82,1.24-3.8,2.23-5.96,2.98-2.15.74-4.1,1.12-5.84,1.12-4.35,0-7.88-1.47-10.59-4.4-2.71-2.93-4.07-6.82-4.07-11.65,0-2.07.36-4.77,1.08-8.12.72-3.35,1.85-7.83,3.38-13.45.25-.99.52-2.03.81-3.13.29-1.09.45-1.75.5-1.95-1.65-.04-2.83-.39-3.53-1.05-.7-.66-1.05-1.74-1.05-3.22,0-2.6,1-5.06,3.01-7.38,2-2.31,4.35-3.76,7.04-4.34Z"/>
      </g>
      <g>
        <path class="cls-2" d="M80.7,68.87l26.72-28.9c7.36-7.12,13.07-12.4,17.1-15.83,4.03-3.43,9.03-7.08,15-10.95,10.44-7.04,19.95-10.56,28.54-10.56,6.49,0,9.73,2.42,9.73,7.24,0,3.69-.88,7.37-2.63,11.06-1.76,3.69-4.13,7.03-7.11,10.01-5.36,5.35-15.63,12.64-30.82,21.86-11.41,7.02-20.37,13.21-26.87,18.57,1.06,6.5,2.22,12.36,3.5,17.58,1.28,5.22,2.7,9.83,4.28,13.83,1.58,4,3.82,8.81,6.71,14.42,3.24,6.32,6.75,12.12,10.53,17.39,9.48,12.82,18.92,21.25,28.32,25.29,2.9,1.41,4.35,2.68,4.35,3.82,0,2.2-1.54,4.61-4.62,7.24-4.05,4.21-8.95,7.46-14.71,9.75-5.76,2.28-11.59,3.43-17.48,3.43-10.73,0-20.36-2.82-28.89-8.47-8.53-5.64-15.06-13.57-19.58-23.77-5.22-11.52-8.61-25.49-10.16-41.91-.35-2.81-.52-5.93-.52-9.35h-.53c-3.6,5.18-6.2,9.37-7.78,12.58-1.58,3.21-4.04,8.98-7.38,17.32-3.96,10.63-7.6,18.81-10.94,24.56-3.34,5.75-7.16,10.43-11.47,14.03-4.04,3.51-8.53,6.45-13.45,8.82-4.92,2.37-9,3.56-12.26,3.56-2.37,0-4.35-.9-5.93-2.7-1.58-1.8-2.37-3.97-2.37-6.52,0-1.58.09-2.81.26-3.69,4.13-16.59,8.63-33.43,13.5-50.51,4.87-17.08,9.85-33.19,14.95-48.33,5.09-15.15,9.79-27.99,14.1-38.52,4.31-10.54,7.65-17.25,10.03-20.15,2.82-3.25,6.99-5.9,12.53-7.97,5.54-2.06,11.3-3.09,17.28-3.09,5.45,0,9.32.73,11.61,2.18,2.29,1.45,3.43,3.85,3.43,7.19,0,4.58-4.65,19.7-13.96,45.39-.62,1.85-1.65,4.73-3.09,8.64-1.45,3.91-2.48,6.8-3.1,8.64l.53.66,2.63-3.83Z"/>
        <path class="cls-2" d="M176.17,135.86c-1.86-.12-3.55-.97-5.08-2.54-1.53-1.65-2.61-3.44-3.25-5.36-.64-1.92-.96-4.41-.96-7.47,0-6.82,1.27-14.51,3.81-23.09s5.42-14.78,8.65-18.63c1.28-1.61,3.06-2.42,5.33-2.42,2.4,0,4.33,1.1,5.79,3.29,1.47,2.19,2.2,5.06,2.2,8.62,0,5.25-.76,11.39-2.27,18.44s-3.63,14.37-6.37,21.97c-1.07,3.06-2.39,5.13-3.96,6.2-1.07.66-2.33.99-3.78.99h-.12ZM183.62,73.57c-3.88-.12-5.83-2.46-5.83-7,0-2.27.57-4.91,1.7-7.9,1.14-3,2.43-5.22,3.87-6.66.74-.78,1.5-1.34,2.26-1.67.76-.33,1.75-.5,2.94-.5,2.07,0,3.58.51,4.56,1.52.97,1.01,1.46,2.7,1.46,5.05,0,2.94-.51,5.71-1.52,8.34-1.01,2.62-2.37,4.75-4.06,6.38-1.69,1.63-3.43,2.45-5.21,2.45h-.19Z"/>
        <path class="cls-2" d="M217.28,137.91c2.44-.12,4.66-1.31,6.66-3.56,2-2.25,3.01-4.7,3.01-7.35,0-1.82-.6-3.26-1.8-4.34-1.28-1.28-4.15-2.54-8.62-3.78-6.57-1.9-10.85-4.03-12.83-6.38-1.86-1.9-2.79-4.17-2.79-6.82,0-4.75,1.72-9.5,5.18-14.26,3.45-4.75,7.86-8.65,13.23-11.68,5.37-3.04,10.79-4.56,16.24-4.56,2.64,0,5.12.62,7.44,1.86,2.31,1.24,4.15,2.88,5.52,4.93,1.36,2.05,2.05,4.27,2.05,6.66s-.74,4.79-2.23,7.31c-1.49,2.52-3.36,4.62-5.61,6.29-2.25,1.67-4.39,2.51-6.42,2.51-1.16,0-2.16-.25-3.01-.74-.85-.5-1.27-1.03-1.27-1.61s.17-1.43.5-2.54c.91-3.55,1.36-6.65,1.36-9.3s-.79-5.06-2.36-7.38c-2.03,1.4-3.35,2.52-3.97,3.34-1.57,1.82-2.79,3.88-3.66,6.19-.95,2.35-1.43,4.58-1.43,6.69,0,1.49.34,2.67,1.03,3.56.68.89,1.8,1.64,3.35,2.26,1.55.62,3.89,1.3,7.03,2.05,5.25,1.28,8.94,2.52,11.09,3.72.5.29,1.26.89,2.29,1.8,1.57,1.7,2.35,3.89,2.35,6.57,0,2.85-.89,5.74-2.67,8.65-1.78,2.92-4.52,5.92-8.24,9.02-3.97,3.35-7.91,5.75-11.84,7.19-3.93,1.45-8.27,2.17-13.02,2.17s-8.19-.91-10.82-2.73c-2.62-1.82-3.94-4.3-3.94-7.44,0-2.23.87-4.49,2.6-6.79,1.74-2.29,3.89-4.16,6.48-5.61,2.58-1.45,5.11-2.17,7.59-2.17,1.86,0,2.79.41,2.79,1.24,0,.41-.27,1.09-.81,2.04-1.61,2.89-2.42,5.56-2.42,8,0,1.74.64,3.39,1.92,4.96Z"/>
        <path class="cls-2" d="M274.19,137.91c2.44-.12,4.66-1.31,6.66-3.56,2-2.25,3.01-4.7,3.01-7.35,0-1.82-.6-3.26-1.8-4.34-1.28-1.28-4.15-2.54-8.62-3.78-6.57-1.9-10.85-4.03-12.83-6.38-1.86-1.9-2.79-4.17-2.79-6.82,0-4.75,1.72-9.5,5.18-14.26,3.45-4.75,7.86-8.65,13.23-11.68,5.37-3.04,10.79-4.56,16.24-4.56,2.64,0,5.12.62,7.44,1.86,2.31,1.24,4.15,2.88,5.52,4.93,1.36,2.05,2.05,4.27,2.05,6.66s-.74,4.79-2.23,7.31c-1.49,2.52-3.36,4.62-5.61,6.29-2.25,1.67-4.39,2.51-6.42,2.51-1.16,0-2.16-.25-3.01-.74-.85-.5-1.27-1.03-1.27-1.61s.17-1.43.5-2.54c.91-3.55,1.36-6.65,1.36-9.3s-.79-5.06-2.36-7.38c-2.03,1.4-3.35,2.52-3.97,3.34-1.57,1.82-2.79,3.88-3.66,6.19-.95,2.35-1.43,4.58-1.43,6.69,0,1.49.34,2.67,1.03,3.56.68.89,1.8,1.64,3.35,2.26,1.55.62,3.89,1.3,7.03,2.05,5.25,1.28,8.94,2.52,11.09,3.72.5.29,1.26.89,2.29,1.8,1.57,1.7,2.35,3.89,2.35,6.57,0,2.85-.89,5.74-2.67,8.65-1.78,2.92-4.52,5.92-8.24,9.02-3.97,3.35-7.91,5.75-11.84,7.19-3.93,1.45-8.27,2.17-13.02,2.17s-8.19-.91-10.82-2.73c-2.62-1.82-3.94-4.3-3.94-7.44,0-2.23.87-4.49,2.6-6.79,1.74-2.29,3.89-4.16,6.48-5.61,2.58-1.45,5.11-2.17,7.59-2.17,1.86,0,2.79.41,2.79,1.24,0,.41-.27,1.09-.81,2.04-1.61,2.89-2.42,5.56-2.42,8,0,1.74.64,3.39,1.92,4.96Z"/>
        <path class="cls-2" d="M413.97,112.81l-16.92,17.36c-2.19,2.19-3.96,3.69-5.3,4.49-1.34.81-2.82,1.21-4.43,1.21-2.52,0-4.64-.94-6.35-2.82-1.72-1.88-2.57-4.18-2.57-6.91,0-1.69.26-3.54.77-5.55.52-2,1.54-4.99,3.07-8.96.29-.83.57-1.54.84-2.14.27-.6.49-1.1.65-1.52l-.25-.25c-4.01,4.22-7.93,8.66-11.78,13.33-3.22,3.84-5.79,6.72-7.69,8.62s-3.62,3.33-5.15,4.28c-1.53.95-2.89,1.43-4.09,1.43-2.69,0-4.81-1.05-6.38-3.16-1.57-2.11-2.36-4.98-2.36-8.62,0-4.59,1.98-12,5.95-22.25,3.55-9.09,6.3-15.19,8.24-18.29,2.85-4.3,6.11-6.45,9.79-6.45,2.23,0,4.08.53,5.54,1.58s2.2,2.43,2.2,4.12c0,3.1-1.17,7.83-3.52,14.19-.91,2.35-1.83,5.02-2.78,7.99l.25.25c1.53-1.69,3.98-4.6,7.37-8.74,5.82-7.19,10.22-12.08,13.2-14.68,3.84-3.55,7.36-5.33,10.54-5.33,1.41,0,2.75.48,4.03,1.43s2.3,2.22,3.07,3.81c.77,1.59,1.15,3.25,1.15,4.99s-1.28,6.33-3.83,13.64c-.54,1.53-.95,2.73-1.23,3.6-.29.87-.56,1.61-.8,2.23l.31.25c.58-.58,1.09-1.09,1.55-1.55.45-.46.96-.94,1.52-1.46.56-.52,1.08-1,1.58-1.46,1.11-1.08,3.92-3.91,8.42-8.5,2.97-3.31,5.3-5.57,7-6.79,1.69-1.22,3.33-1.83,4.9-1.83,2.56,0,4.51.88,5.86,2.63,1.34,1.76,2.01,4.35,2.01,7.78,0,2.11-.33,5.43-.99,9.98-.58,5.12-.98,9.14-1.21,12.06-.23,2.91-.34,4.95-.34,6.11,0,.87.05,1.97.16,3.32.1,1.34.28,2.78.53,4.31.25,1.53.58,3.22.99,5.08.5,2.27.83,4.05.99,5.33-.33,1.49-1.42,2.75-3.25,3.78-1.84,1.03-3.83,1.55-5.98,1.55-3.39,0-6.57-1.53-9.55-4.59-1.32-1.41-2.35-2.82-3.07-4.25-.72-1.43-1.24-3.12-1.55-5.08-.31-1.96-.46-4.56-.46-7.78,0-2.11.25-6.47.74-13.08l-.25-.25-1.12,1.55Z"/>
        <path class="cls-2" d="M483.93,92.72l.81-2.67c1.08-4.13,2.71-7.31,4.9-9.55,1.41-1.4,3.02-2.56,4.84-3.47,1.82-.91,3.47-1.36,4.96-1.36,2.73,0,4.09,1.16,4.09,3.47,0,1.16-.37,2.96-1.12,5.39s-1.73,5.2-2.95,8.28c-1.22,3.08-2.65,6.46-4.28,10.13-1.64,3.68-3.44,7.46-5.43,11.34-3.6,7.36-7.24,13.58-10.92,18.66-2.65,3.64-5.34,6.86-8.07,9.67-2.73,2.81-5.6,5.33-8.59,7.56-3,2.23-5.83,3.92-8.5,5.05-2.67,1.14-5.12,1.7-7.35,1.7-1.86,0-2.79-.81-2.79-2.42,0-1.28.29-2.81.87-4.59.58-1.78,1.39-3.45,2.42-5.02,1.12-1.49,2.52-2.81,4.22-3.97,2.15-1.49,5.32-3.18,9.5-5.08-2.49-4.17-4.37-7.48-5.65-9.92-1.28-2.44-2.69-5.48-4.22-9.11-3.4-8.06-5.09-15.37-5.09-21.94,0-5,.62-9.07,1.86-12.21,1.12-2.69,3.16-4.59,6.14-5.7,2.4-.95,4.55-1.43,6.45-1.43,2.69,0,4.49,1.02,5.42,3.07.93,2.04,1.75,6.83,2.45,14.35.75,8.06,1.96,16.01,3.62,23.87.29,1.2.62,2.85,1,4.96h.25c1.12-2.44,2.34-5.39,3.66-8.86.41-.99,1.86-4.65,4.34-10.97,1.41-3.8,2.46-6.88,3.16-9.24Z"/>
        <path class="cls-2" d="M572.35,59.68l-3.78-6.82c.95-.74,1.84-1.26,2.66-1.55,3.18-1.07,7.02-1.61,11.52-1.61s8.05,1.3,10.53,3.91c2.15,2.27,3.9,5.46,5.27,9.55,1.36,4.09,2.62,9.92,3.78,17.48.62,3.84,1.16,6.74,1.61,8.68,1.45,5.41,2.41,8.87,2.89,10.38.48,1.51,1.33,3.92,2.58,7.22.41.95.96,2.28,1.64,4,.68,1.72,1.33,3.32,1.95,4.8,1.36,3.22,3.43,7.48,6.2,12.77-3.47,2.44-6.4,4.2-8.8,5.27-2.4,1.07-4.59,1.61-6.57,1.61-2.44,0-4.47-.47-6.1-1.43-1.63-.95-3.11-2.46-4.43-4.53-1.57-2.81-3.14-6.63-4.71-11.47-.17-.46-.36-1.03-.59-1.74-.23-.7-.49-1.47-.78-2.29-4.85,2.03-8.63,3.04-11.32,3.04-1.54,0-2.86-.04-3.98-.12-.96-.08-5.37-.21-13.25-.37l-.57,1.21c-2.28,4.85-4.41,8.54-6.4,11.06-1.98,2.52-4.27,4.3-6.85,5.33-2.58,1.03-5.82,1.55-9.7,1.55-2.23,0-3.82-.25-4.77-.74-.95-.5-1.43-1.3-1.43-2.42,0-1.36,2.27-5.12,6.82-11.28,1.61-2.15,2.81-3.84,3.59-5.08-4.34-.83-6.51-2.36-6.51-4.59,0-1.82,1.74-4.52,5.21-8.12,1.65-1.74,3.19-2.84,4.62-3.32,1.43-.47,3.92-.73,7.47-.77,3.31-6.08,5.41-9.95,6.32-11.62s2.09-3.78,3.53-6.32c1.45-2.54,3.09-5.43,4.93-8.68,1.84-3.24,4.31-7.57,7.41-12.99ZM577.69,76.02l-11.32,24.08h16.75l-5.19-24.08h-.25Z"/>
        <path class="cls-2" d="M641.03,137.91c2.44-.12,4.66-1.31,6.66-3.56,2-2.25,3.01-4.7,3.01-7.35,0-1.82-.6-3.26-1.8-4.34-1.28-1.28-4.15-2.54-8.62-3.78-6.57-1.9-10.85-4.03-12.83-6.38-1.86-1.9-2.79-4.17-2.79-6.82,0-4.75,1.72-9.5,5.18-14.26,3.45-4.75,7.86-8.65,13.23-11.68,5.37-3.04,10.79-4.56,16.24-4.56,2.64,0,5.12.62,7.44,1.86,2.31,1.24,4.15,2.88,5.52,4.93,1.36,2.05,2.05,4.27,2.05,6.66s-.74,4.79-2.23,7.31c-1.49,2.52-3.36,4.62-5.61,6.29-2.25,1.67-4.39,2.51-6.42,2.51-1.16,0-2.16-.25-3.01-.74s-1.27-1.03-1.27-1.61.17-1.43.5-2.54c.91-3.55,1.36-6.65,1.36-9.3s-.79-5.06-2.36-7.38c-2.02,1.4-3.35,2.52-3.97,3.34-1.57,1.82-2.79,3.88-3.66,6.19-.95,2.35-1.43,4.58-1.43,6.69,0,1.49.34,2.67,1.03,3.56.68.89,1.8,1.64,3.35,2.26,1.55.62,3.89,1.3,7.03,2.05,5.25,1.28,8.95,2.52,11.09,3.72.5.29,1.26.89,2.29,1.8,1.57,1.7,2.35,3.89,2.35,6.57,0,2.85-.89,5.74-2.67,8.65-1.78,2.92-4.53,5.92-8.25,9.02-3.97,3.35-7.91,5.75-11.84,7.19-3.93,1.45-8.27,2.17-13.02,2.17s-8.19-.91-10.82-2.73c-2.62-1.82-3.94-4.3-3.94-7.44,0-2.23.87-4.49,2.6-6.79,1.74-2.29,3.89-4.16,6.48-5.61,2.58-1.45,5.11-2.17,7.59-2.17,1.86,0,2.79.41,2.79,1.24,0,.41-.27,1.09-.81,2.04-1.61,2.89-2.42,5.56-2.42,8,0,1.74.64,3.39,1.92,4.96Z"/>
        <path class="cls-2" d="M702.25,121.91l-.12,3.41c-.58,8.22-1.32,14.92-2.23,20.09-.91,5.17-1.94,8.33-3.1,9.48-1.57,1.69-4.03,2.54-7.37,2.54-3.59,0-6.17-.7-7.74-2.11-.62-.7-1.03-1.34-1.24-1.92-.21-.58-.31-1.63-.31-3.16v-1.92c.12-11.61,1.24-23.29,3.35-35.02,2.11-11.74,4.9-22.43,8.37-32.08,3.47-9.65,7.27-17.29,11.41-22.94,4.13-5.64,8.24-8.46,12.33-8.46,1.86,0,3.25.63,4.18,1.89.93,1.26,1.39,3.07,1.39,5.42,0,3.51-.37,7.24-1.12,11.19-.74,3.95-1.64,7.16-2.7,9.64-1.05,2.48-2.12,3.72-3.19,3.72-.99,0-1.49-1.74-1.49-5.21v-1.92c0-3.47-.07-5.74-.21-6.82-.14-1.07-.46-1.8-.95-2.17-.45.91-.78,1.96-.98,3.16-1,4.96-1.82,9.44-2.44,13.45-.63,4.01-1.57,10.52-2.82,19.52-.04.5-.1,1.05-.19,1.67-.08.62-.15,1.18-.19,1.67h.87c.5-.04.95-.07,1.37-.09.42-.02,1.06-.03,1.93-.03,1.57-.21,2.98-.31,4.23-.31,4.93,0,7.39,1.28,7.39,3.84,0,1.32-.47,2.92-1.4,4.8s-2.04,3.44-3.32,4.68c-1.28,1.24-2.74,2.14-4.38,2.7-1.63.56-3.98.94-7.04,1.15-.66,0-1.13.01-1.4.03-.27.02-.57.05-.9.09Z"/>
        <path class="cls-2" d="M768.54,117.21v.25l-.25-.25c-3.84,4.5-7.37,8.19-10.57,11.06-3.2,2.87-6.16,5.03-8.86,6.48-2.71,1.45-5.2,2.17-7.47,2.17-4.63,0-8.45-1.55-11.47-4.65s-4.53-7.02-4.53-11.78c0-2.93.74-6.41,2.23-10.41,1.49-4.01,3.53-7.93,6.14-11.78,4.34-6.28,9.79-11.61,16.36-15.99,6.78-4.5,13.31-6.76,19.59-6.76,5.29,0,9.64,1.08,13.05,3.25,3.41,2.17,5.11,4.91,5.11,8.21,0,2.44-.85,5.02-2.54,7.75,2.23,0,3.64.24,4.21.71.58.48.87,1.58.87,3.32,0-.17-.1.68-.31,2.54-.25,4.09-.37,7.91-.37,11.47,0,1.86.02,3.26.06,4.21.04.95.12,2.05.25,3.29.12,1.24.25,2.23.37,2.97.33,1.94.87,3.87,1.61,5.77-2.48,2.44-4.86,4.23-7.13,5.36-2.27,1.14-4.59,1.71-6.94,1.71-6.36,0-9.55-5.33-9.55-15.99,0-1.24.04-2.21.12-2.91ZM772.25,103.01l-1.18.37c-2.97.83-5.12,1.24-6.45,1.24-1.61,0-2.42-.41-2.42-1.24,0-.29.33-1.05.99-2.29,2.31-3.51,3.47-6.82,3.47-9.92,0-1.78-.31-3.4-.93-4.87-.62-1.47-1.3-2.2-2.05-2.2-.66,0-1.67.7-3.04,2.11-3.84,4.17-6.89,8.45-9.14,12.83-2.25,4.38-3.38,8.29-3.38,11.71,0,2.27.46,4.15,1.39,5.64.93,1.49,2.1,2.23,3.5,2.23,1.2,0,3.44-1.28,6.73-3.84,3.29-2.56,6.97-5.95,11.06-10.17l1.67-1.36-.25-.25Z"/>
        <path class="cls-2" d="M829.59,88.88c1.65-4.67,3.04-9.56,4.15-14.66,1.12-5.1,1.67-9.02,1.67-11.75,0-.74-.21-1.12-.62-1.12-.66,0-1.82,1.48-3.47,4.43-1.65,2.96-3.04,5.96-4.15,9.02-2.4,6.74-4.25,12.33-5.55,16.77-1.3,4.44-2.2,8.17-2.7,11.19-.5,3.02-.74,6.1-.74,9.24,0,2.69.3,4.65.9,5.89.6,1.24,1.56,1.86,2.88,1.86,2.27,0,4.81-1,7.62-3.01,2.81-2,5.35-4.64,7.62-7.9,1.78-2.44,3.16-3.66,4.15-3.66,1.28,0,1.92,1.01,1.92,3.04,0,4.42-1.38,8.74-4.15,12.96-2.77,4.22-6.33,7.64-10.69,10.26-4.36,2.62-8.81,3.94-13.36,3.94-5.58,0-10.12-1.76-13.64-5.27-3.51-3.51-5.27-8.1-5.27-13.76,0-4.63.99-10.05,2.98-16.27,1.98-6.22,4.64-12.48,7.96-18.78,3.33-6.3,6.97-12.01,10.94-17.14,3.97-5.12,7.89-9.05,11.78-11.78,2.4-1.78,5.06-2.67,8-2.67,2.23,0,4.26.69,6.08,2.08,1.82,1.38,3.22,3.32,4.21,5.8s1.49,5.23,1.49,8.24c0,6.49-1.27,12.83-3.81,19.03-2.54,6.2-6.09,11.57-10.63,16.12-2.15,2.19-4.22,3.91-6.2,5.15-1.98,1.24-3.72,1.86-5.21,1.86s-2.17-.56-2.17-1.67c0-.62.54-1.8,1.61-3.53,1.45-2.27,3.14-5.7,5.08-10.29.17-.45.35-.94.56-1.46s.45-1.23.74-2.14Z"/>
        <path class="cls-2" d="M866.04,75.3l.25-.74c2.73-7.69,5.09-13.1,7.08-16.24.95-1.49,2.28-2.81,3.97-3.97,3.19-2.02,6.19-3.04,9-3.04,1.65,0,2.92.37,3.79,1.12.87.75,1.3,1.82,1.3,3.23,0,.95-.62,2.89-1.87,5.82-2.12,4.88-3.7,9.44-4.74,13.7.7.08,1.39.21,2.05.37,2.48.37,4.12.8,4.9,1.27s1.18,1.33,1.18,2.57c0,2.19-.56,4.22-1.67,6.08-1.12,1.86-2.58,3.22-4.4,4.09-1.36.62-3.57,1.03-6.63,1.24-.53,1.61-1.12,3.82-1.78,6.64-.37,2.48-.78,5.91-1.23,10.29-.25,1.61-.37,3.12-.37,4.52,0,6.52,3.16,9.79,9.49,9.79h.56c.74,0,1.12.12,1.12.37,0,.66-.7,1.78-2.11,3.35-1.41,1.57-2.96,2.96-4.65,4.15-1.82,1.24-3.8,2.23-5.96,2.98-2.15.74-4.1,1.12-5.84,1.12-4.35,0-7.88-1.47-10.59-4.4-2.71-2.93-4.07-6.82-4.07-11.65,0-2.07.36-4.77,1.08-8.12.72-3.35,1.85-7.83,3.38-13.45.25-.99.52-2.03.81-3.13.29-1.09.45-1.75.5-1.95-1.65-.04-2.83-.39-3.53-1.05-.7-.66-1.05-1.74-1.05-3.22,0-2.6,1-5.06,3.01-7.38,2-2.31,4.35-3.76,7.04-4.34Z"/>
      </g>
      <g>
        <path class="cls-1" d="M80.7,68.87l26.72-28.9c7.36-7.12,13.07-12.4,17.1-15.83,4.03-3.43,9.03-7.08,15-10.95,10.44-7.04,19.95-10.56,28.54-10.56,6.49,0,9.73,2.42,9.73,7.24,0,3.69-.88,7.37-2.63,11.06-1.76,3.69-4.13,7.03-7.11,10.01-5.36,5.35-15.63,12.64-30.82,21.86-11.41,7.02-20.37,13.21-26.87,18.57,1.06,6.5,2.22,12.36,3.5,17.58,1.28,5.22,2.7,9.83,4.28,13.83,1.58,4,3.82,8.81,6.71,14.42,3.24,6.32,6.75,12.12,10.53,17.39,9.48,12.82,18.92,21.25,28.32,25.29,2.9,1.41,4.35,2.68,4.35,3.82,0,2.2-1.54,4.61-4.62,7.24-4.05,4.21-8.95,7.46-14.71,9.75-5.76,2.28-11.59,3.43-17.48,3.43-10.73,0-20.36-2.82-28.89-8.47-8.53-5.64-15.06-13.57-19.58-23.77-5.22-11.52-8.61-25.49-10.16-41.91-.35-2.81-.52-5.93-.52-9.35h-.53c-3.6,5.18-6.2,9.37-7.78,12.58-1.58,3.21-4.04,8.98-7.38,17.32-3.96,10.63-7.6,18.81-10.94,24.56-3.34,5.75-7.16,10.43-11.47,14.03-4.04,3.51-8.53,6.45-13.45,8.82-4.92,2.37-9,3.56-12.26,3.56-2.37,0-4.35-.9-5.93-2.7-1.58-1.8-2.37-3.97-2.37-6.52,0-1.58.09-2.81.26-3.69,4.13-16.59,8.63-33.43,13.5-50.51,4.87-17.08,9.85-33.19,14.95-48.33,5.09-15.15,9.79-27.99,14.1-38.52,4.31-10.54,7.65-17.25,10.03-20.15,2.82-3.25,6.99-5.9,12.53-7.97,5.54-2.06,11.3-3.09,17.28-3.09,5.45,0,9.32.73,11.61,2.18,2.29,1.45,3.43,3.85,3.43,7.19,0,4.58-4.65,19.7-13.96,45.39-.62,1.85-1.65,4.73-3.09,8.64-1.45,3.91-2.48,6.8-3.1,8.64l.53.66,2.63-3.83Z"/>
        <path class="cls-1" d="M176.17,135.86c-1.86-.12-3.55-.97-5.08-2.54-1.53-1.65-2.61-3.44-3.25-5.36-.64-1.92-.96-4.41-.96-7.47,0-6.82,1.27-14.51,3.81-23.09s5.42-14.78,8.65-18.63c1.28-1.61,3.06-2.42,5.33-2.42,2.4,0,4.33,1.1,5.79,3.29,1.47,2.19,2.2,5.06,2.2,8.62,0,5.25-.76,11.39-2.27,18.44s-3.63,14.37-6.37,21.97c-1.07,3.06-2.39,5.13-3.96,6.2-1.07.66-2.33.99-3.78.99h-.12ZM183.62,73.57c-3.88-.12-5.83-2.46-5.83-7,0-2.27.57-4.91,1.7-7.9,1.14-3,2.43-5.22,3.87-6.66.74-.78,1.5-1.34,2.26-1.67.76-.33,1.75-.5,2.94-.5,2.07,0,3.58.51,4.56,1.52.97,1.01,1.46,2.7,1.46,5.05,0,2.94-.51,5.71-1.52,8.34-1.01,2.62-2.37,4.75-4.06,6.38-1.69,1.63-3.43,2.45-5.21,2.45h-.19Z"/>
        <path class="cls-1" d="M217.28,137.91c2.44-.12,4.66-1.31,6.66-3.56,2-2.25,3.01-4.7,3.01-7.35,0-1.82-.6-3.26-1.8-4.34-1.28-1.28-4.15-2.54-8.62-3.78-6.57-1.9-10.85-4.03-12.83-6.38-1.86-1.9-2.79-4.17-2.79-6.82,0-4.75,1.72-9.5,5.18-14.26,3.45-4.75,7.86-8.65,13.23-11.68,5.37-3.04,10.79-4.56,16.24-4.56,2.64,0,5.12.62,7.44,1.86,2.31,1.24,4.15,2.88,5.52,4.93,1.36,2.05,2.05,4.27,2.05,6.66s-.74,4.79-2.23,7.31c-1.49,2.52-3.36,4.62-5.61,6.29-2.25,1.67-4.39,2.51-6.42,2.51-1.16,0-2.16-.25-3.01-.74-.85-.5-1.27-1.03-1.27-1.61s.17-1.43.5-2.54c.91-3.55,1.36-6.65,1.36-9.3s-.79-5.06-2.36-7.38c-2.03,1.4-3.35,2.52-3.97,3.34-1.57,1.82-2.79,3.88-3.66,6.19-.95,2.35-1.43,4.58-1.43,6.69,0,1.49.34,2.67,1.03,3.56.68.89,1.8,1.64,3.35,2.26,1.55.62,3.89,1.3,7.03,2.05,5.25,1.28,8.94,2.52,11.09,3.72.5.29,1.26.89,2.29,1.8,1.57,1.7,2.35,3.89,2.35,6.57,0,2.85-.89,5.74-2.67,8.65-1.78,2.92-4.52,5.92-8.24,9.02-3.97,3.35-7.91,5.75-11.84,7.19-3.93,1.45-8.27,2.17-13.02,2.17s-8.19-.91-10.82-2.73c-2.62-1.82-3.94-4.3-3.94-7.44,0-2.23.87-4.49,2.6-6.79,1.74-2.29,3.89-4.16,6.48-5.61,2.58-1.45,5.11-2.17,7.59-2.17,1.86,0,2.79.41,2.79,1.24,0,.41-.27,1.09-.81,2.04-1.61,2.89-2.42,5.56-2.42,8,0,1.74.64,3.39,1.92,4.96Z"/>
        <path class="cls-1" d="M274.19,137.91c2.44-.12,4.66-1.31,6.66-3.56,2-2.25,3.01-4.7,3.01-7.35,0-1.82-.6-3.26-1.8-4.34-1.28-1.28-4.15-2.54-8.62-3.78-6.57-1.9-10.85-4.03-12.83-6.38-1.86-1.9-2.79-4.17-2.79-6.82,0-4.75,1.72-9.5,5.18-14.26,3.45-4.75,7.86-8.65,13.23-11.68,5.37-3.04,10.79-4.56,16.24-4.56,2.64,0,5.12.62,7.44,1.86,2.31,1.24,4.15,2.88,5.52,4.93,1.36,2.05,2.05,4.27,2.05,6.66s-.74,4.79-2.23,7.31c-1.49,2.52-3.36,4.62-5.61,6.29-2.25,1.67-4.39,2.51-6.42,2.51-1.16,0-2.16-.25-3.01-.74-.85-.5-1.27-1.03-1.27-1.61s.17-1.43.5-2.54c.91-3.55,1.36-6.65,1.36-9.3s-.79-5.06-2.36-7.38c-2.03,1.4-3.35,2.52-3.97,3.34-1.57,1.82-2.79,3.88-3.66,6.19-.95,2.35-1.43,4.58-1.43,6.69,0,1.49.34,2.67,1.03,3.56.68.89,1.8,1.64,3.35,2.26,1.55.62,3.89,1.3,7.03,2.05,5.25,1.28,8.94,2.52,11.09,3.72.5.29,1.26.89,2.29,1.8,1.57,1.7,2.35,3.89,2.35,6.57,0,2.85-.89,5.74-2.67,8.65-1.78,2.92-4.52,5.92-8.24,9.02-3.97,3.35-7.91,5.75-11.84,7.19-3.93,1.45-8.27,2.17-13.02,2.17s-8.19-.91-10.82-2.73c-2.62-1.82-3.94-4.3-3.94-7.44,0-2.23.87-4.49,2.6-6.79,1.74-2.29,3.89-4.16,6.48-5.61,2.58-1.45,5.11-2.17,7.59-2.17,1.86,0,2.79.41,2.79,1.24,0,.41-.27,1.09-.81,2.04-1.61,2.89-2.42,5.56-2.42,8,0,1.74.64,3.39,1.92,4.96Z"/>
        <path class="cls-1" d="M413.97,112.81l-16.92,17.36c-2.19,2.19-3.96,3.69-5.3,4.49-1.34.81-2.82,1.21-4.43,1.21-2.52,0-4.64-.94-6.35-2.82-1.72-1.88-2.57-4.18-2.57-6.91,0-1.69.26-3.54.77-5.55.52-2,1.54-4.99,3.07-8.96.29-.83.57-1.54.84-2.14.27-.6.49-1.1.65-1.52l-.25-.25c-4.01,4.22-7.93,8.66-11.78,13.33-3.22,3.84-5.79,6.72-7.69,8.62s-3.62,3.33-5.15,4.28c-1.53.95-2.89,1.43-4.09,1.43-2.69,0-4.81-1.05-6.38-3.16-1.57-2.11-2.36-4.98-2.36-8.62,0-4.59,1.98-12,5.95-22.25,3.55-9.09,6.3-15.19,8.24-18.29,2.85-4.3,6.11-6.45,9.79-6.45,2.23,0,4.08.53,5.54,1.58s2.2,2.43,2.2,4.12c0,3.1-1.17,7.83-3.52,14.19-.91,2.35-1.83,5.02-2.78,7.99l.25.25c1.53-1.69,3.98-4.6,7.37-8.74,5.82-7.19,10.22-12.08,13.2-14.68,3.84-3.55,7.36-5.33,10.54-5.33,1.41,0,2.75.48,4.03,1.43s2.3,2.22,3.07,3.81c.77,1.59,1.15,3.25,1.15,4.99s-1.28,6.33-3.83,13.64c-.54,1.53-.95,2.73-1.23,3.6-.29.87-.56,1.61-.8,2.23l.31.25c.58-.58,1.09-1.09,1.55-1.55.45-.46.96-.94,1.52-1.46.56-.52,1.08-1,1.58-1.46,1.11-1.08,3.92-3.91,8.42-8.5,2.97-3.31,5.3-5.57,7-6.79,1.69-1.22,3.33-1.83,4.9-1.83,2.56,0,4.51.88,5.86,2.63,1.34,1.76,2.01,4.35,2.01,7.78,0,2.11-.33,5.43-.99,9.98-.58,5.12-.98,9.14-1.21,12.06-.23,2.91-.34,4.95-.34,6.11,0,.87.05,1.97.16,3.32.1,1.34.28,2.78.53,4.31.25,1.53.58,3.22.99,5.08.5,2.27.83,4.05.99,5.33-.33,1.49-1.42,2.75-3.25,3.78-1.84,1.03-3.83,1.55-5.98,1.55-3.39,0-6.57-1.53-9.55-4.59-1.32-1.41-2.35-2.82-3.07-4.25-.72-1.43-1.24-3.12-1.55-5.08-.31-1.96-.46-4.56-.46-7.78,0-2.11.25-6.47.74-13.08l-.25-.25-1.12,1.55Z"/>
        <path class="cls-1" d="M483.93,92.72l.81-2.67c1.08-4.13,2.71-7.31,4.9-9.55,1.41-1.4,3.02-2.56,4.84-3.47,1.82-.91,3.47-1.36,4.96-1.36,2.73,0,4.09,1.16,4.09,3.47,0,1.16-.37,2.96-1.12,5.39s-1.73,5.2-2.95,8.28c-1.22,3.08-2.65,6.46-4.28,10.13-1.64,3.68-3.44,7.46-5.43,11.34-3.6,7.36-7.24,13.58-10.92,18.66-2.65,3.64-5.34,6.86-8.07,9.67-2.73,2.81-5.6,5.33-8.59,7.56-3,2.23-5.83,3.92-8.5,5.05-2.67,1.14-5.12,1.7-7.35,1.7-1.86,0-2.79-.81-2.79-2.42,0-1.28.29-2.81.87-4.59.58-1.78,1.39-3.45,2.42-5.02,1.12-1.49,2.52-2.81,4.22-3.97,2.15-1.49,5.32-3.18,9.5-5.08-2.49-4.17-4.37-7.48-5.65-9.92-1.28-2.44-2.69-5.48-4.22-9.11-3.4-8.06-5.09-15.37-5.09-21.94,0-5,.62-9.07,1.86-12.21,1.12-2.69,3.16-4.59,6.14-5.7,2.4-.95,4.55-1.43,6.45-1.43,2.69,0,4.49,1.02,5.42,3.07.93,2.04,1.75,6.83,2.45,14.35.75,8.06,1.96,16.01,3.62,23.87.29,1.2.62,2.85,1,4.96h.25c1.12-2.44,2.34-5.39,3.66-8.86.41-.99,1.86-4.65,4.34-10.97,1.41-3.8,2.46-6.88,3.16-9.24Z"/>
        <path class="cls-1" d="M572.35,59.68l-3.78-6.82c.95-.74,1.84-1.26,2.66-1.55,3.18-1.07,7.02-1.61,11.52-1.61s8.05,1.3,10.53,3.91c2.15,2.27,3.9,5.46,5.27,9.55,1.36,4.09,2.62,9.92,3.78,17.48.62,3.84,1.16,6.74,1.61,8.68,1.45,5.41,2.41,8.87,2.89,10.38.48,1.51,1.33,3.92,2.58,7.22.41.95.96,2.28,1.64,4,.68,1.72,1.33,3.32,1.95,4.8,1.36,3.22,3.43,7.48,6.2,12.77-3.47,2.44-6.4,4.2-8.8,5.27-2.4,1.07-4.59,1.61-6.57,1.61-2.44,0-4.47-.47-6.1-1.43-1.63-.95-3.11-2.46-4.43-4.53-1.57-2.81-3.14-6.63-4.71-11.47-.17-.46-.36-1.03-.59-1.74-.23-.7-.49-1.47-.78-2.29-4.85,2.03-8.63,3.04-11.32,3.04-1.54,0-2.86-.04-3.98-.12-.96-.08-5.37-.21-13.25-.37l-.57,1.21c-2.28,4.85-4.41,8.54-6.4,11.06-1.98,2.52-4.27,4.3-6.85,5.33-2.58,1.03-5.82,1.55-9.7,1.55-2.23,0-3.82-.25-4.77-.74-.95-.5-1.43-1.3-1.43-2.42,0-1.36,2.27-5.12,6.82-11.28,1.61-2.15,2.81-3.84,3.59-5.08-4.34-.83-6.51-2.36-6.51-4.59,0-1.82,1.74-4.52,5.21-8.12,1.65-1.74,3.19-2.84,4.62-3.32,1.43-.47,3.92-.73,7.47-.77,3.31-6.08,5.41-9.95,6.32-11.62s2.09-3.78,3.53-6.32c1.45-2.54,3.09-5.43,4.93-8.68,1.84-3.24,4.31-7.57,7.41-12.99ZM577.69,76.02l-11.32,24.08h16.75l-5.19-24.08h-.25Z"/>
        <path class="cls-1" d="M641.03,137.91c2.44-.12,4.66-1.31,6.66-3.56,2-2.25,3.01-4.7,3.01-7.35,0-1.82-.6-3.26-1.8-4.34-1.28-1.28-4.15-2.54-8.62-3.78-6.57-1.9-10.85-4.03-12.83-6.38-1.86-1.9-2.79-4.17-2.79-6.82,0-4.75,1.72-9.5,5.18-14.26,3.45-4.75,7.86-8.65,13.23-11.68,5.37-3.04,10.79-4.56,16.24-4.56,2.64,0,5.12.62,7.44,1.86,2.31,1.24,4.15,2.88,5.52,4.93,1.36,2.05,2.05,4.27,2.05,6.66s-.74,4.79-2.23,7.31c-1.49,2.52-3.36,4.62-5.61,6.29-2.25,1.67-4.39,2.51-6.42,2.51-1.16,0-2.16-.25-3.01-.74s-1.27-1.03-1.27-1.61.17-1.43.5-2.54c.91-3.55,1.36-6.65,1.36-9.3s-.79-5.06-2.36-7.38c-2.02,1.4-3.35,2.52-3.97,3.34-1.57,1.82-2.79,3.88-3.66,6.19-.95,2.35-1.43,4.58-1.43,6.69,0,1.49.34,2.67,1.03,3.56.68.89,1.8,1.64,3.35,2.26,1.55.62,3.89,1.3,7.03,2.05,5.25,1.28,8.95,2.52,11.09,3.72.5.29,1.26.89,2.29,1.8,1.57,1.7,2.35,3.89,2.35,6.57,0,2.85-.89,5.74-2.67,8.65-1.78,2.92-4.53,5.92-8.25,9.02-3.97,3.35-7.91,5.75-11.84,7.19-3.93,1.45-8.27,2.17-13.02,2.17s-8.19-.91-10.82-2.73c-2.62-1.82-3.94-4.3-3.94-7.44,0-2.23.87-4.49,2.6-6.79,1.74-2.29,3.89-4.16,6.48-5.61,2.58-1.45,5.11-2.17,7.59-2.17,1.86,0,2.79.41,2.79,1.24,0,.41-.27,1.09-.81,2.04-1.61,2.89-2.42,5.56-2.42,8,0,1.74.64,3.39,1.92,4.96Z"/>
        <path class="cls-1" d="M702.25,121.91l-.12,3.41c-.58,8.22-1.32,14.92-2.23,20.09-.91,5.17-1.94,8.33-3.1,9.48-1.57,1.69-4.03,2.54-7.37,2.54-3.59,0-6.17-.7-7.74-2.11-.62-.7-1.03-1.34-1.24-1.92-.21-.58-.31-1.63-.31-3.16v-1.92c.12-11.61,1.24-23.29,3.35-35.02,2.11-11.74,4.9-22.43,8.37-32.08,3.47-9.65,7.27-17.29,11.41-22.94,4.13-5.64,8.24-8.46,12.33-8.46,1.86,0,3.25.63,4.18,1.89.93,1.26,1.39,3.07,1.39,5.42,0,3.51-.37,7.24-1.12,11.19-.74,3.95-1.64,7.16-2.7,9.64-1.05,2.48-2.12,3.72-3.19,3.72-.99,0-1.49-1.74-1.49-5.21v-1.92c0-3.47-.07-5.74-.21-6.82-.14-1.07-.46-1.8-.95-2.17-.45.91-.78,1.96-.98,3.16-1,4.96-1.82,9.44-2.44,13.45-.63,4.01-1.57,10.52-2.82,19.52-.04.5-.1,1.05-.19,1.67-.08.62-.15,1.18-.19,1.67h.87c.5-.04.95-.07,1.37-.09.42-.02,1.06-.03,1.93-.03,1.57-.21,2.98-.31,4.23-.31,4.93,0,7.39,1.28,7.39,3.84,0,1.32-.47,2.92-1.4,4.8s-2.04,3.44-3.32,4.68c-1.28,1.24-2.74,2.14-4.38,2.7-1.63.56-3.98.94-7.04,1.15-.66,0-1.13.01-1.4.03-.27.02-.57.05-.9.09Z"/>
        <path class="cls-1" d="M768.54,117.21v.25l-.25-.25c-3.84,4.5-7.37,8.19-10.57,11.06-3.2,2.87-6.16,5.03-8.86,6.48-2.71,1.45-5.2,2.17-7.47,2.17-4.63,0-8.45-1.55-11.47-4.65s-4.53-7.02-4.53-11.78c0-2.93.74-6.41,2.23-10.41,1.49-4.01,3.53-7.93,6.14-11.78,4.34-6.28,9.79-11.61,16.36-15.99,6.78-4.5,13.31-6.76,19.59-6.76,5.29,0,9.64,1.08,13.05,3.25,3.41,2.17,5.11,4.91,5.11,8.21,0,2.44-.85,5.02-2.54,7.75,2.23,0,3.64.24,4.21.71.58.48.87,1.58.87,3.32,0-.17-.1.68-.31,2.54-.25,4.09-.37,7.91-.37,11.47,0,1.86.02,3.26.06,4.21.04.95.12,2.05.25,3.29.12,1.24.25,2.23.37,2.97.33,1.94.87,3.87,1.61,5.77-2.48,2.44-4.86,4.23-7.13,5.36-2.27,1.14-4.59,1.71-6.94,1.71-6.36,0-9.55-5.33-9.55-15.99,0-1.24.04-2.21.12-2.91ZM772.25,103.01l-1.18.37c-2.97.83-5.12,1.24-6.45,1.24-1.61,0-2.42-.41-2.42-1.24,0-.29.33-1.05.99-2.29,2.31-3.51,3.47-6.82,3.47-9.92,0-1.78-.31-3.4-.93-4.87-.62-1.47-1.3-2.2-2.05-2.2-.66,0-1.67.7-3.04,2.11-3.84,4.17-6.89,8.45-9.14,12.83-2.25,4.38-3.38,8.29-3.38,11.71,0,2.27.46,4.15,1.39,5.64.93,1.49,2.1,2.23,3.5,2.23,1.2,0,3.44-1.28,6.73-3.84,3.29-2.56,6.97-5.95,11.06-10.17l1.67-1.36-.25-.25Z"/>
        <path class="cls-1" d="M829.59,88.88c1.65-4.67,3.04-9.56,4.15-14.66,1.12-5.1,1.67-9.02,1.67-11.75,0-.74-.21-1.12-.62-1.12-.66,0-1.82,1.48-3.47,4.43-1.65,2.96-3.04,5.96-4.15,9.02-2.4,6.74-4.25,12.33-5.55,16.77-1.3,4.44-2.2,8.17-2.7,11.19-.5,3.02-.74,6.1-.74,9.24,0,2.69.3,4.65.9,5.89.6,1.24,1.56,1.86,2.88,1.86,2.27,0,4.81-1,7.62-3.01,2.81-2,5.35-4.64,7.62-7.9,1.78-2.44,3.16-3.66,4.15-3.66,1.28,0,1.92,1.01,1.92,3.04,0,4.42-1.38,8.74-4.15,12.96-2.77,4.22-6.33,7.64-10.69,10.26-4.36,2.62-8.81,3.94-13.36,3.94-5.58,0-10.12-1.76-13.64-5.27-3.51-3.51-5.27-8.1-5.27-13.76,0-4.63.99-10.05,2.98-16.27,1.98-6.22,4.64-12.48,7.96-18.78,3.33-6.3,6.97-12.01,10.94-17.14,3.97-5.12,7.89-9.05,11.78-11.78,2.4-1.78,5.06-2.67,8-2.67,2.23,0,4.26.69,6.08,2.08,1.82,1.38,3.22,3.32,4.21,5.8s1.49,5.23,1.49,8.24c0,6.49-1.27,12.83-3.81,19.03-2.54,6.2-6.09,11.57-10.63,16.12-2.15,2.19-4.22,3.91-6.2,5.15-1.98,1.24-3.72,1.86-5.21,1.86s-2.17-.56-2.17-1.67c0-.62.54-1.8,1.61-3.53,1.45-2.27,3.14-5.7,5.08-10.29.17-.45.35-.94.56-1.46s.45-1.23.74-2.14Z"/>
        <path class="cls-1" d="M866.04,75.3l.25-.74c2.73-7.69,5.09-13.1,7.08-16.24.95-1.49,2.28-2.81,3.97-3.97,3.19-2.02,6.19-3.04,9-3.04,1.65,0,2.92.37,3.79,1.12.87.75,1.3,1.82,1.3,3.23,0,.95-.62,2.89-1.87,5.82-2.12,4.88-3.7,9.44-4.74,13.7.7.08,1.39.21,2.05.37,2.48.37,4.12.8,4.9,1.27s1.18,1.33,1.18,2.57c0,2.19-.56,4.22-1.67,6.08-1.12,1.86-2.58,3.22-4.4,4.09-1.36.62-3.57,1.03-6.63,1.24-.53,1.61-1.12,3.82-1.78,6.64-.37,2.48-.78,5.91-1.23,10.29-.25,1.61-.37,3.12-.37,4.52,0,6.52,3.16,9.79,9.49,9.79h.56c.74,0,1.12.12,1.12.37,0,.66-.7,1.78-2.11,3.35-1.41,1.57-2.96,2.96-4.65,4.15-1.82,1.24-3.8,2.23-5.96,2.98-2.15.74-4.1,1.12-5.84,1.12-4.35,0-7.88-1.47-10.59-4.4-2.71-2.93-4.07-6.82-4.07-11.65,0-2.07.36-4.77,1.08-8.12.72-3.35,1.85-7.83,3.38-13.45.25-.99.52-2.03.81-3.13.29-1.09.45-1.75.5-1.95-1.65-.04-2.83-.39-3.53-1.05-.7-.66-1.05-1.74-1.05-3.22,0-2.6,1-5.06,3.01-7.38,2-2.31,4.35-3.76,7.04-4.34Z"/>
      </g>
      <g>
        <path class="cls-3" d="M80.7,68.87l26.72-28.9c7.36-7.12,13.07-12.4,17.1-15.83,4.03-3.43,9.03-7.08,15-10.95,10.44-7.04,19.95-10.56,28.54-10.56,6.49,0,9.73,2.42,9.73,7.24,0,3.69-.88,7.37-2.63,11.06-1.76,3.69-4.13,7.03-7.11,10.01-5.36,5.35-15.63,12.64-30.82,21.86-11.41,7.02-20.37,13.21-26.87,18.57,1.06,6.5,2.22,12.36,3.5,17.58,1.28,5.22,2.7,9.83,4.28,13.83,1.58,4,3.82,8.81,6.71,14.42,3.24,6.32,6.75,12.12,10.53,17.39,9.48,12.82,18.92,21.25,28.32,25.29,2.9,1.41,4.35,2.68,4.35,3.82,0,2.2-1.54,4.61-4.62,7.24-4.05,4.21-8.95,7.46-14.71,9.75-5.76,2.28-11.59,3.43-17.48,3.43-10.73,0-20.36-2.82-28.89-8.47-8.53-5.64-15.06-13.57-19.58-23.77-5.22-11.52-8.61-25.49-10.16-41.91-.35-2.81-.52-5.93-.52-9.35h-.53c-3.6,5.18-6.2,9.37-7.78,12.58-1.58,3.21-4.04,8.98-7.38,17.32-3.96,10.63-7.6,18.81-10.94,24.56-3.34,5.75-7.16,10.43-11.47,14.03-4.04,3.51-8.53,6.45-13.45,8.82-4.92,2.37-9,3.56-12.26,3.56-2.37,0-4.35-.9-5.93-2.7-1.58-1.8-2.37-3.97-2.37-6.52,0-1.58.09-2.81.26-3.69,4.13-16.59,8.63-33.43,13.5-50.51,4.87-17.08,9.85-33.19,14.95-48.33,5.09-15.15,9.79-27.99,14.1-38.52,4.31-10.54,7.65-17.25,10.03-20.15,2.82-3.25,6.99-5.9,12.53-7.97,5.54-2.06,11.3-3.09,17.28-3.09,5.45,0,9.32.73,11.61,2.18,2.29,1.45,3.43,3.85,3.43,7.19,0,4.58-4.65,19.7-13.96,45.39-.62,1.85-1.65,4.73-3.09,8.64-1.45,3.91-2.48,6.8-3.1,8.64l.53.66,2.63-3.83Z"/>
        <path class="cls-3" d="M176.17,135.86c-1.86-.12-3.55-.97-5.08-2.54-1.53-1.65-2.61-3.44-3.25-5.36-.64-1.92-.96-4.41-.96-7.47,0-6.82,1.27-14.51,3.81-23.09s5.42-14.78,8.65-18.63c1.28-1.61,3.06-2.42,5.33-2.42,2.4,0,4.33,1.1,5.79,3.29,1.47,2.19,2.2,5.06,2.2,8.62,0,5.25-.76,11.39-2.27,18.44s-3.63,14.37-6.37,21.97c-1.07,3.06-2.39,5.13-3.96,6.2-1.07.66-2.33.99-3.78.99h-.12ZM183.62,73.57c-3.88-.12-5.83-2.46-5.83-7,0-2.27.57-4.91,1.7-7.9,1.14-3,2.43-5.22,3.87-6.66.74-.78,1.5-1.34,2.26-1.67.76-.33,1.75-.5,2.94-.5,2.07,0,3.58.51,4.56,1.52.97,1.01,1.46,2.7,1.46,5.05,0,2.94-.51,5.71-1.52,8.34-1.01,2.62-2.37,4.75-4.06,6.38-1.69,1.63-3.43,2.45-5.21,2.45h-.19Z"/>
        <path class="cls-3" d="M217.28,137.91c2.44-.12,4.66-1.31,6.66-3.56,2-2.25,3.01-4.7,3.01-7.35,0-1.82-.6-3.26-1.8-4.34-1.28-1.28-4.15-2.54-8.62-3.78-6.57-1.9-10.85-4.03-12.83-6.38-1.86-1.9-2.79-4.17-2.79-6.82,0-4.75,1.72-9.5,5.18-14.26,3.45-4.75,7.86-8.65,13.23-11.68,5.37-3.04,10.79-4.56,16.24-4.56,2.64,0,5.12.62,7.44,1.86,2.31,1.24,4.15,2.88,5.52,4.93,1.36,2.05,2.05,4.27,2.05,6.66s-.74,4.79-2.23,7.31c-1.49,2.52-3.36,4.62-5.61,6.29-2.25,1.67-4.39,2.51-6.42,2.51-1.16,0-2.16-.25-3.01-.74-.85-.5-1.27-1.03-1.27-1.61s.17-1.43.5-2.54c.91-3.55,1.36-6.65,1.36-9.3s-.79-5.06-2.36-7.38c-2.03,1.4-3.35,2.52-3.97,3.34-1.57,1.82-2.79,3.88-3.66,6.19-.95,2.35-1.43,4.58-1.43,6.69,0,1.49.34,2.67,1.03,3.56.68.89,1.8,1.64,3.35,2.26,1.55.62,3.89,1.3,7.03,2.05,5.25,1.28,8.94,2.52,11.09,3.72.5.29,1.26.89,2.29,1.8,1.57,1.7,2.35,3.89,2.35,6.57,0,2.85-.89,5.74-2.67,8.65-1.78,2.92-4.52,5.92-8.24,9.02-3.97,3.35-7.91,5.75-11.84,7.19-3.93,1.45-8.27,2.17-13.02,2.17s-8.19-.91-10.82-2.73c-2.62-1.82-3.94-4.3-3.94-7.44,0-2.23.87-4.49,2.6-6.79,1.74-2.29,3.89-4.16,6.48-5.61,2.58-1.45,5.11-2.17,7.59-2.17,1.86,0,2.79.41,2.79,1.24,0,.41-.27,1.09-.81,2.04-1.61,2.89-2.42,5.56-2.42,8,0,1.74.64,3.39,1.92,4.96Z"/>
        <path class="cls-3" d="M274.19,137.91c2.44-.12,4.66-1.31,6.66-3.56,2-2.25,3.01-4.7,3.01-7.35,0-1.82-.6-3.26-1.8-4.34-1.28-1.28-4.15-2.54-8.62-3.78-6.57-1.9-10.85-4.03-12.83-6.38-1.86-1.9-2.79-4.17-2.79-6.82,0-4.75,1.72-9.5,5.18-14.26,3.45-4.75,7.86-8.65,13.23-11.68,5.37-3.04,10.79-4.56,16.24-4.56,2.64,0,5.12.62,7.44,1.86,2.31,1.24,4.15,2.88,5.52,4.93,1.36,2.05,2.05,4.27,2.05,6.66s-.74,4.79-2.23,7.31c-1.49,2.52-3.36,4.62-5.61,6.29-2.25,1.67-4.39,2.51-6.42,2.51-1.16,0-2.16-.25-3.01-.74-.85-.5-1.27-1.03-1.27-1.61s.17-1.43.5-2.54c.91-3.55,1.36-6.65,1.36-9.3s-.79-5.06-2.36-7.38c-2.03,1.4-3.35,2.52-3.97,3.34-1.57,1.82-2.79,3.88-3.66,6.19-.95,2.35-1.43,4.58-1.43,6.69,0,1.49.34,2.67,1.03,3.56.68.89,1.8,1.64,3.35,2.26,1.55.62,3.89,1.3,7.03,2.05,5.25,1.28,8.94,2.52,11.09,3.72.5.29,1.26.89,2.29,1.8,1.57,1.7,2.35,3.89,2.35,6.57,0,2.85-.89,5.74-2.67,8.65-1.78,2.92-4.52,5.92-8.24,9.02-3.97,3.35-7.91,5.75-11.84,7.19-3.93,1.45-8.27,2.17-13.02,2.17s-8.19-.91-10.82-2.73c-2.62-1.82-3.94-4.3-3.94-7.44,0-2.23.87-4.49,2.6-6.79,1.74-2.29,3.89-4.16,6.48-5.61,2.58-1.45,5.11-2.17,7.59-2.17,1.86,0,2.79.41,2.79,1.24,0,.41-.27,1.09-.81,2.04-1.61,2.89-2.42,5.56-2.42,8,0,1.74.64,3.39,1.92,4.96Z"/>
        <path class="cls-3" d="M413.97,112.81l-16.92,17.36c-2.19,2.19-3.96,3.69-5.3,4.49-1.34.81-2.82,1.21-4.43,1.21-2.52,0-4.64-.94-6.35-2.82-1.72-1.88-2.57-4.18-2.57-6.91,0-1.69.26-3.54.77-5.55.52-2,1.54-4.99,3.07-8.96.29-.83.57-1.54.84-2.14.27-.6.49-1.1.65-1.52l-.25-.25c-4.01,4.22-7.93,8.66-11.78,13.33-3.22,3.84-5.79,6.72-7.69,8.62s-3.62,3.33-5.15,4.28c-1.53.95-2.89,1.43-4.09,1.43-2.69,0-4.81-1.05-6.38-3.16-1.57-2.11-2.36-4.98-2.36-8.62,0-4.59,1.98-12,5.95-22.25,3.55-9.09,6.3-15.19,8.24-18.29,2.85-4.3,6.11-6.45,9.79-6.45,2.23,0,4.08.53,5.54,1.58s2.2,2.43,2.2,4.12c0,3.1-1.17,7.83-3.52,14.19-.91,2.35-1.83,5.02-2.78,7.99l.25.25c1.53-1.69,3.98-4.6,7.37-8.74,5.82-7.19,10.22-12.08,13.2-14.68,3.84-3.55,7.36-5.33,10.54-5.33,1.41,0,2.75.48,4.03,1.43s2.3,2.22,3.07,3.81c.77,1.59,1.15,3.25,1.15,4.99s-1.28,6.33-3.83,13.64c-.54,1.53-.95,2.73-1.23,3.6-.29.87-.56,1.61-.8,2.23l.31.25c.58-.58,1.09-1.09,1.55-1.55.45-.46.96-.94,1.52-1.46.56-.52,1.08-1,1.58-1.46,1.11-1.08,3.92-3.91,8.42-8.5,2.97-3.31,5.3-5.57,7-6.79,1.69-1.22,3.33-1.83,4.9-1.83,2.56,0,4.51.88,5.86,2.63,1.34,1.76,2.01,4.35,2.01,7.78,0,2.11-.33,5.43-.99,9.98-.58,5.12-.98,9.14-1.21,12.06-.23,2.91-.34,4.95-.34,6.11,0,.87.05,1.97.16,3.32.1,1.34.28,2.78.53,4.31.25,1.53.58,3.22.99,5.08.5,2.27.83,4.05.99,5.33-.33,1.49-1.42,2.75-3.25,3.78-1.84,1.03-3.83,1.55-5.98,1.55-3.39,0-6.57-1.53-9.55-4.59-1.32-1.41-2.35-2.82-3.07-4.25-.72-1.43-1.24-3.12-1.55-5.08-.31-1.96-.46-4.56-.46-7.78,0-2.11.25-6.47.74-13.08l-.25-.25-1.12,1.55Z"/>
        <path class="cls-3" d="M483.93,92.72l.81-2.67c1.08-4.13,2.71-7.31,4.9-9.55,1.41-1.4,3.02-2.56,4.84-3.47,1.82-.91,3.47-1.36,4.96-1.36,2.73,0,4.09,1.16,4.09,3.47,0,1.16-.37,2.96-1.12,5.39s-1.73,5.2-2.95,8.28c-1.22,3.08-2.65,6.46-4.28,10.13-1.64,3.68-3.44,7.46-5.43,11.34-3.6,7.36-7.24,13.58-10.92,18.66-2.65,3.64-5.34,6.86-8.07,9.67-2.73,2.81-5.6,5.33-8.59,7.56-3,2.23-5.83,3.92-8.5,5.05-2.67,1.14-5.12,1.7-7.35,1.7-1.86,0-2.79-.81-2.79-2.42,0-1.28.29-2.81.87-4.59.58-1.78,1.39-3.45,2.42-5.02,1.12-1.49,2.52-2.81,4.22-3.97,2.15-1.49,5.32-3.18,9.5-5.08-2.49-4.17-4.37-7.48-5.65-9.92-1.28-2.44-2.69-5.48-4.22-9.11-3.4-8.06-5.09-15.37-5.09-21.94,0-5,.62-9.07,1.86-12.21,1.12-2.69,3.16-4.59,6.14-5.7,2.4-.95,4.55-1.43,6.45-1.43,2.69,0,4.49,1.02,5.42,3.07.93,2.04,1.75,6.83,2.45,14.35.75,8.06,1.96,16.01,3.62,23.87.29,1.2.62,2.85,1,4.96h.25c1.12-2.44,2.34-5.39,3.66-8.86.41-.99,1.86-4.65,4.34-10.97,1.41-3.8,2.46-6.88,3.16-9.24Z"/>
        <path class="cls-3" d="M572.35,59.68l-3.78-6.82c.95-.74,1.84-1.26,2.66-1.55,3.18-1.07,7.02-1.61,11.52-1.61s8.05,1.3,10.53,3.91c2.15,2.27,3.9,5.46,5.27,9.55,1.36,4.09,2.62,9.92,3.78,17.48.62,3.84,1.16,6.74,1.61,8.68,1.45,5.41,2.41,8.87,2.89,10.38.48,1.51,1.33,3.92,2.58,7.22.41.95.96,2.28,1.64,4,.68,1.72,1.33,3.32,1.95,4.8,1.36,3.22,3.43,7.48,6.2,12.77-3.47,2.44-6.4,4.2-8.8,5.27-2.4,1.07-4.59,1.61-6.57,1.61-2.44,0-4.47-.47-6.1-1.43-1.63-.95-3.11-2.46-4.43-4.53-1.57-2.81-3.14-6.63-4.71-11.47-.17-.46-.36-1.03-.59-1.74-.23-.7-.49-1.47-.78-2.29-4.85,2.03-8.63,3.04-11.32,3.04-1.54,0-2.86-.04-3.98-.12-.96-.08-5.37-.21-13.25-.37l-.57,1.21c-2.28,4.85-4.41,8.54-6.4,11.06-1.98,2.52-4.27,4.3-6.85,5.33-2.58,1.03-5.82,1.55-9.7,1.55-2.23,0-3.82-.25-4.77-.74-.95-.5-1.43-1.3-1.43-2.42,0-1.36,2.27-5.12,6.82-11.28,1.61-2.15,2.81-3.84,3.59-5.08-4.34-.83-6.51-2.36-6.51-4.59,0-1.82,1.74-4.52,5.21-8.12,1.65-1.74,3.19-2.84,4.62-3.32,1.43-.47,3.92-.73,7.47-.77,3.31-6.08,5.41-9.95,6.32-11.62s2.09-3.78,3.53-6.32c1.45-2.54,3.09-5.43,4.93-8.68,1.84-3.24,4.31-7.57,7.41-12.99ZM577.69,76.02l-11.32,24.08h16.75l-5.19-24.08h-.25Z"/>
        <path class="cls-3" d="M641.03,137.91c2.44-.12,4.66-1.31,6.66-3.56,2-2.25,3.01-4.7,3.01-7.35,0-1.82-.6-3.26-1.8-4.34-1.28-1.28-4.15-2.54-8.62-3.78-6.57-1.9-10.85-4.03-12.83-6.38-1.86-1.9-2.79-4.17-2.79-6.82,0-4.75,1.72-9.5,5.18-14.26,3.45-4.75,7.86-8.65,13.23-11.68,5.37-3.04,10.79-4.56,16.24-4.56,2.64,0,5.12.62,7.44,1.86,2.31,1.24,4.15,2.88,5.52,4.93,1.36,2.05,2.05,4.27,2.05,6.66s-.74,4.79-2.23,7.31c-1.49,2.52-3.36,4.62-5.61,6.29-2.25,1.67-4.39,2.51-6.42,2.51-1.16,0-2.16-.25-3.01-.74s-1.27-1.03-1.27-1.61.17-1.43.5-2.54c.91-3.55,1.36-6.65,1.36-9.3s-.79-5.06-2.36-7.38c-2.02,1.4-3.35,2.52-3.97,3.34-1.57,1.82-2.79,3.88-3.66,6.19-.95,2.35-1.43,4.58-1.43,6.69,0,1.49.34,2.67,1.03,3.56.68.89,1.8,1.64,3.35,2.26,1.55.62,3.89,1.3,7.03,2.05,5.25,1.28,8.95,2.52,11.09,3.72.5.29,1.26.89,2.29,1.8,1.57,1.7,2.35,3.89,2.35,6.57,0,2.85-.89,5.74-2.67,8.65-1.78,2.92-4.53,5.92-8.25,9.02-3.97,3.35-7.91,5.75-11.84,7.19-3.93,1.45-8.27,2.17-13.02,2.17s-8.19-.91-10.82-2.73c-2.62-1.82-3.94-4.3-3.94-7.44,0-2.23.87-4.49,2.6-6.79,1.74-2.29,3.89-4.16,6.48-5.61,2.58-1.45,5.11-2.17,7.59-2.17,1.86,0,2.79.41,2.79,1.24,0,.41-.27,1.09-.81,2.04-1.61,2.89-2.42,5.56-2.42,8,0,1.74.64,3.39,1.92,4.96Z"/>
        <path class="cls-3" d="M702.25,121.91l-.12,3.41c-.58,8.22-1.32,14.92-2.23,20.09-.91,5.17-1.94,8.33-3.1,9.48-1.57,1.69-4.03,2.54-7.37,2.54-3.59,0-6.17-.7-7.74-2.11-.62-.7-1.03-1.34-1.24-1.92-.21-.58-.31-1.63-.31-3.16v-1.92c.12-11.61,1.24-23.29,3.35-35.02,2.11-11.74,4.9-22.43,8.37-32.08,3.47-9.65,7.27-17.29,11.41-22.94,4.13-5.64,8.24-8.46,12.33-8.46,1.86,0,3.25.63,4.18,1.89.93,1.26,1.39,3.07,1.39,5.42,0,3.51-.37,7.24-1.12,11.19-.74,3.95-1.64,7.16-2.7,9.64-1.05,2.48-2.12,3.72-3.19,3.72-.99,0-1.49-1.74-1.49-5.21v-1.92c0-3.47-.07-5.74-.21-6.82-.14-1.07-.46-1.8-.95-2.17-.45.91-.78,1.96-.98,3.16-1,4.96-1.82,9.44-2.44,13.45-.63,4.01-1.57,10.52-2.82,19.52-.04.5-.1,1.05-.19,1.67-.08.62-.15,1.18-.19,1.67h.87c.5-.04.95-.07,1.37-.09.42-.02,1.06-.03,1.93-.03,1.57-.21,2.98-.31,4.23-.31,4.93,0,7.39,1.28,7.39,3.84,0,1.32-.47,2.92-1.4,4.8s-2.04,3.44-3.32,4.68c-1.28,1.24-2.74,2.14-4.38,2.7-1.63.56-3.98.94-7.04,1.15-.66,0-1.13.01-1.4.03-.27.02-.57.05-.9.09Z"/>
        <path class="cls-3" d="M768.54,117.21v.25l-.25-.25c-3.84,4.5-7.37,8.19-10.57,11.06-3.2,2.87-6.16,5.03-8.86,6.48-2.71,1.45-5.2,2.17-7.47,2.17-4.63,0-8.45-1.55-11.47-4.65s-4.53-7.02-4.53-11.78c0-2.93.74-6.41,2.23-10.41,1.49-4.01,3.53-7.93,6.14-11.78,4.34-6.28,9.79-11.61,16.36-15.99,6.78-4.5,13.31-6.76,19.59-6.76,5.29,0,9.64,1.08,13.05,3.25,3.41,2.17,5.11,4.91,5.11,8.21,0,2.44-.85,5.02-2.54,7.75,2.23,0,3.64.24,4.21.71.58.48.87,1.58.87,3.32,0-.17-.1.68-.31,2.54-.25,4.09-.37,7.91-.37,11.47,0,1.86.02,3.26.06,4.21.04.95.12,2.05.25,3.29.12,1.24.25,2.23.37,2.97.33,1.94.87,3.87,1.61,5.77-2.48,2.44-4.86,4.23-7.13,5.36-2.27,1.14-4.59,1.71-6.94,1.71-6.36,0-9.55-5.33-9.55-15.99,0-1.24.04-2.21.12-2.91ZM772.25,103.01l-1.18.37c-2.97.83-5.12,1.24-6.45,1.24-1.61,0-2.42-.41-2.42-1.24,0-.29.33-1.05.99-2.29,2.31-3.51,3.47-6.82,3.47-9.92,0-1.78-.31-3.4-.93-4.87-.62-1.47-1.3-2.2-2.05-2.2-.66,0-1.67.7-3.04,2.11-3.84,4.17-6.89,8.45-9.14,12.83-2.25,4.38-3.38,8.29-3.38,11.71,0,2.27.46,4.15,1.39,5.64.93,1.49,2.1,2.23,3.5,2.23,1.2,0,3.44-1.28,6.73-3.84,3.29-2.56,6.97-5.95,11.06-10.17l1.67-1.36-.25-.25Z"/>
        <path class="cls-3" d="M829.59,88.88c1.65-4.67,3.04-9.56,4.15-14.66,1.12-5.1,1.67-9.02,1.67-11.75,0-.74-.21-1.12-.62-1.12-.66,0-1.82,1.48-3.47,4.43-1.65,2.96-3.04,5.96-4.15,9.02-2.4,6.74-4.25,12.33-5.55,16.77-1.3,4.44-2.2,8.17-2.7,11.19-.5,3.02-.74,6.1-.74,9.24,0,2.69.3,4.65.9,5.89.6,1.24,1.56,1.86,2.88,1.86,2.27,0,4.81-1,7.62-3.01,2.81-2,5.35-4.64,7.62-7.9,1.78-2.44,3.16-3.66,4.15-3.66,1.28,0,1.92,1.01,1.92,3.04,0,4.42-1.38,8.74-4.15,12.96-2.77,4.22-6.33,7.64-10.69,10.26-4.36,2.62-8.81,3.94-13.36,3.94-5.58,0-10.12-1.76-13.64-5.27-3.51-3.51-5.27-8.1-5.27-13.76,0-4.63.99-10.05,2.98-16.27,1.98-6.22,4.64-12.48,7.96-18.78,3.33-6.3,6.97-12.01,10.94-17.14,3.97-5.12,7.89-9.05,11.78-11.78,2.4-1.78,5.06-2.67,8-2.67,2.23,0,4.26.69,6.08,2.08,1.82,1.38,3.22,3.32,4.21,5.8s1.49,5.23,1.49,8.24c0,6.49-1.27,12.83-3.81,19.03-2.54,6.2-6.09,11.57-10.63,16.12-2.15,2.19-4.22,3.91-6.2,5.15-1.98,1.24-3.72,1.86-5.21,1.86s-2.17-.56-2.17-1.67c0-.62.54-1.8,1.61-3.53,1.45-2.27,3.14-5.7,5.08-10.29.17-.45.35-.94.56-1.46s.45-1.23.74-2.14Z"/>
        <path class="cls-3" d="M866.04,75.3l.25-.74c2.73-7.69,5.09-13.1,7.08-16.24.95-1.49,2.28-2.81,3.97-3.97,3.19-2.02,6.19-3.04,9-3.04,1.65,0,2.92.37,3.79,1.12.87.75,1.3,1.82,1.3,3.23,0,.95-.62,2.89-1.87,5.82-2.12,4.88-3.7,9.44-4.74,13.7.7.08,1.39.21,2.05.37,2.48.37,4.12.8,4.9,1.27s1.18,1.33,1.18,2.57c0,2.19-.56,4.22-1.67,6.08-1.12,1.86-2.58,3.22-4.4,4.09-1.36.62-3.57,1.03-6.63,1.24-.53,1.61-1.12,3.82-1.78,6.64-.37,2.48-.78,5.91-1.23,10.29-.25,1.61-.37,3.12-.37,4.52,0,6.52,3.16,9.79,9.49,9.79h.56c.74,0,1.12.12,1.12.37,0,.66-.7,1.78-2.11,3.35-1.41,1.57-2.96,2.96-4.65,4.15-1.82,1.24-3.8,2.23-5.96,2.98-2.15.74-4.1,1.12-5.84,1.12-4.35,0-7.88-1.47-10.59-4.4-2.71-2.93-4.07-6.82-4.07-11.65,0-2.07.36-4.77,1.08-8.12.72-3.35,1.85-7.83,3.38-13.45.25-.99.52-2.03.81-3.13.29-1.09.45-1.75.5-1.95-1.65-.04-2.83-.39-3.53-1.05-.7-.66-1.05-1.74-1.05-3.22,0-2.6,1-5.06,3.01-7.38,2-2.31,4.35-3.76,7.04-4.34Z"/>
      </g>
    </g>
  </g>
</svg>