<svg width="283" height="283" viewBox="0 0 283 283" fill="none" xmlns="http://www.w3.org/2000/svg">
<g clip-path="url(#clip0_419_635)">
<path d="M143.292 81.3153C132.114 81.3153 114.815 68.6039 96.5974 69.052C72.5424 69.3704 50.4919 83.0015 38.0989 104.592C13.1359 147.926 31.6607 211.932 56.0104 247.153C67.9554 264.298 82.0464 283.59 100.724 282.988C118.648 282.222 125.369 271.35 147.125 271.35C168.715 271.35 174.835 282.988 193.82 282.528C213.123 282.222 225.374 265.077 237.166 247.766C250.797 227.862 256.457 208.559 256.764 207.498C256.304 207.345 219.242 193.1 218.794 150.226C218.488 114.379 248.038 97.2341 249.417 96.4676C232.567 71.823 206.696 69.0638 197.652 68.4506C174.069 66.6111 154.318 81.3153 143.292 81.3153ZM183.125 45.1621C193.065 33.2289 199.633 16.5437 197.805 0C183.573 0.613167 166.416 9.49229 156.157 21.4372C146.96 32.0026 139.012 49.0062 141.146 65.2315C156.924 66.4578 173.161 57.1188 183.113 45.1739" fill="black"/>
</g>
<defs>
<clipPath id="clip0_419_635">
<rect width="283" height="283" fill="white"/>
</clipPath>
</defs>
</svg>
